<?xml version="1.0" encoding="UTF-8"?>
<svg width="813px" height="125px" viewBox="0 0 813 125" version="1.1" xmlns="http://www.w3.org/2000/svg" xmlns:xlink="http://www.w3.org/1999/xlink">
    <!-- Generator: Sketch 60.1 (88133) - https://sketch.com -->
    <title>Group 3</title>
    <desc>Created with Sketch.</desc>
    <g id="Page-1" stroke="none" stroke-width="1" fill="none" fill-rule="evenodd">
        <g id="Group-3">
            <text id="HutchOS-Docs" font-family="LeagueSpartan-Medium, League Spartan" font-size="123" font-weight="400" letter-spacing="-1.9">
                <tspan x="193.136121" y="98.516937" fill="#291D4D">HutchOS </tspan>
                <tspan x="664.148481" y="98.516937" font-family="LeagueSpartan-Regular, League Spartan" font-size="83" font-weight="normal" letter-spacing="-1.28211382" fill="#2B1D4F" fill-opacity="0.713099766">Docs</tspan>
            </text>
            <path d="M8.75892125,82.683337 C5.58362125,80.850137 3.99652117,78.447437 3.99652117,76.044837 C3.99652117,73.642837 5.58442125,71.240837 8.75892125,69.408137 L72.1851213,32.792237 C78.5350213,29.126437 88.8303213,29.126437 95.1801213,32.792237 L158.606121,69.408137 C161.781121,71.240837 163.369121,73.642837 163.369121,76.044837 C163.369121,78.447437 161.782121,80.850137 158.606121,82.683337 L95.1801213,119.298937 C88.8303213,122.964937 78.5350213,122.964937 72.1851213,119.298937 L8.75892125,82.683337 Z" id="Path" fill="#FFFFFF" fill-rule="nonzero"></path>
            <path d="M74.0006213,35.937137 L10.5745213,72.553037 C8.06132125,74.003837 7.62782123,75.397837 7.62782123,76.045437 C7.62782123,76.692937 8.06072125,78.087237 10.5745213,79.538437 L74.0006213,116.153937 C76.4937213,117.593937 79.9898213,118.416937 83.6827213,118.416937 C87.3756213,118.416937 90.8717213,117.593937 93.3651213,116.153937 L156.791121,79.538437 C159.305121,78.087237 159.738121,76.692937 159.738121,76.045437 C159.738121,75.397837 159.304121,74.003837 156.791121,72.553037 L93.3651213,35.937137 C90.8717213,34.497837 87.3756213,33.674137 83.6827213,33.674137 C79.9898213,33.674137 76.4937213,34.497837 74.0006213,35.937137 Z M3.99652117,76.044837 C3.99652117,78.447437 5.58362125,80.850137 8.75892125,82.683337 L72.1851213,119.298937 C78.5350213,122.964937 88.8303213,122.964937 95.1801213,119.298937 L158.606121,82.683337 C161.782121,80.850137 163.369121,78.447437 163.369121,76.044837 C163.369121,73.642837 161.781121,71.240837 158.606121,69.408137 L95.1801213,32.792237 C88.8303213,29.126437 78.5350213,29.126437 72.1851213,32.792237 L8.75892125,69.408137 C5.58442125,71.240837 3.99652117,73.642837 3.99652117,76.044837 Z" id="Shape" fill="#291D4D"></path>
            <path d="M95.1801213,23.152537 C88.8303213,19.486737 78.5350213,19.486737 72.1851213,23.152537 L72.1851213,32.792237 C78.5350213,29.126437 88.8303213,29.126437 95.1801213,32.792237 L95.1801213,23.152537 Z" id="Path" fill="#FFFFFF" fill-rule="nonzero"></path>
            <path d="M75.8164213,25.425837 L75.8164213,27.426637 C78.3594213,26.737237 81.0528213,26.411637 83.6827213,26.411637 C86.3126213,26.411637 89.0059213,26.737237 91.5491213,27.426737 L91.5491213,25.425837 C89.2968213,24.530737 86.5490213,24.034437 83.6827213,24.034437 C80.8164213,24.034437 78.0686213,24.530737 75.8164213,25.425837 Z M95.1801213,23.152537 C88.8303213,19.486737 78.5350213,19.486737 72.1851213,23.152537 L72.1851213,32.792237 C73.2899213,32.154437 74.5142213,31.627537 75.8164213,31.211737 C80.6960213,29.653237 86.6693213,29.653237 91.5491213,31.211737 C92.8511213,31.627537 94.0751213,32.154437 95.1801213,32.792237 L95.1801213,23.152537 Z" id="Shape" fill="#291D4D"></path>
            <polygon id="Path" fill="#FFFFFF" fill-rule="nonzero" points="72.1851213 23.152537 8.75892125 59.768437 8.75892125 69.408137 72.1851213 32.792237"></polygon>
            <path d="M12.3902213,61.865037 L12.3902213,63.118837 L68.5538213,30.695637 L68.5538213,29.441837 L12.3902213,61.865037 Z M8.75892125,59.768437 L8.75892125,69.408137 L72.1851213,32.792237 L72.1851213,23.152537 L8.75892125,59.768437 Z" id="Shape" fill="#291D4D"></path>
            <polygon id="Path" fill="#FFFFFF" fill-rule="nonzero" points="158.606121 59.768437 95.1801213 23.152537 95.1801213 32.792237 158.606121 69.408137"></polygon>
            <path d="M95.1801213,23.152537 L95.1801213,32.792237 L158.606121,69.408137 L158.606121,59.768437 L95.1801213,23.152537 Z M98.8111213,29.441837 L98.8111213,30.695637 L154.975121,63.118837 L154.975121,61.865037 L98.8111213,29.441837 Z" id="Shape" fill="#291D4D"></path>
            <path d="M3.99652125,66.405137 C3.99692125,64.003137 5.58442125,61.601137 8.75892125,59.768437 L8.75892125,69.408137 C5.58442125,71.240837 3.99692125,73.642837 3.99652125,76.044837 L3.99652125,66.405137 Z" id="Path" fill="#FFFFFF" fill-rule="nonzero"></path>
            <path d="M7.62782125,70.131737 C7.97932125,69.882137 8.35642125,69.640537 8.75892125,69.408137 L8.75892125,59.768437 C7.13132125,60.708137 5.92092125,61.797337 5.12772125,62.959537 C4.37372125,64.064137 3.99672125,65.234637 3.99652125,66.405137 L3.99652125,76.044837 C3.99682125,73.947437 5.20732125,71.850037 7.62782125,70.131737 Z" id="Path" fill="#291D4D"></path>
            <path d="M163.369121,66.405137 C163.368121,64.003137 161.781121,61.601137 158.606121,59.768437 L158.606121,69.408137 C161.781121,71.240837 163.368121,73.642837 163.369121,76.044837 L163.369121,66.405137 Z" id="Path" fill="#FFFFFF" fill-rule="nonzero"></path>
            <path d="M163.369121,66.405137 C163.369121,65.234637 162.992121,64.064137 162.238121,62.959537 C161.444121,61.797337 160.234121,60.708137 158.606121,59.768437 L158.606121,69.408137 C159.009121,69.640537 159.386121,69.882137 159.738121,70.131737 C162.158121,71.850037 163.368121,73.947437 163.369121,76.044837 L163.369121,66.405137 Z" id="Path" fill="#291D4D"></path>
            <path d="M8.75892125,73.043637 C5.58442125,71.210937 3.99692125,68.808937 3.99652117,66.406937 L3.99652117,76.044837 C3.99612125,78.447437 5.58362125,80.850137 8.75892125,82.683237 L8.75892125,73.043637 Z" id="Path" fill="#FFFFFF" fill-rule="nonzero"></path>
            <path d="M7.62782125,72.320037 C5.20732125,70.601737 3.99682125,68.504337 3.99652117,66.406937 L3.99652117,76.044837 C3.99632125,77.215937 4.37342125,78.387037 5.12772125,79.492237 C5.92092125,80.654437 7.13132125,81.743637 8.75892125,82.683237 L8.75892125,73.043637 C8.35642125,72.811137 7.97932125,72.569637 7.62782125,72.320037 Z" id="Path" fill="#291D4D"></path>
            <path d="M158.606121,73.043637 C161.781121,71.210937 163.368121,68.808937 163.369121,66.406937 L163.369121,76.044837 C163.369121,78.447437 161.782121,80.850137 158.606121,82.683237 L158.606121,73.043637 Z" id="Path" fill="#FFFFFF" fill-rule="nonzero"></path>
            <path d="M163.369121,66.406937 C163.368121,68.504337 162.158121,70.601737 159.738121,72.320037 C159.386121,72.569637 159.009121,72.811137 158.606121,73.043637 L158.606121,82.683237 C160.234121,81.743637 161.444121,80.654437 162.238121,79.492237 C162.992121,78.387037 163.369121,77.215937 163.369121,76.044837 L163.369121,66.406937 Z" id="Path" fill="#291D4D"></path>
            <polygon id="Path" fill="#FFFFFF" fill-rule="nonzero" points="8.75892125 73.043637 72.1851213 109.659937 72.1851213 119.298937 8.75892125 82.683337"></polygon>
            <path d="M8.75892125,73.043637 L8.75892125,82.683337 L72.1851213,119.298937 L72.1851213,109.659937 L8.75892125,73.043637 Z M12.3902213,79.332937 L68.5538213,111.755937 L68.5538213,113.009937 L12.3902213,80.586637 L12.3902213,79.332937 Z" id="Shape" fill="#291D4D"></path>
            <polygon id="Path" fill="#FFFFFF" fill-rule="nonzero" points="95.1801213 109.659937 158.606121 73.043637 158.606121 82.683337 95.1801213 119.298937"></polygon>
            <path d="M98.8111213,111.755937 L98.8111213,113.009937 L154.975121,80.586637 L154.975121,79.332937 L98.8111213,111.755937 Z M95.1801213,109.659937 L95.1801213,119.298937 L158.606121,82.683337 L158.606121,73.043637 L95.1801213,109.659937 Z" id="Shape" fill="#291D4D"></path>
            <path d="M72.1851213,109.659937 C78.5350213,113.324937 88.8303213,113.324937 95.1801213,109.659937 L95.1801213,119.298937 C88.8303213,122.964937 78.5350213,122.964937 72.1851213,119.298937 L72.1851213,109.659937 Z" id="Path" fill="#FFFFFF" fill-rule="nonzero"></path>
            <path d="M72.1851213,109.659937 L72.1851213,119.298937 C78.5350213,122.964937 88.8303213,122.964937 95.1801213,119.298937 L95.1801213,109.659937 C94.0751213,110.296937 92.8511213,110.823937 91.5491213,111.239937 C86.6693213,112.798937 80.6960213,112.798937 75.8164213,111.239937 C74.5142213,110.823937 73.2899213,110.296937 72.1851213,109.659937 Z M75.8164213,115.024937 L75.8164213,117.025937 C78.0686213,117.920937 80.8164213,118.416937 83.6827213,118.416937 C86.5490213,118.416937 89.2968213,117.920937 91.5491213,117.025937 L91.5491213,115.024937 C89.0059213,115.714937 86.3126213,116.039937 83.6827213,116.039937 C81.0528213,116.039937 78.3594213,115.714937 75.8164213,115.024937 Z" id="Shape" fill="#291D4D"></path>
            <path d="M5.93302125,84.314737 C1.97722125,82.031037 1.15897086e-06,79.037737 1.15897086e-06,76.044637 C1.15897086e-06,73.052237 1.97812125,70.059837 5.93302125,67.776737 L69.3591213,31.160837 C77.2698213,26.594037 90.0956213,26.594037 98.0061213,31.160837 L161.432121,67.776737 C165.388121,70.060437 167.365122,73.053637 167.365122,76.046837 C167.365122,79.039237 165.387121,82.031537 161.432121,84.314737 L98.0061213,120.930937 C90.0956213,125.497937 77.2698213,125.497937 69.3591213,120.930937 L5.93302125,84.314737 Z M11.5849213,71.039637 C9.19002125,72.422137 7.99302119,74.234337 7.99302119,76.046437 C7.99302119,77.858037 9.19062125,79.669637 11.5849213,81.051837 L75.0111213,117.667937 C79.8003213,120.432937 87.5651213,120.432937 92.3541213,117.667937 L155.780121,81.051837 C158.175121,79.669237 159.372122,77.857137 159.372122,76.045037 C159.372122,74.233437 158.175121,72.421837 155.780121,71.039637 L92.3541213,34.423637 C87.5651213,31.658837 79.8003213,31.658837 75.0111213,34.423637 L11.5849213,71.039637 Z" id="Shape" fill="#291D4D"></path>
            <path d="M4.90982125,78.939837 C4.55782125,78.042637 4.36192125,77.075937 4.36172125,76.047037 C4.36162125,75.017137 4.55742125,74.049537 4.90972125,73.151637 C3.93482125,74.267537 3.63142125,75.293837 3.63132115,76.045237 C3.63112125,76.796737 3.93442125,77.823537 4.90982125,78.939837 Z M162.456121,78.939737 C162.808121,78.041837 163.004121,77.074237 163.004121,76.044437 C163.003121,75.015537 162.808121,74.048837 162.456121,73.151637 C163.431121,74.267937 163.734121,75.294637 163.734121,76.046237 C163.734121,76.797637 163.430121,77.823937 162.456121,78.939737 Z M1.15897086e-06,76.044637 C1.15897086e-06,79.037737 1.97722125,82.031037 5.93302125,84.314737 L69.3591213,120.930937 C77.2698213,125.497937 90.0956213,125.497937 98.0061213,120.930937 L161.432121,84.314737 C165.387121,82.031537 167.365122,79.039237 167.365122,76.046837 C167.365122,73.053637 165.388121,70.060437 161.432121,67.776737 L98.0061213,31.160837 C90.0956213,26.594037 77.2698213,26.594037 69.3591213,31.160837 L5.93302125,67.776737 C1.97812125,70.059837 1.15897086e-06,73.052237 1.15897086e-06,76.044637 Z M7.99302119,76.046437 C7.99302119,74.234337 9.19002125,72.422137 11.5849213,71.039637 L75.0111213,34.423637 C79.8003213,31.658837 87.5651213,31.658837 92.3541213,34.423637 L155.780121,71.039637 C158.175121,72.421837 159.372122,74.233437 159.372122,76.045037 C159.372122,77.857137 158.175121,79.669237 155.780121,81.051837 L92.3541213,117.667937 C87.5651213,120.432937 79.8003213,120.432937 75.0111213,117.667937 L11.5849213,81.051837 C9.19062125,79.669637 7.99302119,77.858037 7.99302119,76.046437 Z" id="Shape" fill="#291D4D"></path>
            <path d="M69.3591213,21.521137 C77.2698213,16.954337 90.0956213,16.954337 98.0061213,21.521137 L98.0061213,31.160837 C90.0956213,26.594037 77.2698213,26.593937 69.3591213,31.160837 L69.3591213,21.521137 Z" id="Path" fill="#291D4D" fill-rule="nonzero"></path>
            <path d="M69.3591213,21.521137 L69.3591213,31.160837 C70.4802213,30.513637 71.6999213,29.958137 72.9904213,29.494437 C79.5158213,27.149437 87.8496213,27.149437 94.3751213,29.494437 C95.6651213,29.958137 96.8851213,30.513637 98.0061213,31.160837 L98.0061213,21.521137 C90.0956213,16.954337 77.2698213,16.954337 69.3591213,21.521137 Z M94.3751213,23.757237 C91.3391213,22.443037 87.5781213,21.727337 83.6827213,21.727337 C79.7873213,21.727337 76.0262213,22.443037 72.9904213,23.757237 L72.9904213,25.665637 C76.3907213,24.606837 80.0767213,24.104437 83.6827213,24.104437 C87.2886213,24.104437 90.9746213,24.606837 94.3751213,25.665637 L94.3751213,23.757237 Z" id="Shape" fill="#291D4D"></path>
            <path d="M92.3541213,24.784037 C87.5651213,22.019137 79.8003213,22.019137 75.0110213,24.784037 L75.0110213,34.423637 C79.8003213,31.658837 87.5651213,31.658837 92.3541213,34.423637 L92.3541213,24.784037 Z" id="Path" fill="#291D4D" fill-rule="nonzero"></path>
            <path d="M78.6423213,27.121037 L78.6423213,29.242637 C80.3036213,28.886537 82.0142213,28.718837 83.6827213,28.718837 C85.3512213,28.718837 87.0618213,28.886537 88.7230213,29.242637 L88.7230213,27.121037 C87.2575213,26.623937 85.5165213,26.341637 83.6827213,26.341637 C81.8489213,26.341637 80.1079213,26.623937 78.6423213,27.121037 Z M92.3541213,24.784037 C87.5651213,22.019137 79.8003213,22.019137 75.0110213,24.784037 L75.0110213,34.423637 C76.0926213,33.799337 77.3258213,33.315937 78.6423213,32.973537 C81.8390213,32.142237 85.5263213,32.142237 88.7230213,32.973537 C90.0395213,33.315937 91.2731213,33.799337 92.3541213,34.423637 L92.3541213,24.784037 Z" id="Shape" fill="#291D4D"></path>
            <polygon id="Path" fill="#291D4D" fill-rule="nonzero" points="5.93302125 58.137037 69.3591213 21.521137 69.3591213 31.160837 5.93302125 67.776737"></polygon>
            <path d="M9.56432125,60.233637 L9.56432125,61.487437 L65.7278213,29.064237 L65.7278213,27.810437 L9.56432125,60.233637 Z M5.93302125,58.137037 L5.93302125,67.776737 L69.3591213,31.160837 L69.3591213,21.521137 L5.93302125,58.137037 Z" id="Shape" fill="#291D4D"></path>
            <polygon id="Path" fill="#291D4D" fill-rule="nonzero" points="98.0061213 21.521137 161.432121 58.137037 161.432121 67.776737 98.0061213 31.160837"></polygon>
            <path d="M98.0061213,21.521137 L98.0061213,31.160837 L161.432121,67.776737 L161.432121,58.137037 L98.0061213,21.521137 Z M101.637121,27.810437 L157.801121,60.233637 L157.801121,61.487437 L101.637121,29.064237 L101.637121,27.810437 Z" id="Shape" fill="#291D4D"></path>
            <polygon id="Path" fill="#291D4D" fill-rule="nonzero" points="75.0111213 24.783937 11.5849213 61.399937 11.5849213 71.039537 75.0111213 34.423637"></polygon>
            <path d="M15.2162213,63.496537 L15.2162213,64.750337 L71.3798213,32.327037 L71.3798213,31.073237 L15.2162213,63.496537 Z M11.5849213,61.399937 L11.5849213,71.039537 L75.0111213,34.423637 L75.0111213,24.783937 L11.5849213,61.399937 Z" id="Shape" fill="#291D4D"></path>
            <polygon id="Path" fill="#291D4D" fill-rule="nonzero" points="155.780121 61.399937 92.3541213 24.784037 92.3541213 34.423737 155.780121 71.039637"></polygon>
            <path d="M92.3541213,24.784037 L92.3541213,34.423737 L155.780121,71.039637 L155.780121,61.399937 L92.3541213,24.784037 Z M95.9851213,31.073337 L95.9851213,32.327037 L152.149121,64.750337 L152.149121,63.496537 L95.9851213,31.073337 Z" id="Shape" fill="#291D4D"></path>
            <path d="M1.25000062e-06,66.404937 C0.000491250001,63.412537 1.97812125,60.420137 5.93302125,58.137037 L5.93302125,67.776737 C1.97812125,70.059837 0.000491250001,73.052137 1.25000062e-06,76.044637 L1.25000062e-06,66.404937 Z" id="Path" fill="#291D4D" fill-rule="nonzero"></path>
            <path d="M3.63132125,69.361337 C4.30482125,68.804337 5.07202125,68.273737 5.93302125,67.776737 L5.93302125,58.137037 C4.44132125,58.998237 3.23082125,59.960237 2.30172125,60.985137 C0.76755125,62.677537 0.000301250001,64.541237 1.25000062e-06,66.404937 L1.25000062e-06,76.044637 C0.000381250001,73.703637 1.21082125,71.362637 3.63132125,69.361337 Z" id="Path" fill="#291D4D"></path>
            <path d="M161.432121,58.137037 C165.388121,60.420737 167.366121,63.414037 167.365122,66.407137 L167.365122,76.044637 C167.365122,73.052237 165.387121,70.059837 161.432121,67.776737 L161.432121,58.137037 Z" id="Path" fill="#291D4D" fill-rule="nonzero"></path>
            <path d="M163.734121,69.361337 C166.154121,71.362737 167.365122,73.703637 167.365122,76.044637 L167.365122,66.407137 C167.366121,64.542737 166.598121,62.678237 165.064121,60.985237 C164.134121,59.960337 162.924121,58.998237 161.432121,58.137037 L161.432121,67.776737 C162.293121,68.273737 163.060121,68.804437 163.734121,69.361337 Z" id="Path" fill="#291D4D"></path>
            <path d="M159.372121,66.405337 C159.372121,64.593737 158.175121,62.782137 155.780121,61.399937 L155.780121,71.039637 C158.175121,72.421837 159.372121,74.233437 159.372121,76.045037 L159.372121,66.405337 Z" id="Path" fill="#291D4D" fill-rule="nonzero"></path>
            <path d="M155.780121,71.039637 C158.175121,72.421837 159.372121,74.233437 159.372121,76.045037 L159.372121,66.405337 C159.372121,64.593737 158.175121,62.782137 155.780121,61.399937 L155.780121,71.039637 Z" id="Path" fill="#291D4D"></path>
            <path d="M11.5849213,61.399937 C9.19002125,62.782437 7.99272125,64.594637 7.99302119,66.406737 L7.99302119,76.045037 C7.99332125,74.233437 9.19062125,72.421837 11.5849213,71.039637 L11.5849213,61.399937 Z" id="Path" fill="#291D4D" fill-rule="nonzero"></path>
            <path d="M7.99302119,76.045037 C7.99332125,74.233437 9.19062125,72.421837 11.5849213,71.039637 L11.5849213,61.399937 C9.19002125,62.782437 7.99272125,64.594637 7.99302119,66.406737 L7.99302119,76.045037 Z" id="Path" fill="#291D4D"></path>
            <path d="M155.780121,71.412137 C158.175121,70.029937 159.372122,68.218337 159.372122,66.406737 L159.372122,76.045037 C159.373121,77.857137 158.175121,79.669337 155.780121,81.051837 L155.780121,71.412137 Z" id="Path" fill="#291D4D" fill-rule="nonzero"></path>
            <path d="M159.372122,66.406737 C159.372122,68.218337 158.175121,70.029937 155.780121,71.412137 L155.780121,81.051837 C158.175121,79.669337 159.373121,77.857137 159.372122,76.045037 L159.372122,66.406737 Z" id="Path" fill="#291D4D"></path>
            <path d="M7.99302125,66.406737 C7.99332125,68.218337 9.19062125,70.029937 11.5849213,71.412137 L11.5849213,81.051837 C9.19062125,79.669637 7.99332125,77.858037 7.99302125,76.046437 L7.99302125,66.406737 Z" id="Path" fill="#291D4D" fill-rule="nonzero"></path>
            <path d="M7.99302125,66.406737 C7.99332125,68.218337 9.19062125,70.029937 11.5849213,71.412137 L11.5849213,81.051837 C9.19062125,79.669637 7.99332125,77.858037 7.99302125,76.046437 L7.99302125,66.406737 Z" id="Path" fill="#291D4D"></path>
            <path d="M5.93302125,74.675037 C1.97812125,72.391937 0.000491250001,69.399537 1.15897084e-06,66.407137 L1.15897084e-06,76.044637 C-0.000488749999,79.037737 1.97722125,82.031037 5.93302125,84.314737 L5.93302125,74.675037 Z" id="Path" fill="#291D4D" fill-rule="nonzero"></path>
            <path d="M1.15609911e-06,76.044637 C-0.000308749999,77.909037 0.76694125,79.773537 2.30172125,81.466537 C3.23082125,82.491437 4.44132125,83.453537 5.93302125,84.314737 L5.93302125,74.675037 C5.07202125,74.178037 4.30482125,73.647337 3.63132125,73.090437 C1.21082125,71.089037 0.000381250001,68.748137 1.15609911e-06,66.407137 L1.15609911e-06,76.044637 Z" id="Path" fill="#291D4D"></path>
            <path d="M167.365121,66.407137 C167.365121,69.399537 165.387121,72.391937 161.432121,74.675037 L161.432121,84.314737 C165.387121,82.031537 167.365121,79.039237 167.365121,76.046837 L167.365121,66.407137 Z" id="Path" fill="#291D4D" fill-rule="nonzero"></path>
            <path d="M163.734121,73.090437 C163.060121,73.647337 162.293121,74.178037 161.432121,74.675037 L161.432121,84.314737 C162.924121,83.453537 164.134121,82.491437 165.064121,81.466537 C166.598121,79.774237 167.365121,77.910537 167.365121,76.046837 L167.365121,66.407137 C167.365121,68.748137 166.154121,71.089037 163.734121,73.090437 Z" id="Path" fill="#291D4D"></path>
            <polygon id="Path" fill="#291D4D" fill-rule="nonzero" points="11.5849213 71.412137 75.0111213 108.027937 75.0111213 117.667937 11.5849213 81.051837"></polygon>
            <path d="M11.5849213,71.412137 L11.5849213,81.051837 L75.0111213,117.667937 L75.0111213,108.027937 L11.5849213,71.412137 Z M15.2162213,77.701437 L71.3798213,110.124937 L71.3798213,111.378937 L15.2162213,78.955237 L15.2162213,77.701437 Z" id="Shape" fill="#291D4D"></path>
            <polygon id="Path" fill="#291D4D" fill-rule="nonzero" points="92.3541213 108.027937 155.780121 71.412137 155.780121 81.051837 92.3541213 117.667937"></polygon>
            <path d="M95.9851213,110.124937 L95.9851213,111.378937 L152.149121,78.955237 L152.149121,77.701437 L95.9851213,110.124937 Z M92.3541213,108.027937 L92.3541213,117.667937 L155.780121,81.051837 L155.780121,71.412137 L92.3541213,108.027937 Z" id="Shape" fill="#291D4D"></path>
            <polygon id="Path" fill="#291D4D" fill-rule="nonzero" points="69.3591213 111.290937 5.93302125 74.675037 5.93302125 84.314737 69.3591213 120.930937"></polygon>
            <path d="M5.93302125,74.675037 L5.93302125,84.314737 L69.3591213,120.930937 L69.3591213,111.290937 L5.93302125,74.675037 Z M9.56432125,80.964337 L9.56432125,82.218137 L65.7279213,114.640937 L65.7279213,113.387937 L9.56432125,80.964337 Z" id="Shape" fill="#291D4D"></path>
            <polygon id="Path" fill="#291D4D" fill-rule="nonzero" points="161.432121 74.675037 98.0061213 111.290937 98.0061213 120.930937 161.432121 84.314737"></polygon>
            <path d="M101.637121,113.387937 L101.637121,114.640937 L157.801121,82.218137 L157.801121,80.964337 L101.637121,113.387937 Z M98.0061213,111.290937 L98.0061213,120.930937 L161.432121,84.314737 L161.432121,74.675037 L98.0061213,111.290937 Z" id="Shape" fill="#291D4D"></path>
            <path d="M75.0110213,108.027937 C79.8003213,110.792937 87.5651213,110.792937 92.3541213,108.027937 L92.3541213,117.667937 C87.5651213,120.432937 79.8003213,120.432937 75.0110213,117.667937 L75.0110213,108.027937 Z" id="Path" fill="#291D4D" fill-rule="nonzero"></path>
            <path d="M75.0110213,108.027937 L75.0110213,117.667937 C79.8003213,120.432937 87.5651213,120.432937 92.3541213,117.667937 L92.3541213,108.027937 C91.2731213,108.652937 90.0395213,109.135937 88.7230213,109.477937 C85.5263213,110.309937 81.8390213,110.309937 78.6423213,109.477937 C77.3258213,109.135937 76.0926213,108.652937 75.0110213,108.027937 Z M78.6423213,113.208937 L78.6423213,115.330937 C80.1079213,115.827937 81.8489213,116.109937 83.6827213,116.109937 C85.5165213,116.109937 87.2575213,115.827937 88.7230213,115.330937 L88.7230213,113.208937 C87.0618213,113.564937 85.3512213,113.732937 83.6827213,113.732937 C82.0142213,113.732937 80.3036213,113.564937 78.6423213,113.208937 Z" id="Shape" fill="#291D4D"></path>
            <path d="M98.0061213,111.290937 C90.0956213,115.857937 77.2698213,115.857937 69.3591213,111.290937 L69.3591213,120.930937 C77.2698213,125.497937 90.0956213,125.497937 98.0061213,120.930937 L98.0061213,111.290937 Z" id="Path" fill="#291D4D" fill-rule="nonzero"></path>
            <path d="M69.3591213,111.290937 L69.3591213,120.930937 C77.2698213,125.497937 90.0956213,125.497937 98.0061213,120.930937 L98.0061213,111.290937 C96.8851213,111.937937 95.6651213,112.493937 94.3751213,112.956937 C87.8496213,115.301937 79.5158213,115.301937 72.9904213,112.956937 C71.6999213,112.493937 70.4802213,111.937937 69.3591213,111.290937 Z M72.9904213,116.785937 L72.9904213,118.694937 C76.0262213,120.008937 79.7873213,120.724937 83.6827213,120.724937 C87.5781213,120.724937 91.3391213,120.008937 94.3751213,118.694937 L94.3751213,116.785937 C90.9746213,117.844937 87.2886213,118.346937 83.6827213,118.346937 C80.0767213,118.346937 76.3907213,117.844937 72.9904213,116.785937 Z" id="Shape" fill="#291D4D"></path>
            <path d="M5.93302125,74.675037 C-1.97767875,70.108137 -1.97766875,62.703837 5.93302125,58.137037 L69.3591213,21.521137 C77.2698213,16.954337 90.0956213,16.954337 98.0061213,21.521137 L161.432121,58.137037 C169.343121,62.703837 169.343121,70.108137 161.432121,74.675037 L98.0061213,111.290937 C90.0956213,115.857937 77.2698213,115.857937 69.3591213,111.290937 L5.93302125,74.675037 Z M11.5849213,61.399937 C6.79572125,64.164737 6.79572125,68.647337 11.5849213,71.412137 L75.0110213,108.027937 C79.8003213,110.792937 87.5651213,110.792937 92.3541213,108.027937 L155.780121,71.412137 C160.570121,68.647337 160.570121,64.164737 155.780121,61.399937 L92.3541213,24.784037 C87.5651213,22.019137 79.8003213,22.019137 75.0111213,24.783937 L11.5849213,61.399937 Z" id="Shape" fill="#291D4D"></path>
            <path d="M5.93302125,58.137037 C-1.97766875,62.703837 -1.97767875,70.108137 5.93302125,74.675037 L69.3591213,111.290937 C77.2698213,115.857937 90.0956213,115.857937 98.0061213,111.290937 L161.432121,74.675037 C169.343121,70.108137 169.343121,62.703837 161.432121,58.137037 L98.0061213,21.521137 C90.0956213,16.954337 77.2698213,16.954337 69.3591213,21.521137 L5.93302125,58.137037 Z M11.5849213,71.412137 C6.79572125,68.647337 6.79572125,64.164737 11.5849213,61.399937 L75.0111213,24.783937 C79.8003213,22.019137 87.5651213,22.019137 92.3541213,24.784037 L155.780121,61.399937 C160.570121,64.164737 160.570121,68.647337 155.780121,71.412137 L92.3541213,108.027937 C87.5651213,110.792937 79.8003213,110.792937 75.0110213,108.027937 L11.5849213,71.412137 Z" id="Shape" fill="#291D4D"></path>
            <path d="M8.75892125,73.043637 C2.40902125,69.377737 2.40902125,63.434337 8.75892125,59.768437 L72.1851213,23.152537 C78.5350213,19.486737 88.8303213,19.486737 95.1801213,23.152537 L158.606121,59.768437 C164.956121,63.434337 164.956121,69.377737 158.606121,73.043637 L95.1801213,109.659937 C88.8303213,113.324937 78.5350213,113.324937 72.1851213,109.659937 L8.75892125,73.043637 Z" id="Path" fill="#FFFFFF" fill-rule="nonzero"></path>
            <path d="M75.3299213,24.968037 L11.9038213,61.583937 C7.29072125,64.247137 7.29072125,68.564937 11.9038213,71.228037 L75.3299213,107.843937 C79.9430213,110.506937 87.4223213,110.506937 92.0351213,107.843937 L155.461121,71.228037 C160.075121,68.564937 160.075121,64.247137 155.461121,61.584037 L92.0351213,24.968037 C87.4223213,22.304937 79.9430213,22.304937 75.3299213,24.968037 Z M8.75892125,59.768437 C2.40902125,63.434337 2.40902125,69.377737 8.75892125,73.043637 L72.1851213,109.659937 C78.5350213,113.324937 88.8303213,113.324937 95.1801213,109.659937 L158.606121,73.043637 C164.956121,69.377737 164.956121,63.434337 158.606121,59.768437 L95.1801213,23.152537 C88.8303213,19.486737 78.5350213,19.486737 72.1851213,23.152537 L8.75892125,59.768437 Z" id="Shape" fill="#291D4D"></path>
            <path d="M77.6757213,3.155347 C79.2979213,2.218857 81.2812213,1.815637 83.1415213,1.815637 C85.0019213,1.815637 86.9852213,2.218857 88.6074213,3.155347 L142.051121,34.008537 C143.661121,34.937737 144.980121,36.472837 144.980121,38.474437 L144.980121,52.091737 C144.980121,54.093437 143.661121,55.628537 142.051121,56.557637 L124.518121,66.679537 C122.896121,67.616037 120.913121,68.019237 119.052121,68.019237 C117.192121,68.019237 115.209121,67.616037 113.586121,66.679537 L110.154121,64.697937 L110.154121,71.554137 C110.154121,73.555337 108.835121,75.090037 107.226121,76.018837 L89.6889213,86.143037 C88.0673213,87.079237 86.0847213,87.482237 84.2251213,87.482237 C82.3654213,87.482237 80.3829213,87.079237 78.7612213,86.143037 L25.3132213,55.287437 C23.7043213,54.358637 22.3852213,52.824037 22.3852213,50.822737 L22.3852213,37.205437 C22.3852213,35.204137 23.7043213,33.669537 25.3132213,32.740737 L42.8503213,22.616537 C44.4720213,21.680337 46.4546213,21.277237 48.3142213,21.277237 C50.1738213,21.277237 52.1564213,21.680337 53.7780213,22.616537 L57.2137213,24.599937 L57.2137213,17.743137 C57.2137213,15.741437 58.5331213,14.206337 60.1426213,13.277237 L77.6757213,3.155347 Z M79.9451213,20.703737 L73.2794213,24.551737 L115.856121,49.131237 C116.626121,49.575637 117.778121,49.862837 119.052121,49.862837 C120.327121,49.862837 121.479121,49.575637 122.249121,49.131237 L128.914121,45.283137 L86.3380213,20.703737 C85.5682213,20.259237 84.4163213,19.972037 83.1415213,19.972037 C81.8668213,19.972037 80.7149213,20.259237 79.9451213,20.703737 Z M38.4521213,44.014137 L45.1197213,40.164837 C45.8890213,39.720737 47.0401213,39.433637 48.3142213,39.433637 C49.5882213,39.433637 50.7393213,39.720737 51.5086213,40.164837 L65.6552213,48.331637 C67.7617213,49.547737 70.3569213,49.547737 72.4634213,48.331637 L74.8178213,46.972437 L91.0630213,56.350837 L91.0630213,59.774437 C91.0627213,61.655537 91.9931213,63.536737 93.8551213,64.611537 L94.0871213,64.745437 L87.4195213,68.594637 C86.6502213,69.038737 85.4991213,69.325837 84.2251213,69.325837 C82.9510213,69.325837 81.7999213,69.038737 81.0306213,68.594637 L38.4521213,44.014137 Z M91.8931213,48.914737 L94.7281213,50.551237 L94.7281213,51.498037 L93.8551213,50.994237 C93.0091213,50.505537 92.3541213,49.850137 91.8931213,49.103737 L91.8931213,48.914737 Z" id="Shape" fill="#291D4D"></path>
            <path d="M76.7679213,1.582927 C78.7313213,0.449467 81.0473213,2.13162821e-14 83.1415213,2.13162821e-14 C85.2358213,2.13162821e-14 87.5518213,0.449467 89.5151213,1.582917 L142.959121,32.436137 C144.889121,33.550337 146.796121,35.586837 146.796121,38.474437 L146.796121,52.091737 C146.796121,54.979437 144.889121,57.015937 142.959121,58.130137 L125.426121,68.251937 C123.463121,69.385437 121.147121,69.834937 119.052121,69.834937 C116.958121,69.834937 114.642121,69.385437 112.679121,68.251937 L111.970121,67.842637 L111.970121,71.554137 C111.970121,74.441337 110.063121,76.477437 108.134121,77.591237 L90.5966213,87.715437 C88.6338213,88.848637 86.3185213,89.297937 84.2250213,89.297937 C82.1315213,89.297937 79.8163213,88.848637 77.8534213,87.715437 L24.4054213,56.859937 C22.4760213,55.746037 20.5695213,53.710037 20.5695213,50.822737 L20.5695213,37.205437 C20.5695213,34.318237 22.4760213,32.282137 24.4054213,31.168237 L41.9426213,21.044037 C43.9054213,19.910937 46.2207213,19.461637 48.3142213,19.461637 C50.4077213,19.461637 52.7229213,19.910937 54.6858213,21.044037 L55.3980213,21.455237 L55.3980213,17.743137 C55.3980213,14.855437 57.3049213,12.818937 59.2348213,11.704837 L76.7679213,1.582927 Z M83.1415213,3.631277 C81.5150213,3.631277 79.8644213,3.988237 78.5834213,4.727777 L61.0503213,14.849637 C59.7614213,15.593737 59.0293213,16.627437 59.0293213,17.743137 L59.0293213,24.599937 C59.0293213,25.248537 58.6833213,25.847937 58.1215213,26.172337 C57.5598213,26.496637 56.8677213,26.496637 56.3059213,26.172337 L52.8702213,24.188937 C51.5898213,23.449737 49.9399213,23.092937 48.3142213,23.092937 C46.6884213,23.092937 45.0385213,23.449737 43.7581213,24.188937 L26.2209213,34.313137 C24.9325213,35.056937 24.2008213,36.090137 24.2008213,37.205437 L24.2008213,50.822737 C24.2008213,51.938037 24.9325213,52.971237 26.2209213,53.715037 L79.6690213,84.570637 C80.9494213,85.309837 82.5993213,85.666637 84.2250213,85.666637 C85.8508213,85.666637 87.5007213,85.309837 88.7811213,84.570637 L106.318121,74.446437 C107.607121,73.702637 108.338121,72.669337 108.338121,71.554137 L108.338121,64.697937 C108.338121,64.049337 108.684121,63.449937 109.246121,63.125637 C109.808121,62.801237 110.500121,62.801237 111.062121,63.125537 L114.494121,65.107137 C115.775121,65.846637 117.426121,66.203637 119.052121,66.203637 C120.679121,66.203637 122.329121,65.846637 123.610121,65.107137 L141.144121,54.985237 C142.432121,54.241137 143.165121,53.207437 143.165121,52.091737 L143.165121,38.474437 C143.165121,37.358837 142.432121,36.325137 141.144121,35.581037 L87.6996213,4.727767 C86.4186213,3.988237 84.7680213,3.631277 83.1415213,3.631277 Z M83.1415213,21.787637 C82.1015213,21.787637 81.2821213,22.028337 80.8528213,22.276137 L76.9109213,24.551737 L116.764121,47.558737 C117.193121,47.806637 118.012121,48.047237 119.052121,48.047237 C120.092121,48.047237 120.912121,47.806637 121.341121,47.558737 L125.283121,45.283137 L85.4302213,22.276137 C85.0009213,22.028337 84.1815213,21.787637 83.1415213,21.787637 Z M79.0373213,19.131237 C80.1477213,18.490237 81.6319213,18.156437 83.1415213,18.156437 C84.6511213,18.156437 86.1354213,18.490237 87.2457213,19.131237 L129.822121,43.710737 C130.384121,44.035037 130.730121,44.634437 130.730121,45.283137 C130.730121,45.931837 130.384121,46.531237 129.822121,46.855537 L123.157121,50.703637 C122.046121,51.344637 120.562121,51.678537 119.052121,51.678537 C117.543121,51.678537 116.058121,51.344637 114.948121,50.703637 L72.3717213,26.124237 C71.8099213,25.799837 71.4638213,25.200437 71.4638213,24.551737 C71.4638213,23.903037 71.8099213,23.303637 72.3717213,22.979337 L79.0373213,19.131237 Z M44.2120213,38.592437 C45.3218213,37.951737 46.8053213,37.618037 48.3142213,37.618037 C49.8230213,37.618037 51.3065213,37.951737 52.4164213,38.592437 L66.5629213,46.759237 C68.1077213,47.651037 70.0108213,47.651037 71.5556213,46.759237 L73.9100213,45.400037 C74.4717213,45.075737 75.1638213,45.075737 75.7255213,45.400037 L91.9711213,54.778437 C92.5321213,55.102737 92.8791213,55.702137 92.8791213,56.350837 L92.8791213,59.774437 C92.8781213,61.056337 93.5051213,62.312737 94.7631213,63.039137 L94.9951213,63.173037 C95.5571213,63.497337 95.9031213,64.096737 95.9031213,64.745437 C95.9031213,65.394137 95.5571213,65.993537 94.9951213,66.317837 L88.3272213,70.167137 C87.2174213,70.807837 85.7339213,71.141537 84.2250213,71.141537 C82.7162213,71.141537 81.2327213,70.807837 80.1229213,70.167137 L37.5443213,45.586537 C36.9825213,45.262237 36.6364213,44.662737 36.6364213,44.014137 C36.6364213,43.365437 36.9825213,42.766037 37.5443213,42.441637 L44.2120213,38.592437 Z M48.3142213,41.249337 C47.2749213,41.249337 46.4562213,41.489737 46.0275213,41.737237 L42.0836213,44.014137 L81.9384213,67.022237 C82.3671213,67.269737 83.1858213,67.510237 84.2250213,67.510237 C85.2643213,67.510237 86.0830213,67.269737 86.5117213,67.022237 L90.9216213,64.476437 C89.8057213,63.122237 89.2471213,61.442437 89.2474213,59.774437 C89.2474213,59.774337 89.2474213,59.774537 89.2474213,59.774437 L89.2474213,57.399137 L74.8178213,49.068937 L73.3711213,49.904137 C70.7029213,51.444437 67.4156213,51.444437 64.7474213,49.904137 L50.6008213,41.737237 C50.1721213,41.489737 49.3534213,41.249337 48.3142213,41.249337 Z M90.9852213,47.342337 C91.5471213,47.017937 92.2391213,47.017937 92.8011213,47.342237 L95.6361213,48.978837 C96.1971213,49.303137 96.5431213,49.902537 96.5431213,50.551237 L96.5431213,51.498037 C96.5431213,52.146737 96.1971213,52.746137 95.6361213,53.070437 C95.0741213,53.394737 94.3821213,53.394837 93.8201213,53.070437 L92.9471213,52.566737 C91.8381213,51.926037 90.9662213,51.057037 90.3488213,50.058737 C90.1714213,49.771837 90.0774213,49.441137 90.0774213,49.103737 L90.0774213,48.914737 C90.0774213,48.266037 90.4234213,47.666637 90.9852213,47.342337 Z" id="Shape" fill="#291D4D"></path>
            <path d="M61.2773213,20.243537 C58.8852213,18.862537 58.8852213,16.623637 61.2773213,15.242737 L78.8104213,5.120877 C81.2024213,3.739957 85.0807213,3.739957 87.4727213,5.120877 L140.917121,35.974137 C143.309121,37.355037 143.309121,39.593937 140.917121,40.974837 L123.383121,51.096737 C120.991121,52.477637 117.113121,52.477637 114.721121,51.096737 L61.2773213,20.243537 Z M26.4479213,39.704637 C24.0570213,38.324337 24.0570213,36.086537 26.4479213,34.706237 L43.9850213,24.582037 C46.3760213,23.201737 50.2524213,23.201737 52.6433213,24.582037 L66.7899213,32.748837 C68.1942213,33.559537 69.9243213,33.559537 71.3287213,32.748837 L74.0316213,31.188437 C74.4658213,30.937837 75.1698213,30.937837 75.6040213,31.188437 L94.9901213,42.379937 C95.4241213,42.630637 95.4241213,43.037037 94.9901213,43.287737 L94.9901213,43.287737 C92.7801213,44.563437 92.7801213,47.753037 94.9901213,49.028737 L106.091121,55.437637 C108.482121,56.817837 108.482121,59.055737 106.091121,60.436037 L88.5542213,70.560237 C86.1633213,71.940437 82.2868213,71.940437 79.8959213,70.560237 L26.4479213,39.704637 Z" id="Shape" fill="#FFFFFF"></path>
            <path d="M83.1415213,2.269547 C84.9433213,2.269547 86.8435213,2.661167 88.3805213,3.548447 L141.824121,34.401637 C143.351121,35.283037 144.526121,36.692137 144.526121,38.474437 C144.526121,40.256837 143.351121,41.665837 141.824121,42.547237 L124.291121,52.669137 C122.754121,53.556437 120.854121,53.948037 119.052121,53.948037 C117.251121,53.948037 115.350121,53.556437 113.813121,52.669137 L97.1231213,43.033537 C97.0421213,43.961437 96.4101213,44.564537 95.8981213,44.860137 C94.8981213,45.437037 94.8981213,46.879437 95.8981213,47.456337 L106.999121,53.865137 C108.525121,54.746237 109.700121,56.154837 109.700121,57.936837 C109.700121,59.718737 108.525121,61.127337 106.999121,62.008437 L89.4620213,72.132637 C87.9256213,73.019637 86.0261213,73.411037 84.2251213,73.411037 C82.4240213,73.411037 80.5246213,73.019637 78.9882213,72.132637 L25.5401213,41.277037 C24.0139213,40.396037 22.8391213,38.987337 22.8391213,37.205437 C22.8391213,35.423537 24.0139213,34.014837 25.5401213,33.133837 L43.0773213,23.009637 C44.6137213,22.122637 46.5131213,21.731237 48.3142213,21.731237 C50.1153213,21.731237 52.0147213,22.122637 53.5511213,23.009637 L67.6976213,31.176437 C68.5402213,31.662837 69.5783213,31.662837 70.4209213,31.176437 L73.1238213,29.616037 C73.2590213,29.537937 73.3977213,29.472437 73.5377213,29.417937 L60.3695213,21.815937 C58.8428213,20.934537 57.6676213,19.525437 57.6676213,17.743137 C57.6676213,15.960737 58.8428213,14.551737 60.3695213,13.670337 L77.9026213,3.548447 C79.4396213,2.661167 81.3398213,2.269547 83.1415213,2.269547 Z M83.1415213,5.900827 C81.8082213,5.900827 80.5732213,6.199667 79.7182213,6.693297 L62.1850213,16.815137 C61.3198213,17.314737 61.2989213,17.715537 61.2989213,17.743137 C61.2989213,17.770737 61.3198213,18.171537 62.1850213,18.671037 L115.629121,49.524337 C116.484121,50.017937 117.719121,50.316737 119.052121,50.316737 C120.386121,50.316737 121.621121,50.017937 122.476121,49.524337 L140.009121,39.402437 C140.874121,38.902937 140.895121,38.502037 140.895121,38.474437 C140.895121,38.446937 140.874121,38.046037 140.009121,37.546537 L86.5650213,6.693297 C85.7099213,6.199667 84.4749213,5.900827 83.1415213,5.900827 Z M48.3142213,25.362437 C46.9816213,25.362437 45.7473213,25.661137 44.8928213,26.154437 L27.3557213,36.278637 C26.4909213,36.777837 26.4704213,37.178337 26.4704213,37.205437 C26.4704213,37.232637 26.4909213,37.633037 27.3557213,38.132237 L80.8037213,68.987737 C81.6582213,69.481137 82.8925213,69.779737 84.2251213,69.779737 C85.5577213,69.779737 86.7919213,69.481137 87.6465213,68.987737 L105.184121,58.863537 C106.048121,58.364337 106.069121,57.963937 106.069121,57.936837 C106.069121,57.909637 106.048121,57.509237 105.184121,57.010037 L94.0821213,50.601137 C91.2891213,48.988937 90.7770213,45.401837 92.5451213,43.064837 L74.8178213,32.831037 L72.2364213,34.321237 C70.2704213,35.456237 67.8482213,35.456237 65.8821213,34.321237 L51.7356213,26.154437 C50.8811213,25.661137 49.6468213,25.362437 48.3142213,25.362437 Z" id="Shape" fill="#291D4D"></path>
        </g>
    </g>
</svg>