<svg width="2590" height="456" viewBox="0 0 2590 456" fill="none" xmlns="http://www.w3.org/2000/svg">
<path d="M2372.57 0C2508.46 0 2590 101.766 2590 227.552C2590 353.338 2508.46 455.104 2372.57 455.104C2236.67 455.104 2155.13 353.338 2155.13 227.552C2155.13 101.766 2236.67 0 2372.57 0ZM2372.57 399.48C2467.38 399.48 2524.27 322.997 2524.27 227.552C2524.27 132.107 2467.38 55.6238 2372.57 55.6238C2277.75 55.6238 2220.86 132.107 2220.86 227.552C2220.86 322.997 2277.75 399.48 2372.57 399.48Z" fill="#163300"/>
<path d="M1803.56 5.05713H2147.42V60.681H2008.36V450.048H1942.62V60.681H1803.56V5.05713Z" fill="#163300"/>
<path d="M1391.39 450.048V5.05713H1492.52L1691 398.848C1692.26 400.745 1693.53 403.273 1696.69 402.641C1701.11 401.377 1700.48 397.584 1697.95 391.895C1691.63 377.357 1689.73 362.187 1689.73 343.857V5.05713H1755.47V450.048H1654.34L1455.86 56.2563C1455.23 54.3601 1452.7 51.1996 1450.17 52.4638C1445.75 54.3601 1446.38 57.5205 1448.91 63.2093C1455.23 77.7473 1457.12 92.9175 1457.12 111.248V450.048H1391.39Z" fill="#163300"/>
<path d="M1333.12 60.681H1105.57V199.74H1292.67V255.364H1105.57V394.424H1333.12V450.048H1039.83V5.05713H1333.12V60.681Z" fill="#163300"/>
<path d="M506.188 450.048V5.05713H625.021L728.683 366.612C731.844 377.99 733.108 386.207 733.74 399.481C733.74 403.273 733.74 407.066 738.797 407.066C743.853 407.066 743.853 403.273 743.853 399.481C744.485 386.207 745.75 377.99 748.91 366.612L852.573 5.05713H971.405V450.048H905.668V86.5966C905.668 75.219 906.932 64.4735 911.357 48.6713C912.621 43.6146 913.885 39.822 909.461 38.5579C905.668 37.2937 903.772 41.0862 903.14 43.6146L781.779 450.048H695.815L574.454 43.6146C573.821 41.0862 571.925 37.2937 568.133 38.5579C563.708 39.822 564.34 43.6146 566.236 48.6713C570.661 64.4735 571.925 75.219 571.925 86.5966V450.048H506.188Z" fill="#163300"/>
<path d="M437.657 450.048H371.92V5.05713H437.657V450.048Z" fill="#163300"/>
<path d="M165.607 5.05713C290.761 5.05713 333.743 64.4735 333.743 144.117C333.743 223.76 283.176 283.176 175.721 283.176H65.7372V450.048H0V5.05713H165.607ZM175.089 227.552C236.401 227.552 268.006 191.523 268.006 144.117C268.006 91.6533 236.401 60.681 175.089 60.681H65.7372V227.552H175.089Z" fill="#163300"/>
</svg>
