<svg width="465" height="414" viewBox="0 0 465 414" fill="none" xmlns="http://www.w3.org/2000/svg">
<g filter="url(#filter0_d_3035_9254)">
<rect x="1" y="0.938591" width="460" height="408" rx="4" fill="white" shape-rendering="crispEdges"/>
<path d="M40.218 49.1006C39.234 49.1006 38.352 48.9386 37.572 48.6146C36.804 48.2906 36.15 47.8406 35.61 47.2646C35.082 46.6766 34.68 45.9866 34.404 45.1946C34.128 44.3906 33.99 43.5206 33.99 42.5846V42.4406C33.99 41.5046 34.14 40.6346 34.44 39.8306C34.74 39.0266 35.166 38.3306 35.718 37.7426C36.27 37.1546 36.924 36.6986 37.68 36.3746C38.448 36.0386 39.294 35.8706 40.218 35.8706C40.854 35.8706 41.466 35.9486 42.054 36.1046C42.642 36.2606 43.17 36.5066 43.638 36.8426C44.118 37.1666 44.514 37.5866 44.826 38.1026C45.15 38.6186 45.36 39.2366 45.456 39.9566H43.89C43.71 38.9246 43.29 38.1926 42.63 37.7606C41.982 37.3286 41.19 37.1126 40.254 37.1126C39.522 37.1126 38.868 37.2446 38.292 37.5086C37.716 37.7606 37.23 38.1206 36.834 38.5886C36.438 39.0566 36.132 39.6146 35.916 40.2626C35.712 40.9106 35.61 41.6306 35.61 42.4226V42.5666C35.61 43.3586 35.706 44.0846 35.898 44.7446C36.102 45.3926 36.396 45.9446 36.78 46.4006C37.164 46.8566 37.644 47.2106 38.22 47.4626C38.796 47.7146 39.462 47.8406 40.218 47.8406C40.914 47.8406 41.514 47.7326 42.018 47.5166C42.522 47.3006 42.936 47.0126 43.26 46.6526C43.596 46.2806 43.842 45.8486 43.998 45.3566C44.166 44.8526 44.256 44.3126 44.268 43.7366H40.506V42.4406H45.798V43.3946C45.798 44.3306 45.66 45.1526 45.384 45.8606C45.12 46.5686 44.742 47.1626 44.25 47.6426C43.758 48.1226 43.17 48.4886 42.486 48.7406C41.802 48.9806 41.046 49.1006 40.218 49.1006ZM52.1628 49.1006C51.5028 49.1006 50.8908 48.9866 50.3268 48.7586C49.7748 48.5306 49.2948 48.2126 48.8868 47.8046C48.4788 47.3846 48.1608 46.8806 47.9328 46.2926C47.7168 45.7046 47.6088 45.0506 47.6088 44.3306V44.1866C47.6088 43.4786 47.7168 42.8306 47.9328 42.2426C48.1488 41.6426 48.4488 41.1326 48.8328 40.7126C49.2288 40.2806 49.6968 39.9506 50.2368 39.7226C50.7768 39.4826 51.3708 39.3626 52.0188 39.3626C52.5588 39.3626 53.0808 39.4526 53.5848 39.6326C54.1008 39.8006 54.5568 40.0706 54.9528 40.4426C55.3488 40.8146 55.6608 41.3006 55.8888 41.9006C56.1288 42.4886 56.2488 43.2026 56.2488 44.0426V44.5286H49.1568C49.1928 45.6086 49.4628 46.4366 49.9668 47.0126C50.4708 47.5766 51.2088 47.8586 52.1808 47.8586C53.6568 47.8586 54.4908 47.3126 54.6828 46.2206H56.1768C56.0088 47.1686 55.5648 47.8886 54.8448 48.3806C54.1248 48.8606 53.2308 49.1006 52.1628 49.1006ZM54.7188 43.3226C54.6468 42.3506 54.3708 41.6546 53.8908 41.2346C53.4228 40.8146 52.7988 40.6046 52.0188 40.6046C51.2508 40.6046 50.6208 40.8506 50.1288 41.3426C49.6488 41.8226 49.3428 42.4826 49.2108 43.3226H54.7188ZM61.4033 49.0646C60.5393 49.0646 59.8973 48.8366 59.4773 48.3806C59.0693 47.9246 58.8653 47.3246 58.8653 46.5806V40.7846H57.5153V39.5246H58.8653V37.3826H60.3593V39.5246H62.5553V40.7846H60.3593V46.4366C60.3593 47.3486 60.7493 47.8046 61.5293 47.8046C61.7693 47.8046 61.9793 47.7866 62.1593 47.7506C62.3393 47.7146 62.5133 47.6666 62.6813 47.6066V48.8666C62.5253 48.9266 62.3513 48.9746 62.1593 49.0106C61.9673 49.0466 61.7153 49.0646 61.4033 49.0646ZM69.7034 35.0246H71.1974V41.0186C71.4134 40.5746 71.7734 40.1906 72.2774 39.8666C72.7934 39.5306 73.4414 39.3626 74.2214 39.3626C74.7134 39.3626 75.1574 39.4346 75.5534 39.5786C75.9614 39.7106 76.3094 39.9326 76.5974 40.2446C76.8974 40.5446 77.1254 40.9346 77.2814 41.4146C77.4494 41.8946 77.5334 42.4766 77.5334 43.1606V48.9386H76.0394V43.0526C76.0394 42.2246 75.8594 41.6186 75.4994 41.2346C75.1394 40.8506 74.5814 40.6586 73.8254 40.6586C73.4774 40.6586 73.1414 40.7126 72.8174 40.8206C72.5054 40.9286 72.2294 41.0906 71.9894 41.3066C71.7494 41.5226 71.5574 41.7926 71.4134 42.1166C71.2694 42.4406 71.1974 42.8126 71.1974 43.2326V48.9386H69.7034V35.0246ZM84.3132 49.1006C83.6532 49.1006 83.0412 48.9866 82.4772 48.7586C81.9252 48.5306 81.4452 48.2126 81.0372 47.8046C80.6292 47.3846 80.3112 46.8806 80.0832 46.2926C79.8672 45.7046 79.7592 45.0506 79.7592 44.3306V44.1866C79.7592 43.4786 79.8672 42.8306 80.0832 42.2426C80.2992 41.6426 80.5992 41.1326 80.9832 40.7126C81.3792 40.2806 81.8472 39.9506 82.3872 39.7226C82.9272 39.4826 83.5212 39.3626 84.1692 39.3626C84.7092 39.3626 85.2312 39.4526 85.7352 39.6326C86.2512 39.8006 86.7072 40.0706 87.1032 40.4426C87.4992 40.8146 87.8112 41.3006 88.0392 41.9006C88.2792 42.4886 88.3992 43.2026 88.3992 44.0426V44.5286H81.3072C81.3432 45.6086 81.6132 46.4366 82.1172 47.0126C82.6212 47.5766 83.3592 47.8586 84.3312 47.8586C85.8072 47.8586 86.6412 47.3126 86.8332 46.2206H88.3272C88.1592 47.1686 87.7152 47.8886 86.9952 48.3806C86.2752 48.8606 85.3812 49.1006 84.3132 49.1006ZM86.8692 43.3226C86.7972 42.3506 86.5212 41.6546 86.0412 41.2346C85.5732 40.8146 84.9492 40.6046 84.1692 40.6046C83.4012 40.6046 82.7712 40.8506 82.2792 41.3426C81.7992 41.8226 81.4932 42.4826 81.3612 43.3226H86.8692ZM90.7277 35.0246H92.2397V48.9386H90.7277V35.0246ZM95.2972 39.5246H96.7912V41.1086C96.9232 40.8806 97.0972 40.6646 97.3132 40.4606C97.5412 40.2446 97.7932 40.0586 98.0692 39.9026C98.3572 39.7346 98.6632 39.6026 98.9872 39.5066C99.3112 39.4106 99.6412 39.3626 99.9772 39.3626C100.589 39.3626 101.159 39.4706 101.687 39.6866C102.215 39.9026 102.665 40.2146 103.037 40.6226C103.421 41.0306 103.721 41.5286 103.937 42.1166C104.153 42.7046 104.261 43.3646 104.261 44.0966V44.2406C104.261 44.9606 104.159 45.6206 103.955 46.2206C103.751 46.8086 103.463 47.3186 103.091 47.7506C102.719 48.1826 102.269 48.5186 101.741 48.7586C101.213 48.9866 100.625 49.1006 99.9772 49.1006C99.1972 49.1006 98.5372 48.9326 97.9972 48.5966C97.4692 48.2606 97.0672 47.8586 96.7912 47.3906V52.2146H95.2972V39.5246ZM99.8332 47.8586C100.769 47.8586 101.483 47.5586 101.975 46.9586C102.467 46.3466 102.713 45.4646 102.713 44.3126V44.1686C102.713 43.5686 102.635 43.0466 102.479 42.6026C102.323 42.1586 102.113 41.7926 101.849 41.5046C101.597 41.2046 101.291 40.9826 100.931 40.8386C100.583 40.6826 100.211 40.6046 99.8152 40.6046C99.3832 40.6046 98.9752 40.6766 98.5912 40.8206C98.2192 40.9646 97.8952 41.1866 97.6192 41.4866C97.3432 41.7746 97.1272 42.1466 96.9712 42.6026C96.8152 43.0466 96.7372 43.5686 96.7372 44.1686V44.3126C96.7372 45.5126 97.0252 46.4066 97.6012 46.9946C98.1772 47.5706 98.9212 47.8586 99.8332 47.8586ZM110.338 39.5246H111.958L114.154 47.1026L116.44 39.5246H117.736L119.878 47.1026L122.092 39.5246H123.622L120.688 48.9386H119.032L117.07 41.8826L114.874 48.9386H113.236L110.338 39.5246ZM125.673 39.5246H127.167V48.9386H125.673V39.5246ZM126.393 37.5626C126.117 37.5626 125.883 37.4666 125.691 37.2746C125.499 37.0826 125.403 36.8486 125.403 36.5726C125.403 36.2966 125.499 36.0626 125.691 35.8706C125.883 35.6786 126.117 35.5826 126.393 35.5826C126.669 35.5826 126.903 35.6786 127.095 35.8706C127.287 36.0626 127.383 36.2966 127.383 36.5726C127.383 36.8486 127.287 37.0826 127.095 37.2746C126.903 37.4666 126.669 37.5626 126.393 37.5626ZM133.087 49.0646C132.223 49.0646 131.581 48.8366 131.161 48.3806C130.753 47.9246 130.549 47.3246 130.549 46.5806V40.7846H129.199V39.5246H130.549V37.3826H132.043V39.5246H134.239V40.7846H132.043V46.4366C132.043 47.3486 132.433 47.8046 133.213 47.8046C133.453 47.8046 133.663 47.7866 133.843 47.7506C134.023 47.7146 134.197 47.6666 134.365 47.6066V48.8666C134.209 48.9266 134.035 48.9746 133.843 49.0106C133.651 49.0466 133.399 49.0646 133.087 49.0646ZM136.623 35.0246H138.117V41.0186C138.333 40.5746 138.693 40.1906 139.197 39.8666C139.713 39.5306 140.361 39.3626 141.141 39.3626C141.633 39.3626 142.077 39.4346 142.473 39.5786C142.881 39.7106 143.229 39.9326 143.517 40.2446C143.817 40.5446 144.045 40.9346 144.201 41.4146C144.369 41.8946 144.453 42.4766 144.453 43.1606V48.9386H142.959V43.0526C142.959 42.2246 142.779 41.6186 142.419 41.2346C142.059 40.8506 141.501 40.6586 140.745 40.6586C140.397 40.6586 140.061 40.7126 139.737 40.8206C139.425 40.9286 139.149 41.0906 138.909 41.3066C138.669 41.5226 138.477 41.7926 138.333 42.1166C138.189 42.4406 138.117 42.8126 138.117 43.2326V48.9386H136.623V35.0246ZM154.773 47.9666L151.083 39.5246H152.685L155.565 46.2746L158.175 39.5246H159.705L154.503 52.2146H152.991L154.773 47.9666ZM165.332 47.8586C165.8 47.8586 166.226 47.7746 166.61 47.6066C166.994 47.4386 167.318 47.1986 167.582 46.8866C167.846 46.5746 168.05 46.2026 168.194 45.7706C168.338 45.3266 168.41 44.8406 168.41 44.3126V44.1866C168.41 43.0946 168.128 42.2246 167.564 41.5766C167.012 40.9286 166.268 40.6046 165.332 40.6046C164.384 40.6046 163.634 40.9286 163.082 41.5766C162.53 42.2126 162.254 43.0766 162.254 44.1686V44.3126C162.254 45.3926 162.524 46.2566 163.064 46.9046C163.616 47.5406 164.372 47.8586 165.332 47.8586ZM165.314 49.1006C164.642 49.1006 164.024 48.9806 163.46 48.7406C162.896 48.5006 162.41 48.1706 162.002 47.7506C161.594 47.3186 161.276 46.8086 161.048 46.2206C160.82 45.6326 160.706 44.9966 160.706 44.3126V44.1686C160.706 43.4606 160.82 42.8126 161.048 42.2246C161.288 41.6366 161.612 41.1326 162.02 40.7126C162.428 40.2806 162.914 39.9506 163.478 39.7226C164.054 39.4826 164.672 39.3626 165.332 39.3626C166.004 39.3626 166.622 39.4826 167.186 39.7226C167.75 39.9506 168.236 40.2746 168.644 40.6946C169.052 41.1146 169.37 41.6186 169.598 42.2066C169.838 42.7946 169.958 43.4426 169.958 44.1506V44.2946C169.958 45.0026 169.838 45.6506 169.598 46.2386C169.37 46.8266 169.046 47.3366 168.626 47.7686C168.218 48.1886 167.732 48.5186 167.168 48.7586C166.604 48.9866 165.986 49.1006 165.314 49.1006ZM175.458 49.1006C174.99 49.1006 174.552 49.0346 174.144 48.9026C173.748 48.7706 173.406 48.5606 173.118 48.2726C172.83 47.9726 172.602 47.5946 172.434 47.1386C172.266 46.6826 172.182 46.1306 172.182 45.4826V39.5246H173.676V45.4106C173.676 46.2386 173.85 46.8446 174.198 47.2286C174.558 47.6126 175.11 47.8046 175.854 47.8046C176.19 47.8046 176.514 47.7506 176.826 47.6426C177.138 47.5346 177.414 47.3726 177.654 47.1566C177.894 46.9406 178.086 46.6706 178.23 46.3466C178.374 46.0226 178.446 45.6506 178.446 45.2306V39.5246H179.94V48.9386H178.446V47.4446C178.23 47.8886 177.864 48.2786 177.348 48.6146C176.844 48.9386 176.214 49.1006 175.458 49.1006ZM182.959 39.5246H184.453V41.2166C184.753 40.6886 185.131 40.2566 185.587 39.9206C186.055 39.5726 186.709 39.3866 187.549 39.3626V40.7666C187.081 40.7906 186.655 40.8506 186.271 40.9466C185.887 41.0426 185.557 41.2046 185.281 41.4326C185.017 41.6606 184.813 41.9666 184.669 42.3506C184.525 42.7226 184.453 43.1966 184.453 43.7726V48.9386H182.959V39.5246ZM198.415 47.8586C198.883 47.8586 199.309 47.7746 199.693 47.6066C200.077 47.4386 200.401 47.1986 200.665 46.8866C200.929 46.5746 201.133 46.2026 201.277 45.7706C201.421 45.3266 201.493 44.8406 201.493 44.3126V44.1866C201.493 43.0946 201.211 42.2246 200.647 41.5766C200.095 40.9286 199.351 40.6046 198.415 40.6046C197.467 40.6046 196.717 40.9286 196.165 41.5766C195.613 42.2126 195.337 43.0766 195.337 44.1686V44.3126C195.337 45.3926 195.607 46.2566 196.147 46.9046C196.699 47.5406 197.455 47.8586 198.415 47.8586ZM198.397 49.1006C197.725 49.1006 197.107 48.9806 196.543 48.7406C195.979 48.5006 195.493 48.1706 195.085 47.7506C194.677 47.3186 194.359 46.8086 194.131 46.2206C193.903 45.6326 193.789 44.9966 193.789 44.3126V44.1686C193.789 43.4606 193.903 42.8126 194.131 42.2246C194.371 41.6366 194.695 41.1326 195.103 40.7126C195.511 40.2806 195.997 39.9506 196.561 39.7226C197.137 39.4826 197.755 39.3626 198.415 39.3626C199.087 39.3626 199.705 39.4826 200.269 39.7226C200.833 39.9506 201.319 40.2746 201.727 40.6946C202.135 41.1146 202.453 41.6186 202.681 42.2066C202.921 42.7946 203.041 43.4426 203.041 44.1506V44.2946C203.041 45.0026 202.921 45.6506 202.681 46.2386C202.453 46.8266 202.129 47.3366 201.709 47.7686C201.301 48.1886 200.815 48.5186 200.251 48.7586C199.687 48.9866 199.069 49.1006 198.397 49.1006ZM205.354 39.5246H206.848V41.2166C207.148 40.6886 207.526 40.2566 207.982 39.9206C208.45 39.5726 209.104 39.3866 209.944 39.3626V40.7666C209.476 40.7906 209.05 40.8506 208.666 40.9466C208.282 41.0426 207.952 41.2046 207.676 41.4326C207.412 41.6606 207.208 41.9666 207.064 42.3506C206.92 42.7226 206.848 43.1966 206.848 43.7726V48.9386H205.354V39.5246ZM215.404 49.1006C214.792 49.1006 214.222 48.9986 213.694 48.7946C213.178 48.5786 212.728 48.2726 212.344 47.8766C211.972 47.4686 211.678 46.9766 211.462 46.4006C211.258 45.8126 211.156 45.1526 211.156 44.4206V44.2766C211.156 43.5566 211.264 42.8966 211.48 42.2966C211.696 41.6966 211.996 41.1806 212.38 40.7486C212.764 40.3046 213.226 39.9626 213.766 39.7226C214.306 39.4826 214.9 39.3626 215.548 39.3626C216.34 39.3626 216.982 39.5306 217.474 39.8666C217.966 40.1906 218.35 40.5806 218.626 41.0366V35.0246H220.12V48.9386H218.626V47.3186C218.494 47.5466 218.314 47.7686 218.086 47.9846C217.858 48.2006 217.6 48.3926 217.312 48.5606C217.036 48.7166 216.736 48.8426 216.412 48.9386C216.088 49.0466 215.752 49.1006 215.404 49.1006ZM215.566 47.8586C215.998 47.8586 216.406 47.7866 216.79 47.6426C217.174 47.4986 217.504 47.2826 217.78 46.9946C218.056 46.6946 218.272 46.3226 218.428 45.8786C218.596 45.4226 218.68 44.8946 218.68 44.2946V44.1506C218.68 42.9386 218.41 42.0446 217.87 41.4686C217.342 40.8926 216.616 40.6046 215.692 40.6046C214.756 40.6046 214.024 40.9166 213.496 41.5406C212.968 42.1646 212.704 43.0526 212.704 44.2046V44.3486C212.704 44.9366 212.776 45.4526 212.92 45.8966C213.076 46.3406 213.28 46.7066 213.532 46.9946C213.796 47.2826 214.102 47.4986 214.45 47.6426C214.798 47.7866 215.17 47.8586 215.566 47.8586ZM226.995 49.1006C226.335 49.1006 225.723 48.9866 225.159 48.7586C224.607 48.5306 224.127 48.2126 223.719 47.8046C223.311 47.3846 222.993 46.8806 222.765 46.2926C222.549 45.7046 222.441 45.0506 222.441 44.3306V44.1866C222.441 43.4786 222.549 42.8306 222.765 42.2426C222.981 41.6426 223.281 41.1326 223.665 40.7126C224.061 40.2806 224.529 39.9506 225.069 39.7226C225.609 39.4826 226.203 39.3626 226.851 39.3626C227.391 39.3626 227.913 39.4526 228.417 39.6326C228.933 39.8006 229.389 40.0706 229.785 40.4426C230.181 40.8146 230.493 41.3006 230.721 41.9006C230.961 42.4886 231.081 43.2026 231.081 44.0426V44.5286H223.989C224.025 45.6086 224.295 46.4366 224.799 47.0126C225.303 47.5766 226.041 47.8586 227.013 47.8586C228.489 47.8586 229.323 47.3126 229.515 46.2206H231.009C230.841 47.1686 230.397 47.8886 229.677 48.3806C228.957 48.8606 228.063 49.1006 226.995 49.1006ZM229.551 43.3226C229.479 42.3506 229.203 41.6546 228.723 41.2346C228.255 40.8146 227.631 40.6046 226.851 40.6046C226.083 40.6046 225.453 40.8506 224.961 41.3426C224.481 41.8226 224.175 42.4826 224.043 43.3226H229.551ZM233.373 39.5246H234.867V41.2166C235.167 40.6886 235.545 40.2566 236.001 39.9206C236.469 39.5726 237.123 39.3866 237.963 39.3626V40.7666C237.495 40.7906 237.069 40.8506 236.685 40.9466C236.301 41.0426 235.971 41.2046 235.695 41.4326C235.431 41.6606 235.227 41.9666 235.083 42.3506C234.939 42.7226 234.867 43.1966 234.867 43.7726V48.9386H233.373V39.5246Z" fill="black"/>
<g filter="url(#filter1_d_3035_9254)">
<rect x="33" y="76.9386" width="337" height="84" rx="4" fill="white" shape-rendering="crispEdges"/>
<path d="M66.548 124.939V112.069H68.96V124.939H66.548ZM76.1046 124.939V111.169H78.2826V117.019C78.5226 116.527 78.9066 116.125 79.4346 115.813C79.9626 115.489 80.5926 115.327 81.3246 115.327C82.3206 115.327 83.1066 115.633 83.6826 116.245C84.2586 116.845 84.5466 117.769 84.5466 119.017V124.939H82.3686V119.215C82.3686 118.507 82.2186 117.985 81.9186 117.649C81.6186 117.313 81.1446 117.145 80.4966 117.145C79.8486 117.145 79.3146 117.343 78.8946 117.739C78.4866 118.123 78.2826 118.675 78.2826 119.395V124.939H76.1046ZM89.5218 125.119C88.5978 125.119 87.8418 124.891 87.2538 124.435C86.6658 123.967 86.3718 123.265 86.3718 122.329C86.3718 121.297 86.8098 120.541 87.6858 120.061C88.5618 119.581 89.7318 119.341 91.1958 119.341H92.3658V118.855C92.3658 118.207 92.2338 117.733 91.9698 117.433C91.7178 117.121 91.2798 116.965 90.6558 116.965C89.5638 116.965 88.9638 117.457 88.8558 118.441H86.7498C86.8338 117.397 87.2418 116.617 87.9738 116.101C88.7178 115.585 89.6538 115.327 90.7818 115.327C93.2898 115.327 94.5438 116.473 94.5438 118.765V124.939H92.4018V123.787C91.7298 124.675 90.7698 125.119 89.5218 125.119ZM90.0438 123.553C90.7278 123.553 91.2858 123.385 91.7178 123.049C92.1498 122.701 92.3658 122.233 92.3658 121.645V120.709H91.2498C89.4378 120.709 88.5318 121.219 88.5318 122.239C88.5318 123.115 89.0358 123.553 90.0438 123.553ZM99.2425 124.939L95.8045 115.525H98.1445L100.61 122.707L103.04 115.525H105.182L101.78 124.939H99.2425ZM110.584 125.119C109.18 125.119 108.034 124.687 107.146 123.823C106.258 122.959 105.814 121.795 105.814 120.331V120.187C105.814 118.747 106.252 117.577 107.128 116.677C108.016 115.777 109.138 115.327 110.494 115.327C111.766 115.327 112.822 115.723 113.662 116.515C114.514 117.307 114.94 118.495 114.94 120.079V120.709H108.046C108.082 121.609 108.322 122.299 108.766 122.779C109.21 123.259 109.834 123.499 110.638 123.499C111.91 123.499 112.63 123.019 112.798 122.059H114.904C114.748 123.043 114.292 123.799 113.536 124.327C112.78 124.855 111.796 125.119 110.584 125.119ZM108.082 119.251H112.78C112.672 117.691 111.91 116.911 110.494 116.911C109.846 116.911 109.306 117.121 108.874 117.541C108.454 117.949 108.19 118.519 108.082 119.251ZM121.175 124.939V115.525H123.353V117.019C123.593 116.527 123.977 116.125 124.505 115.813C125.033 115.489 125.663 115.327 126.395 115.327C127.391 115.327 128.177 115.633 128.753 116.245C129.329 116.845 129.617 117.769 129.617 119.017V124.939H127.439V119.215C127.439 118.507 127.289 117.985 126.989 117.649C126.689 117.313 126.215 117.145 125.567 117.145C124.919 117.145 124.385 117.343 123.965 117.739C123.557 118.123 123.353 118.675 123.353 119.395V124.939H121.175ZM136.338 123.427C137.142 123.427 137.772 123.151 138.228 122.599C138.696 122.035 138.93 121.267 138.93 120.295V120.169C138.93 119.197 138.696 118.435 138.228 117.883C137.772 117.319 137.142 117.037 136.338 117.037C135.522 117.037 134.88 117.313 134.412 117.865C133.956 118.417 133.728 119.179 133.728 120.151V120.295C133.728 121.267 133.956 122.035 134.412 122.599C134.88 123.151 135.522 123.427 136.338 123.427ZM139.794 123.787C138.882 124.675 137.724 125.119 136.32 125.119C134.916 125.119 133.758 124.675 132.846 123.787C131.946 122.899 131.496 121.747 131.496 120.331V120.187C131.496 118.747 131.952 117.577 132.864 116.677C133.776 115.777 134.934 115.327 136.338 115.327C137.73 115.327 138.882 115.771 139.794 116.659C140.706 117.547 141.162 118.705 141.162 120.133V120.277C141.162 121.729 140.706 122.899 139.794 123.787ZM146.334 125.101C145.41 125.101 144.702 124.861 144.21 124.381C143.73 123.901 143.49 123.211 143.49 122.311V117.163H142.23V115.525H143.49V113.455H145.668V115.525H147.738V117.163H145.668V122.113C145.668 122.917 146.028 123.319 146.748 123.319C147.168 123.319 147.522 123.259 147.81 123.139V124.867C147.39 125.023 146.898 125.101 146.334 125.101ZM154.064 124.939V115.525H156.242V117.289C156.866 116.029 157.886 115.393 159.302 115.381V117.415C158.282 117.427 157.514 117.631 156.998 118.027C156.494 118.423 156.242 119.095 156.242 120.043V124.939H154.064ZM165.182 125.119C163.778 125.119 162.632 124.687 161.744 123.823C160.856 122.959 160.412 121.795 160.412 120.331V120.187C160.412 118.747 160.85 117.577 161.726 116.677C162.614 115.777 163.736 115.327 165.092 115.327C166.364 115.327 167.42 115.723 168.26 116.515C169.112 117.307 169.538 118.495 169.538 120.079V120.709H162.644C162.68 121.609 162.92 122.299 163.364 122.779C163.808 123.259 164.432 123.499 165.236 123.499C166.508 123.499 167.228 123.019 167.396 122.059H169.502C169.346 123.043 168.89 123.799 168.134 124.327C167.378 124.855 166.394 125.119 165.182 125.119ZM162.68 119.251H167.378C167.27 117.691 166.508 116.911 165.092 116.911C164.444 116.911 163.904 117.121 163.472 117.541C163.052 117.949 162.788 118.519 162.68 119.251ZM175.606 125.119C174.226 125.119 173.086 124.693 172.186 123.841C171.298 122.977 170.854 121.813 170.854 120.349V120.205C170.854 118.741 171.31 117.565 172.222 116.677C173.134 115.777 174.262 115.327 175.606 115.327C176.758 115.327 177.73 115.615 178.522 116.191C179.326 116.755 179.788 117.643 179.908 118.855H177.802C177.634 117.667 176.914 117.073 175.642 117.073C174.886 117.073 174.268 117.349 173.788 117.901C173.32 118.453 173.086 119.209 173.086 120.169V120.313C173.086 121.321 173.314 122.095 173.77 122.635C174.238 123.175 174.88 123.445 175.696 123.445C176.296 123.445 176.806 123.271 177.226 122.923C177.658 122.563 177.904 122.065 177.964 121.429H179.962C179.878 122.533 179.446 123.427 178.666 124.111C177.886 124.783 176.866 125.119 175.606 125.119ZM185.977 125.119C184.573 125.119 183.427 124.687 182.539 123.823C181.651 122.959 181.207 121.795 181.207 120.331V120.187C181.207 118.747 181.645 117.577 182.521 116.677C183.409 115.777 184.531 115.327 185.887 115.327C187.159 115.327 188.215 115.723 189.055 116.515C189.907 117.307 190.333 118.495 190.333 120.079V120.709H183.439C183.475 121.609 183.715 122.299 184.159 122.779C184.603 123.259 185.227 123.499 186.031 123.499C187.303 123.499 188.023 123.019 188.191 122.059H190.297C190.141 123.043 189.685 123.799 188.929 124.327C188.173 124.855 187.189 125.119 185.977 125.119ZM183.475 119.251H188.173C188.065 117.691 187.303 116.911 185.887 116.911C185.239 116.911 184.699 117.121 184.267 117.541C183.847 117.949 183.583 118.519 183.475 119.251ZM192.332 124.939V115.525H194.51V124.939H192.332ZM194.312 113.617C194.06 113.857 193.754 113.977 193.394 113.977C193.034 113.977 192.728 113.857 192.476 113.617C192.224 113.377 192.098 113.083 192.098 112.735C192.098 112.375 192.224 112.075 192.476 111.835C192.728 111.595 193.034 111.475 193.394 111.475C193.754 111.475 194.06 111.595 194.312 111.835C194.564 112.075 194.69 112.375 194.69 112.735C194.69 113.083 194.564 113.377 194.312 113.617ZM199.631 124.939L196.193 115.525H198.533L200.999 122.707L203.429 115.525H205.571L202.169 124.939H199.631ZM210.973 125.119C209.569 125.119 208.423 124.687 207.535 123.823C206.647 122.959 206.203 121.795 206.203 120.331V120.187C206.203 118.747 206.641 117.577 207.517 116.677C208.405 115.777 209.527 115.327 210.883 115.327C212.155 115.327 213.211 115.723 214.051 116.515C214.903 117.307 215.329 118.495 215.329 120.079V120.709H208.435C208.471 121.609 208.711 122.299 209.155 122.779C209.599 123.259 210.223 123.499 211.027 123.499C212.299 123.499 213.019 123.019 213.187 122.059H215.293C215.137 123.043 214.681 123.799 213.925 124.327C213.169 124.855 212.185 125.119 210.973 125.119ZM208.471 119.251H213.169C213.061 117.691 212.299 116.911 210.883 116.911C210.235 116.911 209.695 117.121 209.263 117.541C208.843 117.949 208.579 118.519 208.471 119.251ZM220.803 125.119C219.579 125.119 218.583 124.705 217.815 123.877C217.047 123.037 216.663 121.873 216.663 120.385V120.241C216.663 118.753 217.059 117.565 217.851 116.677C218.643 115.777 219.657 115.327 220.893 115.327C222.285 115.327 223.287 115.873 223.899 116.965V111.169H226.077V124.939H223.899V123.355C223.635 123.847 223.215 124.267 222.639 124.615C222.075 124.951 221.463 125.119 220.803 125.119ZM221.343 123.391C222.135 123.391 222.771 123.127 223.251 122.599C223.731 122.071 223.971 121.297 223.971 120.277V120.133C223.971 119.113 223.749 118.345 223.305 117.829C222.861 117.301 222.237 117.037 221.433 117.037C220.629 117.037 220.005 117.313 219.561 117.865C219.117 118.405 218.895 119.179 218.895 120.187V120.331C218.895 121.327 219.117 122.089 219.561 122.617C220.017 123.133 220.611 123.391 221.343 123.391ZM232.954 124.939V115.525H235.132V116.965C235.372 116.497 235.744 116.107 236.248 115.795C236.752 115.483 237.334 115.327 237.994 115.327C239.314 115.327 240.202 115.891 240.658 117.019C241.006 116.467 241.468 116.047 242.044 115.759C242.62 115.471 243.22 115.327 243.844 115.327C244.768 115.327 245.518 115.633 246.094 116.245C246.682 116.845 246.976 117.757 246.976 118.981V124.939H244.798V119.125C244.798 117.805 244.24 117.145 243.124 117.145C242.548 117.145 242.056 117.337 241.648 117.721C241.252 118.093 241.054 118.621 241.054 119.305V124.939H238.876V119.125C238.876 117.805 238.318 117.145 237.202 117.145C236.626 117.145 236.134 117.337 235.726 117.721C235.33 118.093 235.132 118.621 235.132 119.305V124.939H232.954ZM250.258 128.161L251.968 123.985L248.242 115.525H250.6L253.102 121.591L255.406 115.525H257.53L252.4 128.161H250.258ZM267.664 123.427C268.468 123.427 269.098 123.151 269.554 122.599C270.022 122.035 270.256 121.267 270.256 120.295V120.169C270.256 119.197 270.022 118.435 269.554 117.883C269.098 117.319 268.468 117.037 267.664 117.037C266.848 117.037 266.206 117.313 265.738 117.865C265.282 118.417 265.054 119.179 265.054 120.151V120.295C265.054 121.267 265.282 122.035 265.738 122.599C266.206 123.151 266.848 123.427 267.664 123.427ZM271.12 123.787C270.208 124.675 269.05 125.119 267.646 125.119C266.242 125.119 265.084 124.675 264.172 123.787C263.272 122.899 262.822 121.747 262.822 120.331V120.187C262.822 118.747 263.278 117.577 264.19 116.677C265.102 115.777 266.26 115.327 267.664 115.327C269.056 115.327 270.208 115.771 271.12 116.659C272.032 117.547 272.488 118.705 272.488 120.133V120.277C272.488 121.729 272.032 122.899 271.12 123.787ZM274.456 124.939V115.525H276.634V117.289C277.258 116.029 278.278 115.393 279.694 115.381V117.415C278.674 117.427 277.906 117.631 277.39 118.027C276.886 118.423 276.634 119.095 276.634 120.043V124.939H274.456ZM284.963 125.119C283.739 125.119 282.743 124.705 281.975 123.877C281.207 123.037 280.823 121.873 280.823 120.385V120.241C280.823 118.753 281.219 117.565 282.011 116.677C282.803 115.777 283.817 115.327 285.053 115.327C286.445 115.327 287.447 115.873 288.059 116.965V111.169H290.237V124.939H288.059V123.355C287.795 123.847 287.375 124.267 286.799 124.615C286.235 124.951 285.623 125.119 284.963 125.119ZM285.503 123.391C286.295 123.391 286.931 123.127 287.411 122.599C287.891 122.071 288.131 121.297 288.131 120.277V120.133C288.131 119.113 287.909 118.345 287.465 117.829C287.021 117.301 286.397 117.037 285.593 117.037C284.789 117.037 284.165 117.313 283.721 117.865C283.277 118.405 283.055 119.179 283.055 120.187V120.331C283.055 121.327 283.277 122.089 283.721 122.617C284.177 123.133 284.771 123.391 285.503 123.391ZM296.965 125.119C295.561 125.119 294.415 124.687 293.527 123.823C292.639 122.959 292.195 121.795 292.195 120.331V120.187C292.195 118.747 292.633 117.577 293.509 116.677C294.397 115.777 295.519 115.327 296.875 115.327C298.147 115.327 299.203 115.723 300.043 116.515C300.895 117.307 301.321 118.495 301.321 120.079V120.709H294.427C294.463 121.609 294.703 122.299 295.147 122.779C295.591 123.259 296.215 123.499 297.019 123.499C298.291 123.499 299.011 123.019 299.179 122.059H301.285C301.129 123.043 300.673 123.799 299.917 124.327C299.161 124.855 298.177 125.119 296.965 125.119ZM294.463 119.251H299.161C299.053 117.691 298.291 116.911 296.875 116.911C296.227 116.911 295.687 117.121 295.255 117.541C294.835 117.949 294.571 118.519 294.463 119.251ZM303.267 124.939V115.525H305.445V117.289C306.069 116.029 307.089 115.393 308.505 115.381V117.415C307.485 117.427 306.717 117.631 306.201 118.027C305.697 118.423 305.445 119.095 305.445 120.043V124.939H303.267Z" fill="black"/>
<path fill-rule="evenodd" clip-rule="evenodd" d="M326.293 123.646C325.902 123.255 325.902 122.622 326.293 122.231L329.586 118.939L326.293 115.646C325.902 115.255 325.902 114.622 326.293 114.231C326.683 113.841 327.317 113.841 327.707 114.231L331.707 118.231C332.098 118.622 332.098 119.255 331.707 119.646L327.707 123.646C327.317 124.036 326.683 124.036 326.293 123.646Z" fill="#1A1A1A"/>
<rect x="33" y="76.9386" width="337" height="84" rx="4" stroke="black" shape-rendering="crispEdges"/>
</g>
<g filter="url(#filter2_d_3035_9254)">
<rect x="33" y="184.939" width="396" height="84" rx="4" fill="white" shape-rendering="crispEdges"/>
<path d="M70.85 233.119C69.17 233.119 67.91 232.747 67.07 232.003C66.242 231.259 65.78 230.239 65.684 228.943H67.988C68.084 229.699 68.336 230.287 68.744 230.707C69.152 231.115 69.854 231.319 70.85 231.319C71.57 231.319 72.152 231.139 72.596 230.779C73.052 230.407 73.28 229.927 73.28 229.339C73.28 228.739 73.094 228.301 72.722 228.025C72.35 227.749 71.642 227.527 70.598 227.359C69.002 227.143 67.844 226.759 67.124 226.207C66.416 225.643 66.062 224.773 66.062 223.597C66.062 222.529 66.476 221.647 67.304 220.951C68.132 220.255 69.212 219.907 70.544 219.907C71.936 219.907 73.034 220.225 73.838 220.861C74.642 221.485 75.104 222.409 75.224 223.633H73.028C72.908 222.961 72.65 222.475 72.254 222.175C71.858 221.863 71.288 221.707 70.544 221.707C69.836 221.707 69.29 221.863 68.906 222.175C68.522 222.475 68.33 222.883 68.33 223.399C68.33 223.951 68.504 224.365 68.852 224.641C69.212 224.917 69.926 225.133 70.994 225.289C72.59 225.505 73.754 225.895 74.486 226.459C75.218 227.011 75.584 227.905 75.584 229.141C75.584 230.281 75.146 231.229 74.27 231.985C73.394 232.741 72.254 233.119 70.85 233.119ZM81.9338 231.427C82.7378 231.427 83.3678 231.151 83.8238 230.599C84.2918 230.035 84.5258 229.267 84.5258 228.295V228.169C84.5258 227.197 84.2918 226.435 83.8238 225.883C83.3678 225.319 82.7378 225.037 81.9338 225.037C81.1178 225.037 80.4758 225.313 80.0078 225.865C79.5518 226.417 79.3238 227.179 79.3238 228.151V228.295C79.3238 229.267 79.5518 230.035 80.0078 230.599C80.4758 231.151 81.1178 231.427 81.9338 231.427ZM85.3898 231.787C84.4778 232.675 83.3198 233.119 81.9158 233.119C80.5118 233.119 79.3538 232.675 78.4418 231.787C77.5418 230.899 77.0918 229.747 77.0918 228.331V228.187C77.0918 226.747 77.5478 225.577 78.4598 224.677C79.3718 223.777 80.5298 223.327 81.9338 223.327C83.3258 223.327 84.4778 223.771 85.3898 224.659C86.3018 225.547 86.7578 226.705 86.7578 228.133V228.277C86.7578 229.729 86.3018 230.899 85.3898 231.787ZM88.7257 232.939V223.525H90.9037V224.965C91.1437 224.497 91.5157 224.107 92.0197 223.795C92.5237 223.483 93.1057 223.327 93.7657 223.327C95.0857 223.327 95.9737 223.891 96.4297 225.019C96.7777 224.467 97.2397 224.047 97.8157 223.759C98.3917 223.471 98.9917 223.327 99.6157 223.327C100.54 223.327 101.29 223.633 101.866 224.245C102.454 224.845 102.748 225.757 102.748 226.981V232.939H100.57V227.125C100.57 225.805 100.012 225.145 98.8957 225.145C98.3197 225.145 97.8277 225.337 97.4197 225.721C97.0237 226.093 96.8257 226.621 96.8257 227.305V232.939H94.6477V227.125C94.6477 225.805 94.0897 225.145 92.9737 225.145C92.3977 225.145 91.9057 225.337 91.4977 225.721C91.1017 226.093 90.9037 226.621 90.9037 227.305V232.939H88.7257ZM109.389 233.119C107.985 233.119 106.839 232.687 105.951 231.823C105.063 230.959 104.619 229.795 104.619 228.331V228.187C104.619 226.747 105.057 225.577 105.933 224.677C106.821 223.777 107.943 223.327 109.299 223.327C110.571 223.327 111.627 223.723 112.467 224.515C113.319 225.307 113.745 226.495 113.745 228.079V228.709H106.851C106.887 229.609 107.127 230.299 107.571 230.779C108.015 231.259 108.639 231.499 109.443 231.499C110.715 231.499 111.435 231.019 111.603 230.059H113.709C113.553 231.043 113.097 231.799 112.341 232.327C111.585 232.855 110.601 233.119 109.389 233.119ZM106.887 227.251H111.585C111.477 225.691 110.715 224.911 109.299 224.911C108.651 224.911 108.111 225.121 107.679 225.541C107.259 225.949 106.995 226.519 106.887 227.251ZM124.192 231.427C124.996 231.427 125.626 231.151 126.082 230.599C126.55 230.035 126.784 229.267 126.784 228.295V228.169C126.784 227.197 126.55 226.435 126.082 225.883C125.626 225.319 124.996 225.037 124.192 225.037C123.376 225.037 122.734 225.313 122.266 225.865C121.81 226.417 121.582 227.179 121.582 228.151V228.295C121.582 229.267 121.81 230.035 122.266 230.599C122.734 231.151 123.376 231.427 124.192 231.427ZM127.648 231.787C126.736 232.675 125.578 233.119 124.174 233.119C122.77 233.119 121.612 232.675 120.7 231.787C119.8 230.899 119.35 229.747 119.35 228.331V228.187C119.35 226.747 119.806 225.577 120.718 224.677C121.63 223.777 122.788 223.327 124.192 223.327C125.584 223.327 126.736 223.771 127.648 224.659C128.56 225.547 129.016 226.705 129.016 228.133V228.277C129.016 229.729 128.56 230.899 127.648 231.787ZM131.362 232.939V225.163H130.084V223.525H131.362V222.265C131.362 221.233 131.638 220.447 132.19 219.907C132.742 219.355 133.522 219.079 134.53 219.079C134.986 219.079 135.4 219.139 135.772 219.259V220.951C135.472 220.843 135.142 220.789 134.782 220.789C133.954 220.789 133.54 221.251 133.54 222.175V223.525H135.682V225.163H133.54V232.939H131.362ZM141.794 232.939V223.525H143.972V224.965C144.212 224.497 144.584 224.107 145.088 223.795C145.592 223.483 146.174 223.327 146.834 223.327C148.154 223.327 149.042 223.891 149.498 225.019C149.846 224.467 150.308 224.047 150.884 223.759C151.46 223.471 152.06 223.327 152.684 223.327C153.608 223.327 154.358 223.633 154.934 224.245C155.522 224.845 155.816 225.757 155.816 226.981V232.939H153.638V227.125C153.638 225.805 153.08 225.145 151.964 225.145C151.388 225.145 150.896 225.337 150.488 225.721C150.092 226.093 149.894 226.621 149.894 227.305V232.939H147.716V227.125C147.716 225.805 147.158 225.145 146.042 225.145C145.466 225.145 144.974 225.337 144.566 225.721C144.17 226.093 143.972 226.621 143.972 227.305V232.939H141.794ZM159.098 236.161L160.808 231.985L157.082 223.525H159.44L161.942 229.591L164.246 223.525H166.37L161.24 236.161H159.098ZM172.346 232.939V223.525H174.524V232.939H172.346ZM174.326 221.617C174.074 221.857 173.768 221.977 173.408 221.977C173.048 221.977 172.742 221.857 172.49 221.617C172.238 221.377 172.112 221.083 172.112 220.735C172.112 220.375 172.238 220.075 172.49 219.835C172.742 219.595 173.048 219.475 173.408 219.475C173.768 219.475 174.074 219.595 174.326 219.835C174.578 220.075 174.704 220.375 174.704 220.735C174.704 221.083 174.578 221.377 174.326 221.617ZM180.383 233.101C179.459 233.101 178.751 232.861 178.259 232.381C177.779 231.901 177.539 231.211 177.539 230.311V225.163H176.279V223.525H177.539V221.455H179.717V223.525H181.787V225.163H179.717V230.113C179.717 230.917 180.077 231.319 180.797 231.319C181.217 231.319 181.571 231.259 181.859 231.139V232.867C181.439 233.023 180.947 233.101 180.383 233.101ZM187.963 233.119C186.559 233.119 185.413 232.687 184.525 231.823C183.637 230.959 183.193 229.795 183.193 228.331V228.187C183.193 226.747 183.631 225.577 184.507 224.677C185.395 223.777 186.517 223.327 187.873 223.327C189.145 223.327 190.201 223.723 191.041 224.515C191.893 225.307 192.319 226.495 192.319 228.079V228.709H185.425C185.461 229.609 185.701 230.299 186.145 230.779C186.589 231.259 187.213 231.499 188.017 231.499C189.289 231.499 190.009 231.019 190.177 230.059H192.283C192.127 231.043 191.671 231.799 190.915 232.327C190.159 232.855 189.175 233.119 187.963 233.119ZM185.461 227.251H190.159C190.051 225.691 189.289 224.911 187.873 224.911C187.225 224.911 186.685 225.121 186.253 225.541C185.833 225.949 185.569 226.519 185.461 227.251ZM194.265 232.939V223.525H196.443V224.965C196.683 224.497 197.055 224.107 197.559 223.795C198.063 223.483 198.645 223.327 199.305 223.327C200.625 223.327 201.513 223.891 201.969 225.019C202.317 224.467 202.779 224.047 203.355 223.759C203.931 223.471 204.531 223.327 205.155 223.327C206.079 223.327 206.829 223.633 207.405 224.245C207.993 224.845 208.287 225.757 208.287 226.981V232.939H206.109V227.125C206.109 225.805 205.551 225.145 204.435 225.145C203.859 225.145 203.367 225.337 202.959 225.721C202.563 226.093 202.365 226.621 202.365 227.305V232.939H200.187V227.125C200.187 225.805 199.629 225.145 198.513 225.145C197.937 225.145 197.445 225.337 197.037 225.721C196.641 226.093 196.443 226.621 196.443 227.305V232.939H194.265ZM214.01 233.119C212.798 233.119 211.85 232.849 211.166 232.309C210.482 231.769 210.116 231.001 210.068 230.005H212.12C212.18 230.509 212.354 230.887 212.642 231.139C212.93 231.391 213.38 231.517 213.992 231.517C215.12 231.517 215.684 231.115 215.684 230.311C215.684 229.939 215.528 229.663 215.216 229.483C214.916 229.291 214.4 229.135 213.668 229.015C212.408 228.811 211.526 228.505 211.022 228.097C210.518 227.677 210.266 227.029 210.266 226.153C210.266 225.265 210.614 224.575 211.31 224.083C212.006 223.579 212.834 223.327 213.794 223.327C216.05 223.327 217.28 224.275 217.484 226.171H215.468C215.372 225.739 215.192 225.421 214.928 225.217C214.676 225.013 214.298 224.911 213.794 224.911C213.326 224.911 212.96 225.013 212.696 225.217C212.432 225.421 212.3 225.691 212.3 226.027C212.3 226.363 212.438 226.615 212.714 226.783C212.99 226.951 213.5 227.101 214.244 227.233C215.468 227.425 216.362 227.719 216.926 228.115C217.49 228.511 217.772 229.177 217.772 230.113C217.772 231.073 217.442 231.817 216.782 232.345C216.134 232.861 215.21 233.119 214.01 233.119ZM226.438 233.119C225.514 233.119 224.758 232.891 224.17 232.435C223.582 231.967 223.288 231.265 223.288 230.329C223.288 229.297 223.726 228.541 224.602 228.061C225.478 227.581 226.648 227.341 228.112 227.341H229.282V226.855C229.282 226.207 229.15 225.733 228.886 225.433C228.634 225.121 228.196 224.965 227.572 224.965C226.48 224.965 225.88 225.457 225.772 226.441H223.666C223.75 225.397 224.158 224.617 224.89 224.101C225.634 223.585 226.57 223.327 227.698 223.327C230.206 223.327 231.46 224.473 231.46 226.765V232.939H229.318V231.787C228.646 232.675 227.686 233.119 226.438 233.119ZM226.96 231.553C227.644 231.553 228.202 231.385 228.634 231.049C229.066 230.701 229.282 230.233 229.282 229.645V228.709H228.166C226.354 228.709 225.448 229.219 225.448 230.239C225.448 231.115 225.952 231.553 226.96 231.553ZM233.956 232.939V223.525H236.134V225.289C236.758 224.029 237.778 223.393 239.194 223.381V225.415C238.174 225.427 237.406 225.631 236.89 226.027C236.386 226.423 236.134 227.095 236.134 228.043V232.939H233.956ZM241.11 232.939V223.525H243.288V225.289C243.912 224.029 244.932 223.393 246.348 223.381V225.415C245.328 225.427 244.56 225.631 244.044 226.027C243.54 226.423 243.288 227.095 243.288 228.043V232.939H241.11ZM248.319 232.939V223.525H250.497V232.939H248.319ZM250.299 221.617C250.047 221.857 249.741 221.977 249.381 221.977C249.021 221.977 248.715 221.857 248.463 221.617C248.211 221.377 248.085 221.083 248.085 220.735C248.085 220.375 248.211 220.075 248.463 219.835C248.715 219.595 249.021 219.475 249.381 219.475C249.741 219.475 250.047 219.595 250.299 219.835C250.551 220.075 250.677 220.375 250.677 220.735C250.677 221.083 250.551 221.377 250.299 221.617ZM255.617 232.939L252.179 223.525H254.519L256.985 230.707L259.415 223.525H261.557L258.155 232.939H255.617ZM266.959 233.119C265.555 233.119 264.409 232.687 263.521 231.823C262.633 230.959 262.189 229.795 262.189 228.331V228.187C262.189 226.747 262.627 225.577 263.503 224.677C264.391 223.777 265.513 223.327 266.869 223.327C268.141 223.327 269.197 223.723 270.037 224.515C270.889 225.307 271.315 226.495 271.315 228.079V228.709H264.421C264.457 229.609 264.697 230.299 265.141 230.779C265.585 231.259 266.209 231.499 267.013 231.499C268.285 231.499 269.005 231.019 269.173 230.059H271.279C271.123 231.043 270.667 231.799 269.911 232.327C269.155 232.855 268.171 233.119 266.959 233.119ZM264.457 227.251H269.155C269.047 225.691 268.285 224.911 266.869 224.911C266.221 224.911 265.681 225.121 265.249 225.541C264.829 225.949 264.565 226.519 264.457 227.251ZM276.789 233.119C275.565 233.119 274.569 232.705 273.801 231.877C273.033 231.037 272.649 229.873 272.649 228.385V228.241C272.649 226.753 273.045 225.565 273.837 224.677C274.629 223.777 275.643 223.327 276.879 223.327C278.271 223.327 279.273 223.873 279.885 224.965V219.169H282.063V232.939H279.885V231.355C279.621 231.847 279.201 232.267 278.625 232.615C278.061 232.951 277.449 233.119 276.789 233.119ZM277.329 231.391C278.121 231.391 278.757 231.127 279.237 230.599C279.717 230.071 279.957 229.297 279.957 228.277V228.133C279.957 227.113 279.735 226.345 279.291 225.829C278.847 225.301 278.223 225.037 277.419 225.037C276.615 225.037 275.991 225.313 275.547 225.865C275.103 226.405 274.881 227.179 274.881 228.187V228.331C274.881 229.327 275.103 230.089 275.547 230.617C276.003 231.133 276.597 231.391 277.329 231.391ZM292.469 233.119C291.245 233.119 290.249 232.705 289.481 231.877C288.713 231.037 288.329 229.873 288.329 228.385V228.241C288.329 226.753 288.725 225.565 289.517 224.677C290.309 223.777 291.323 223.327 292.559 223.327C293.951 223.327 294.953 223.873 295.565 224.965V219.169H297.743V232.939H295.565V231.355C295.301 231.847 294.881 232.267 294.305 232.615C293.741 232.951 293.129 233.119 292.469 233.119ZM293.009 231.391C293.801 231.391 294.437 231.127 294.917 230.599C295.397 230.071 295.637 229.297 295.637 228.277V228.133C295.637 227.113 295.415 226.345 294.971 225.829C294.527 225.301 293.903 225.037 293.099 225.037C292.295 225.037 291.671 225.313 291.227 225.865C290.783 226.405 290.561 227.179 290.561 228.187V228.331C290.561 229.327 290.783 230.089 291.227 230.617C291.683 231.133 292.277 231.391 293.009 231.391ZM302.797 233.119C301.873 233.119 301.117 232.891 300.529 232.435C299.941 231.967 299.647 231.265 299.647 230.329C299.647 229.297 300.085 228.541 300.961 228.061C301.837 227.581 303.007 227.341 304.471 227.341H305.641V226.855C305.641 226.207 305.509 225.733 305.245 225.433C304.993 225.121 304.555 224.965 303.931 224.965C302.839 224.965 302.239 225.457 302.131 226.441H300.025C300.109 225.397 300.517 224.617 301.249 224.101C301.993 223.585 302.929 223.327 304.057 223.327C306.565 223.327 307.819 224.473 307.819 226.765V232.939H305.677V231.787C305.005 232.675 304.045 233.119 302.797 233.119ZM303.319 231.553C304.003 231.553 304.561 231.385 304.993 231.049C305.425 230.701 305.641 230.233 305.641 229.645V228.709H304.525C302.713 228.709 301.807 229.219 301.807 230.239C301.807 231.115 302.311 231.553 303.319 231.553ZM310.316 232.939V223.525H312.494V224.965C312.734 224.497 313.106 224.107 313.61 223.795C314.114 223.483 314.696 223.327 315.356 223.327C316.676 223.327 317.564 223.891 318.02 225.019C318.368 224.467 318.83 224.047 319.406 223.759C319.982 223.471 320.582 223.327 321.206 223.327C322.13 223.327 322.88 223.633 323.456 224.245C324.044 224.845 324.338 225.757 324.338 226.981V232.939H322.16V227.125C322.16 225.805 321.602 225.145 320.486 225.145C319.91 225.145 319.418 225.337 319.01 225.721C318.614 226.093 318.416 226.621 318.416 227.305V232.939H316.238V227.125C316.238 225.805 315.68 225.145 314.564 225.145C313.988 225.145 313.496 225.337 313.088 225.721C312.692 226.093 312.494 226.621 312.494 227.305V232.939H310.316ZM329.305 233.119C328.381 233.119 327.625 232.891 327.037 232.435C326.449 231.967 326.155 231.265 326.155 230.329C326.155 229.297 326.593 228.541 327.469 228.061C328.345 227.581 329.515 227.341 330.979 227.341H332.149V226.855C332.149 226.207 332.017 225.733 331.753 225.433C331.501 225.121 331.063 224.965 330.439 224.965C329.347 224.965 328.747 225.457 328.639 226.441H326.533C326.617 225.397 327.025 224.617 327.757 224.101C328.501 223.585 329.437 223.327 330.565 223.327C333.073 223.327 334.327 224.473 334.327 226.765V232.939H332.185V231.787C331.513 232.675 330.553 233.119 329.305 233.119ZM329.827 231.553C330.511 231.553 331.069 231.385 331.501 231.049C331.933 230.701 332.149 230.233 332.149 229.645V228.709H331.033C329.221 228.709 328.315 229.219 328.315 230.239C328.315 231.115 328.819 231.553 329.827 231.553ZM340.837 236.395C339.433 236.395 338.359 236.113 337.615 235.549C336.871 234.985 336.433 234.223 336.301 233.263H338.497C338.689 234.247 339.463 234.739 340.819 234.739C342.571 234.739 343.447 233.893 343.447 232.201V230.815C343.171 231.295 342.751 231.709 342.187 232.057C341.635 232.393 341.029 232.561 340.369 232.561C339.169 232.561 338.173 232.147 337.381 231.319C336.589 230.491 336.193 229.411 336.193 228.079V227.953C336.193 226.633 336.595 225.535 337.399 224.659C338.203 223.771 339.211 223.327 340.423 223.327C341.815 223.327 342.823 223.873 343.447 224.965V223.525H345.625V232.237C345.613 233.593 345.181 234.625 344.329 235.333C343.489 236.041 342.325 236.395 340.837 236.395ZM340.909 230.887C341.677 230.887 342.301 230.629 342.781 230.113C343.273 229.597 343.519 228.895 343.519 228.007V227.881C343.519 226.993 343.291 226.297 342.835 225.793C342.379 225.289 341.761 225.037 340.981 225.037C340.189 225.037 339.565 225.301 339.109 225.829C338.653 226.357 338.425 227.053 338.425 227.917V228.061C338.425 228.913 338.659 229.597 339.127 230.113C339.595 230.629 340.189 230.887 340.909 230.887ZM352.354 233.119C350.95 233.119 349.804 232.687 348.916 231.823C348.028 230.959 347.584 229.795 347.584 228.331V228.187C347.584 226.747 348.022 225.577 348.898 224.677C349.786 223.777 350.908 223.327 352.264 223.327C353.536 223.327 354.592 223.723 355.432 224.515C356.284 225.307 356.71 226.495 356.71 228.079V228.709H349.816C349.852 229.609 350.092 230.299 350.536 230.779C350.98 231.259 351.604 231.499 352.408 231.499C353.68 231.499 354.4 231.019 354.568 230.059H356.674C356.518 231.043 356.062 231.799 355.306 232.327C354.55 232.855 353.566 233.119 352.354 233.119ZM349.852 227.251H354.55C354.442 225.691 353.68 224.911 352.264 224.911C351.616 224.911 351.076 225.121 350.644 225.541C350.224 225.949 349.96 226.519 349.852 227.251ZM362.183 233.119C360.959 233.119 359.963 232.705 359.195 231.877C358.427 231.037 358.043 229.873 358.043 228.385V228.241C358.043 226.753 358.439 225.565 359.231 224.677C360.023 223.777 361.037 223.327 362.273 223.327C363.665 223.327 364.667 223.873 365.279 224.965V219.169H367.457V232.939H365.279V231.355C365.015 231.847 364.595 232.267 364.019 232.615C363.455 232.951 362.843 233.119 362.183 233.119ZM362.723 231.391C363.515 231.391 364.151 231.127 364.631 230.599C365.111 230.071 365.351 229.297 365.351 228.277V228.133C365.351 227.113 365.129 226.345 364.685 225.829C364.241 225.301 363.617 225.037 362.813 225.037C362.009 225.037 361.385 225.313 360.941 225.865C360.497 226.405 360.275 227.179 360.275 228.187V228.331C360.275 229.327 360.497 230.089 360.941 230.617C361.397 231.133 361.991 231.391 362.723 231.391Z" fill="black"/>
<path fill-rule="evenodd" clip-rule="evenodd" d="M385.293 231.646C384.902 231.255 384.902 230.622 385.293 230.231L388.586 226.939L385.293 223.646C384.902 223.255 384.902 222.622 385.293 222.231C385.683 221.841 386.317 221.841 386.707 222.231L390.707 226.231C391.098 226.622 391.098 227.255 390.707 227.646L386.707 231.646C386.317 232.036 385.683 232.036 385.293 231.646Z" fill="#1A1A1A"/>
<rect x="33" y="184.939" width="396" height="84" rx="4" stroke="black" shape-rendering="crispEdges"/>
</g>
<g filter="url(#filter3_d_3035_9254)">
<rect x="33" y="292.939" width="364" height="84" rx="4" fill="white" shape-rendering="crispEdges"/>
<path d="M70.85 341.119C69.17 341.119 67.91 340.747 67.07 340.003C66.242 339.259 65.78 338.239 65.684 336.943H67.988C68.084 337.699 68.336 338.287 68.744 338.707C69.152 339.115 69.854 339.319 70.85 339.319C71.57 339.319 72.152 339.139 72.596 338.779C73.052 338.407 73.28 337.927 73.28 337.339C73.28 336.739 73.094 336.301 72.722 336.025C72.35 335.749 71.642 335.527 70.598 335.359C69.002 335.143 67.844 334.759 67.124 334.207C66.416 333.643 66.062 332.773 66.062 331.597C66.062 330.529 66.476 329.647 67.304 328.951C68.132 328.255 69.212 327.907 70.544 327.907C71.936 327.907 73.034 328.225 73.838 328.861C74.642 329.485 75.104 330.409 75.224 331.633H73.028C72.908 330.961 72.65 330.475 72.254 330.175C71.858 329.863 71.288 329.707 70.544 329.707C69.836 329.707 69.29 329.863 68.906 330.175C68.522 330.475 68.33 330.883 68.33 331.399C68.33 331.951 68.504 332.365 68.852 332.641C69.212 332.917 69.926 333.133 70.994 333.289C72.59 333.505 73.754 333.895 74.486 334.459C75.218 335.011 75.584 335.905 75.584 337.141C75.584 338.281 75.146 339.229 74.27 339.985C73.394 340.741 72.254 341.119 70.85 341.119ZM81.9338 339.427C82.7378 339.427 83.3678 339.151 83.8238 338.599C84.2918 338.035 84.5258 337.267 84.5258 336.295V336.169C84.5258 335.197 84.2918 334.435 83.8238 333.883C83.3678 333.319 82.7378 333.037 81.9338 333.037C81.1178 333.037 80.4758 333.313 80.0078 333.865C79.5518 334.417 79.3238 335.179 79.3238 336.151V336.295C79.3238 337.267 79.5518 338.035 80.0078 338.599C80.4758 339.151 81.1178 339.427 81.9338 339.427ZM85.3898 339.787C84.4778 340.675 83.3198 341.119 81.9158 341.119C80.5118 341.119 79.3538 340.675 78.4418 339.787C77.5418 338.899 77.0918 337.747 77.0918 336.331V336.187C77.0918 334.747 77.5478 333.577 78.4598 332.677C79.3718 331.777 80.5298 331.327 81.9338 331.327C83.3258 331.327 84.4778 331.771 85.3898 332.659C86.3018 333.547 86.7578 334.705 86.7578 336.133V336.277C86.7578 337.729 86.3018 338.899 85.3898 339.787ZM88.7257 340.939V331.525H90.9037V332.965C91.1437 332.497 91.5157 332.107 92.0197 331.795C92.5237 331.483 93.1057 331.327 93.7657 331.327C95.0857 331.327 95.9737 331.891 96.4297 333.019C96.7777 332.467 97.2397 332.047 97.8157 331.759C98.3917 331.471 98.9917 331.327 99.6157 331.327C100.54 331.327 101.29 331.633 101.866 332.245C102.454 332.845 102.748 333.757 102.748 334.981V340.939H100.57V335.125C100.57 333.805 100.012 333.145 98.8957 333.145C98.3197 333.145 97.8277 333.337 97.4197 333.721C97.0237 334.093 96.8257 334.621 96.8257 335.305V340.939H94.6477V335.125C94.6477 333.805 94.0897 333.145 92.9737 333.145C92.3977 333.145 91.9057 333.337 91.4977 333.721C91.1017 334.093 90.9037 334.621 90.9037 335.305V340.939H88.7257ZM109.389 341.119C107.985 341.119 106.839 340.687 105.951 339.823C105.063 338.959 104.619 337.795 104.619 336.331V336.187C104.619 334.747 105.057 333.577 105.933 332.677C106.821 331.777 107.943 331.327 109.299 331.327C110.571 331.327 111.627 331.723 112.467 332.515C113.319 333.307 113.745 334.495 113.745 336.079V336.709H106.851C106.887 337.609 107.127 338.299 107.571 338.779C108.015 339.259 108.639 339.499 109.443 339.499C110.715 339.499 111.435 339.019 111.603 338.059H113.709C113.553 339.043 113.097 339.799 112.341 340.327C111.585 340.855 110.601 341.119 109.389 341.119ZM106.887 335.251H111.585C111.477 333.691 110.715 332.911 109.299 332.911C108.651 332.911 108.111 333.121 107.679 333.541C107.259 333.949 106.995 334.519 106.887 335.251ZM124.192 339.427C124.996 339.427 125.626 339.151 126.082 338.599C126.55 338.035 126.784 337.267 126.784 336.295V336.169C126.784 335.197 126.55 334.435 126.082 333.883C125.626 333.319 124.996 333.037 124.192 333.037C123.376 333.037 122.734 333.313 122.266 333.865C121.81 334.417 121.582 335.179 121.582 336.151V336.295C121.582 337.267 121.81 338.035 122.266 338.599C122.734 339.151 123.376 339.427 124.192 339.427ZM127.648 339.787C126.736 340.675 125.578 341.119 124.174 341.119C122.77 341.119 121.612 340.675 120.7 339.787C119.8 338.899 119.35 337.747 119.35 336.331V336.187C119.35 334.747 119.806 333.577 120.718 332.677C121.63 331.777 122.788 331.327 124.192 331.327C125.584 331.327 126.736 331.771 127.648 332.659C128.56 333.547 129.016 334.705 129.016 336.133V336.277C129.016 337.729 128.56 338.899 127.648 339.787ZM131.362 340.939V333.163H130.084V331.525H131.362V330.265C131.362 329.233 131.638 328.447 132.19 327.907C132.742 327.355 133.522 327.079 134.53 327.079C134.986 327.079 135.4 327.139 135.772 327.259V328.951C135.472 328.843 135.142 328.789 134.782 328.789C133.954 328.789 133.54 329.251 133.54 330.175V331.525H135.682V333.163H133.54V340.939H131.362ZM141.794 340.939V331.525H143.972V332.965C144.212 332.497 144.584 332.107 145.088 331.795C145.592 331.483 146.174 331.327 146.834 331.327C148.154 331.327 149.042 331.891 149.498 333.019C149.846 332.467 150.308 332.047 150.884 331.759C151.46 331.471 152.06 331.327 152.684 331.327C153.608 331.327 154.358 331.633 154.934 332.245C155.522 332.845 155.816 333.757 155.816 334.981V340.939H153.638V335.125C153.638 333.805 153.08 333.145 151.964 333.145C151.388 333.145 150.896 333.337 150.488 333.721C150.092 334.093 149.894 334.621 149.894 335.305V340.939H147.716V335.125C147.716 333.805 147.158 333.145 146.042 333.145C145.466 333.145 144.974 333.337 144.566 333.721C144.17 334.093 143.972 334.621 143.972 335.305V340.939H141.794ZM159.098 344.161L160.808 339.985L157.082 331.525H159.44L161.942 337.591L164.246 331.525H166.37L161.24 344.161H159.098ZM172.346 340.939V331.525H174.524V340.939H172.346ZM174.326 329.617C174.074 329.857 173.768 329.977 173.408 329.977C173.048 329.977 172.742 329.857 172.49 329.617C172.238 329.377 172.112 329.083 172.112 328.735C172.112 328.375 172.238 328.075 172.49 327.835C172.742 327.595 173.048 327.475 173.408 327.475C173.768 327.475 174.074 327.595 174.326 327.835C174.578 328.075 174.704 328.375 174.704 328.735C174.704 329.083 174.578 329.377 174.326 329.617ZM180.383 341.101C179.459 341.101 178.751 340.861 178.259 340.381C177.779 339.901 177.539 339.211 177.539 338.311V333.163H176.279V331.525H177.539V329.455H179.717V331.525H181.787V333.163H179.717V338.113C179.717 338.917 180.077 339.319 180.797 339.319C181.217 339.319 181.571 339.259 181.859 339.139V340.867C181.439 341.023 180.947 341.101 180.383 341.101ZM187.963 341.119C186.559 341.119 185.413 340.687 184.525 339.823C183.637 338.959 183.193 337.795 183.193 336.331V336.187C183.193 334.747 183.631 333.577 184.507 332.677C185.395 331.777 186.517 331.327 187.873 331.327C189.145 331.327 190.201 331.723 191.041 332.515C191.893 333.307 192.319 334.495 192.319 336.079V336.709H185.425C185.461 337.609 185.701 338.299 186.145 338.779C186.589 339.259 187.213 339.499 188.017 339.499C189.289 339.499 190.009 339.019 190.177 338.059H192.283C192.127 339.043 191.671 339.799 190.915 340.327C190.159 340.855 189.175 341.119 187.963 341.119ZM185.461 335.251H190.159C190.051 333.691 189.289 332.911 187.873 332.911C187.225 332.911 186.685 333.121 186.253 333.541C185.833 333.949 185.569 334.519 185.461 335.251ZM194.265 340.939V331.525H196.443V332.965C196.683 332.497 197.055 332.107 197.559 331.795C198.063 331.483 198.645 331.327 199.305 331.327C200.625 331.327 201.513 331.891 201.969 333.019C202.317 332.467 202.779 332.047 203.355 331.759C203.931 331.471 204.531 331.327 205.155 331.327C206.079 331.327 206.829 331.633 207.405 332.245C207.993 332.845 208.287 333.757 208.287 334.981V340.939H206.109V335.125C206.109 333.805 205.551 333.145 204.435 333.145C203.859 333.145 203.367 333.337 202.959 333.721C202.563 334.093 202.365 334.621 202.365 335.305V340.939H200.187V335.125C200.187 333.805 199.629 333.145 198.513 333.145C197.937 333.145 197.445 333.337 197.037 333.721C196.641 334.093 196.443 334.621 196.443 335.305V340.939H194.265ZM214.01 341.119C212.798 341.119 211.85 340.849 211.166 340.309C210.482 339.769 210.116 339.001 210.068 338.005H212.12C212.18 338.509 212.354 338.887 212.642 339.139C212.93 339.391 213.38 339.517 213.992 339.517C215.12 339.517 215.684 339.115 215.684 338.311C215.684 337.939 215.528 337.663 215.216 337.483C214.916 337.291 214.4 337.135 213.668 337.015C212.408 336.811 211.526 336.505 211.022 336.097C210.518 335.677 210.266 335.029 210.266 334.153C210.266 333.265 210.614 332.575 211.31 332.083C212.006 331.579 212.834 331.327 213.794 331.327C216.05 331.327 217.28 332.275 217.484 334.171H215.468C215.372 333.739 215.192 333.421 214.928 333.217C214.676 333.013 214.298 332.911 213.794 332.911C213.326 332.911 212.96 333.013 212.696 333.217C212.432 333.421 212.3 333.691 212.3 334.027C212.3 334.363 212.438 334.615 212.714 334.783C212.99 334.951 213.5 335.101 214.244 335.233C215.468 335.425 216.362 335.719 216.926 336.115C217.49 336.511 217.772 337.177 217.772 338.113C217.772 339.073 217.442 339.817 216.782 340.345C216.134 340.861 215.21 341.119 214.01 341.119ZM227.5 341.119C226.276 341.119 225.28 340.705 224.512 339.877C223.744 339.037 223.36 337.873 223.36 336.385V336.241C223.36 334.753 223.756 333.565 224.548 332.677C225.34 331.777 226.354 331.327 227.59 331.327C228.982 331.327 229.984 331.873 230.596 332.965V327.169H232.774V340.939H230.596V339.355C230.332 339.847 229.912 340.267 229.336 340.615C228.772 340.951 228.16 341.119 227.5 341.119ZM228.04 339.391C228.832 339.391 229.468 339.127 229.948 338.599C230.428 338.071 230.668 337.297 230.668 336.277V336.133C230.668 335.113 230.446 334.345 230.002 333.829C229.558 333.301 228.934 333.037 228.13 333.037C227.326 333.037 226.702 333.313 226.258 333.865C225.814 334.405 225.592 335.179 225.592 336.187V336.331C225.592 337.327 225.814 338.089 226.258 338.617C226.714 339.133 227.308 339.391 228.04 339.391ZM235.416 340.939V331.525H237.594V340.939H235.416ZM237.396 329.617C237.144 329.857 236.838 329.977 236.478 329.977C236.118 329.977 235.812 329.857 235.56 329.617C235.308 329.377 235.182 329.083 235.182 328.735C235.182 328.375 235.308 328.075 235.56 327.835C235.812 327.595 236.118 327.475 236.478 327.475C236.838 327.475 237.144 327.595 237.396 327.835C237.648 328.075 237.774 328.375 237.774 328.735C237.774 329.083 237.648 329.377 237.396 329.617ZM243.777 341.119C242.553 341.119 241.557 340.705 240.789 339.877C240.021 339.037 239.637 337.873 239.637 336.385V336.241C239.637 334.753 240.033 333.565 240.825 332.677C241.617 331.777 242.631 331.327 243.867 331.327C245.259 331.327 246.261 331.873 246.873 332.965V327.169H249.051V340.939H246.873V339.355C246.609 339.847 246.189 340.267 245.613 340.615C245.049 340.951 244.437 341.119 243.777 341.119ZM244.317 339.391C245.109 339.391 245.745 339.127 246.225 338.599C246.705 338.071 246.945 337.297 246.945 336.277V336.133C246.945 335.113 246.723 334.345 246.279 333.829C245.835 333.301 245.211 333.037 244.407 333.037C243.603 333.037 242.979 333.313 242.535 333.865C242.091 334.405 241.869 335.179 241.869 336.187V336.331C241.869 337.327 242.091 338.089 242.535 338.617C242.991 339.133 243.585 339.391 244.317 339.391ZM255.929 340.939V331.525H258.107V333.019C258.347 332.527 258.731 332.125 259.259 331.813C259.787 331.489 260.417 331.327 261.149 331.327C262.145 331.327 262.931 331.633 263.507 332.245C264.083 332.845 264.371 333.769 264.371 335.017V340.939H262.193V335.215C262.193 334.507 262.043 333.985 261.743 333.649C261.443 333.313 260.969 333.145 260.321 333.145C259.673 333.145 259.139 333.343 258.719 333.739C258.311 334.123 258.107 334.675 258.107 335.395V340.939H255.929ZM271.092 339.427C271.896 339.427 272.526 339.151 272.982 338.599C273.45 338.035 273.684 337.267 273.684 336.295V336.169C273.684 335.197 273.45 334.435 272.982 333.883C272.526 333.319 271.896 333.037 271.092 333.037C270.276 333.037 269.634 333.313 269.166 333.865C268.71 334.417 268.482 335.179 268.482 336.151V336.295C268.482 337.267 268.71 338.035 269.166 338.599C269.634 339.151 270.276 339.427 271.092 339.427ZM274.548 339.787C273.636 340.675 272.478 341.119 271.074 341.119C269.67 341.119 268.512 340.675 267.6 339.787C266.7 338.899 266.25 337.747 266.25 336.331V336.187C266.25 334.747 266.706 333.577 267.618 332.677C268.53 331.777 269.688 331.327 271.092 331.327C272.484 331.327 273.636 331.771 274.548 332.659C275.46 333.547 275.916 334.705 275.916 336.133V336.277C275.916 337.729 275.46 338.899 274.548 339.787ZM281.088 341.101C280.164 341.101 279.456 340.861 278.964 340.381C278.484 339.901 278.244 339.211 278.244 338.311V333.163H276.984V331.525H278.244V329.455H280.422V331.525H282.492V333.163H280.422V338.113C280.422 338.917 280.782 339.319 281.502 339.319C281.922 339.319 282.276 339.259 282.564 339.139V340.867C282.144 341.023 281.652 341.101 281.088 341.101ZM291.283 341.119C290.359 341.119 289.603 340.891 289.015 340.435C288.427 339.967 288.133 339.265 288.133 338.329C288.133 337.297 288.571 336.541 289.447 336.061C290.323 335.581 291.493 335.341 292.957 335.341H294.127V334.855C294.127 334.207 293.995 333.733 293.731 333.433C293.479 333.121 293.041 332.965 292.417 332.965C291.325 332.965 290.725 333.457 290.617 334.441H288.511C288.595 333.397 289.003 332.617 289.735 332.101C290.479 331.585 291.415 331.327 292.543 331.327C295.051 331.327 296.305 332.473 296.305 334.765V340.939H294.163V339.787C293.491 340.675 292.531 341.119 291.283 341.119ZM291.805 339.553C292.489 339.553 293.047 339.385 293.479 339.049C293.911 338.701 294.127 338.233 294.127 337.645V336.709H293.011C291.199 336.709 290.293 337.219 290.293 338.239C290.293 339.115 290.797 339.553 291.805 339.553ZM298.802 340.939V331.525H300.98V333.289C301.604 332.029 302.624 331.393 304.04 331.381V333.415C303.02 333.427 302.252 333.631 301.736 334.027C301.232 334.423 300.98 335.095 300.98 336.043V340.939H298.802ZM305.956 340.939V331.525H308.134V333.289C308.758 332.029 309.778 331.393 311.194 331.381V333.415C310.174 333.427 309.406 333.631 308.89 334.027C308.386 334.423 308.134 335.095 308.134 336.043V340.939H305.956ZM313.164 340.939V331.525H315.342V340.939H313.164ZM315.144 329.617C314.892 329.857 314.586 329.977 314.226 329.977C313.866 329.977 313.56 329.857 313.308 329.617C313.056 329.377 312.93 329.083 312.93 328.735C312.93 328.375 313.056 328.075 313.308 327.835C313.56 327.595 313.866 327.475 314.226 327.475C314.586 327.475 314.892 327.595 315.144 327.835C315.396 328.075 315.522 328.375 315.522 328.735C315.522 329.083 315.396 329.377 315.144 329.617ZM320.463 340.939L317.025 331.525H319.365L321.831 338.707L324.261 331.525H326.403L323.001 340.939H320.463ZM331.805 341.119C330.401 341.119 329.255 340.687 328.367 339.823C327.479 338.959 327.035 337.795 327.035 336.331V336.187C327.035 334.747 327.473 333.577 328.349 332.677C329.237 331.777 330.359 331.327 331.715 331.327C332.987 331.327 334.043 331.723 334.883 332.515C335.735 333.307 336.161 334.495 336.161 336.079V336.709H329.267C329.303 337.609 329.543 338.299 329.987 338.779C330.431 339.259 331.055 339.499 331.859 339.499C333.131 339.499 333.851 339.019 334.019 338.059H336.125C335.969 339.043 335.513 339.799 334.757 340.327C334.001 340.855 333.017 341.119 331.805 341.119ZM329.303 335.251H334.001C333.893 333.691 333.131 332.911 331.715 332.911C331.067 332.911 330.527 333.121 330.095 333.541C329.675 333.949 329.411 334.519 329.303 335.251Z" fill="black"/>
<path fill-rule="evenodd" clip-rule="evenodd" d="M353.293 339.646C352.902 339.255 352.902 338.622 353.293 338.231L356.586 334.939L353.293 331.646C352.902 331.255 352.902 330.622 353.293 330.231C353.683 329.841 354.317 329.841 354.707 330.231L358.707 334.231C359.098 334.622 359.098 335.255 358.707 335.646L354.707 339.646C354.317 340.036 353.683 340.036 353.293 339.646Z" fill="#1A1A1A"/>
<rect x="33" y="292.939" width="364" height="84" rx="4" stroke="black" shape-rendering="crispEdges"/>
</g>
<rect x="1" y="0.938591" width="460" height="408" rx="4" stroke="black" shape-rendering="crispEdges"/>
</g>
<defs>
<filter id="filter0_d_3035_9254" x="0.5" y="0.438591" width="464" height="413" filterUnits="userSpaceOnUse" color-interpolation-filters="sRGB">
<feFlood flood-opacity="0" result="BackgroundImageFix"/>
<feColorMatrix in="SourceAlpha" type="matrix" values="0 0 0 0 0 0 0 0 0 0 0 0 0 0 0 0 0 0 127 0" result="hardAlpha"/>
<feOffset dx="3" dy="4"/>
<feComposite in2="hardAlpha" operator="out"/>
<feColorMatrix type="matrix" values="0 0 0 0 0 0 0 0 0 0 0 0 0 0 0 0 0 0 1 0"/>
<feBlend mode="normal" in2="BackgroundImageFix" result="effect1_dropShadow_3035_9254"/>
<feBlend mode="normal" in="SourceGraphic" in2="effect1_dropShadow_3035_9254" result="shape"/>
</filter>
<filter id="filter1_d_3035_9254" x="32.5" y="76.4386" width="341" height="89" filterUnits="userSpaceOnUse" color-interpolation-filters="sRGB">
<feFlood flood-opacity="0" result="BackgroundImageFix"/>
<feColorMatrix in="SourceAlpha" type="matrix" values="0 0 0 0 0 0 0 0 0 0 0 0 0 0 0 0 0 0 127 0" result="hardAlpha"/>
<feOffset dx="3" dy="4"/>
<feComposite in2="hardAlpha" operator="out"/>
<feColorMatrix type="matrix" values="0 0 0 0 0 0 0 0 0 0 0 0 0 0 0 0 0 0 1 0"/>
<feBlend mode="normal" in2="BackgroundImageFix" result="effect1_dropShadow_3035_9254"/>
<feBlend mode="normal" in="SourceGraphic" in2="effect1_dropShadow_3035_9254" result="shape"/>
</filter>
<filter id="filter2_d_3035_9254" x="32.5" y="184.439" width="400" height="89" filterUnits="userSpaceOnUse" color-interpolation-filters="sRGB">
<feFlood flood-opacity="0" result="BackgroundImageFix"/>
<feColorMatrix in="SourceAlpha" type="matrix" values="0 0 0 0 0 0 0 0 0 0 0 0 0 0 0 0 0 0 127 0" result="hardAlpha"/>
<feOffset dx="3" dy="4"/>
<feComposite in2="hardAlpha" operator="out"/>
<feColorMatrix type="matrix" values="0 0 0 0 0.992157 0 0 0 0 0.976471 0 0 0 0 0.788235 0 0 0 1 0"/>
<feBlend mode="normal" in2="BackgroundImageFix" result="effect1_dropShadow_3035_9254"/>
<feBlend mode="normal" in="SourceGraphic" in2="effect1_dropShadow_3035_9254" result="shape"/>
</filter>
<filter id="filter3_d_3035_9254" x="32.5" y="292.439" width="368" height="89" filterUnits="userSpaceOnUse" color-interpolation-filters="sRGB">
<feFlood flood-opacity="0" result="BackgroundImageFix"/>
<feColorMatrix in="SourceAlpha" type="matrix" values="0 0 0 0 0 0 0 0 0 0 0 0 0 0 0 0 0 0 127 0" result="hardAlpha"/>
<feOffset dx="3" dy="4"/>
<feComposite in2="hardAlpha" operator="out"/>
<feColorMatrix type="matrix" values="0 0 0 0 0 0 0 0 0 0 0 0 0 0 0 0 0 0 1 0"/>
<feBlend mode="normal" in2="BackgroundImageFix" result="effect1_dropShadow_3035_9254"/>
<feBlend mode="normal" in="SourceGraphic" in2="effect1_dropShadow_3035_9254" result="shape"/>
</filter>
</defs>
</svg>
