<svg width="445" height="201" viewBox="0 0 445 201" fill="none" xmlns="http://www.w3.org/2000/svg">
<g filter="url(#filter0_d_3035_9244)">
<rect x="1" y="0.938591" width="440" height="195" rx="4" fill="white" shape-rendering="crispEdges"/>
<path d="M34.968 53.9386V36.7786H38.784L46.008 49.1866V36.7786H48.912V53.9386H45.6L37.872 40.7866V53.9386H34.968ZM58.0136 54.1786C56.1416 54.1786 54.6136 53.6026 53.4296 52.4506C52.2456 51.2986 51.6536 49.7466 51.6536 47.7946V47.6026C51.6536 45.6826 52.2376 44.1226 53.4056 42.9226C54.5896 41.7226 56.0856 41.1226 57.8936 41.1226C59.5896 41.1226 60.9976 41.6506 62.1176 42.7066C63.2536 43.7626 63.8216 45.3466 63.8216 47.4586V48.2986H54.6296C54.6776 49.4986 54.9976 50.4186 55.5896 51.0586C56.1816 51.6986 57.0136 52.0186 58.0856 52.0186C59.7816 52.0186 60.7416 51.3786 60.9656 50.0986H63.7736C63.5656 51.4106 62.9576 52.4186 61.9496 53.1226C60.9416 53.8266 59.6296 54.1786 58.0136 54.1786ZM54.6776 46.3546H60.9416C60.7976 44.2746 59.7816 43.2346 57.8936 43.2346C57.0296 43.2346 56.3096 43.5146 55.7336 44.0746C55.1736 44.6186 54.8216 45.3786 54.6776 46.3546ZM68.7731 53.9386L64.9331 41.3866H68.0291L70.5251 50.4586L73.1891 41.3866H75.6131L78.0611 50.4586L80.6771 41.3866H83.5091L79.5731 53.9386H76.6211L74.2931 45.4906L71.7491 53.9386H68.7731ZM96.7988 58.5466C94.9268 58.5466 93.4948 58.1706 92.5028 57.4186C91.5108 56.6666 90.9268 55.6506 90.7508 54.3706H93.6788C93.9348 55.6826 94.9668 56.3386 96.7747 56.3386C99.1108 56.3386 100.279 55.2106 100.279 52.9546V51.1066C99.9108 51.7466 99.3508 52.2986 98.5988 52.7626C97.8628 53.2106 97.0548 53.4346 96.1748 53.4346C94.5748 53.4346 93.2468 52.8826 92.1908 51.7786C91.1348 50.6746 90.6068 49.2346 90.6068 47.4586V47.2906C90.6068 45.5306 91.1428 44.0666 92.2148 42.8986C93.2868 41.7146 94.6308 41.1226 96.2468 41.1226C98.1028 41.1226 99.4468 41.8506 100.279 43.3066V41.3866H103.183V53.0026C103.167 54.8106 102.591 56.1866 101.455 57.1306C100.335 58.0746 98.7828 58.5466 96.7988 58.5466ZM96.8948 51.2026C97.9188 51.2026 98.7508 50.8586 99.3908 50.1706C100.047 49.4826 100.375 48.5466 100.375 47.3626V47.1946C100.375 46.0106 100.071 45.0826 99.4628 44.4106C98.8548 43.7386 98.0308 43.4026 96.9908 43.4026C95.9348 43.4026 95.1028 43.7546 94.4948 44.4586C93.8868 45.1626 93.5828 46.0906 93.5828 47.2426V47.4346C93.5828 48.5706 93.8948 49.4826 94.5188 50.1706C95.1428 50.8586 95.9348 51.2026 96.8948 51.2026ZM106.706 53.9386V41.3866H109.61V53.9386H106.706ZM109.346 38.8426C109.01 39.1626 108.602 39.3226 108.122 39.3226C107.642 39.3226 107.234 39.1626 106.898 38.8426C106.562 38.5226 106.394 38.1306 106.394 37.6666C106.394 37.1866 106.562 36.7866 106.898 36.4666C107.234 36.1466 107.642 35.9866 108.122 35.9866C108.602 35.9866 109.01 36.1466 109.346 36.4666C109.682 36.7866 109.85 37.1866 109.85 37.6666C109.85 38.1306 109.682 38.5226 109.346 38.8426ZM113.654 53.9386V43.5706H111.95V41.3866H113.654V39.7066C113.654 38.3306 114.022 37.2826 114.758 36.5626C115.494 35.8266 116.534 35.4586 117.878 35.4586C118.486 35.4586 119.038 35.5386 119.534 35.6986V37.9546C119.134 37.8106 118.694 37.7386 118.214 37.7386C117.11 37.7386 116.558 38.3546 116.558 39.5866V41.3866H119.414V43.5706H116.558V53.9386H113.654ZM126.234 54.1546C125.002 54.1546 124.058 53.8346 123.402 53.1946C122.762 52.5546 122.442 51.6346 122.442 50.4346V43.5706H120.762V41.3866H122.442V38.6266H125.346V41.3866H128.106V43.5706H125.346V50.1706C125.346 51.2426 125.826 51.7786 126.786 51.7786C127.346 51.7786 127.818 51.6986 128.202 51.5386V53.8426C127.642 54.0506 126.986 54.1546 126.234 54.1546ZM136.342 54.1786C134.47 54.1786 132.942 53.6026 131.758 52.4506C130.574 51.2986 129.982 49.7466 129.982 47.7946V47.6026C129.982 45.6826 130.566 44.1226 131.734 42.9226C132.918 41.7226 134.414 41.1226 136.222 41.1226C137.918 41.1226 139.326 41.6506 140.446 42.7066C141.582 43.7626 142.15 45.3466 142.15 47.4586V48.2986H132.958C133.006 49.4986 133.326 50.4186 133.918 51.0586C134.51 51.6986 135.342 52.0186 136.414 52.0186C138.11 52.0186 139.07 51.3786 139.294 50.0986H142.102C141.894 51.4106 141.286 52.4186 140.278 53.1226C139.27 53.8266 137.958 54.1786 136.342 54.1786ZM133.006 46.3546H139.27C139.126 44.2746 138.11 43.2346 136.222 43.2346C135.358 43.2346 134.638 43.5146 134.062 44.0746C133.502 44.6186 133.15 45.3786 133.006 46.3546ZM149.448 54.1786C147.816 54.1786 146.488 53.6266 145.464 52.5226C144.44 51.4026 143.928 49.8506 143.928 47.8666V47.6746C143.928 45.6906 144.456 44.1066 145.512 42.9226C146.568 41.7226 147.92 41.1226 149.568 41.1226C151.424 41.1226 152.76 41.8506 153.576 43.3066V35.5786H156.48V53.9386H153.576V51.8266C153.224 52.4826 152.664 53.0426 151.896 53.5066C151.144 53.9546 150.328 54.1786 149.448 54.1786ZM150.168 51.8746C151.224 51.8746 152.072 51.5226 152.712 50.8186C153.352 50.1146 153.672 49.0826 153.672 47.7226V47.5306C153.672 46.1706 153.376 45.1466 152.784 44.4586C152.192 43.7546 151.36 43.4026 150.288 43.4026C149.216 43.4026 148.384 43.7706 147.792 44.5066C147.2 45.2266 146.904 46.2586 146.904 47.6026V47.7946C146.904 49.1226 147.2 50.1386 147.792 50.8426C148.4 51.5306 149.192 51.8746 150.168 51.8746ZM165.722 53.9386V41.3866H168.626V53.9386H165.722ZM168.362 38.8426C168.026 39.1626 167.618 39.3226 167.138 39.3226C166.658 39.3226 166.25 39.1626 165.914 38.8426C165.578 38.5226 165.41 38.1306 165.41 37.6666C165.41 37.1866 165.578 36.7866 165.914 36.4666C166.25 36.1466 166.658 35.9866 167.138 35.9866C167.618 35.9866 168.026 36.1466 168.362 36.4666C168.698 36.7866 168.866 37.1866 168.866 37.6666C168.866 38.1306 168.698 38.5226 168.362 38.8426ZM176.438 54.1546C175.206 54.1546 174.262 53.8346 173.605 53.1946C172.966 52.5546 172.646 51.6346 172.646 50.4346V43.5706H170.966V41.3866H172.646V38.6266H175.55V41.3866H178.31V43.5706H175.55V50.1706C175.55 51.2426 176.03 51.7786 176.99 51.7786C177.55 51.7786 178.022 51.6986 178.406 51.5386V53.8426C177.846 54.0506 177.19 54.1546 176.438 54.1546ZM186.545 54.1786C184.673 54.1786 183.145 53.6026 181.961 52.4506C180.777 51.2986 180.185 49.7466 180.185 47.7946V47.6026C180.185 45.6826 180.769 44.1226 181.937 42.9226C183.121 41.7226 184.617 41.1226 186.425 41.1226C188.121 41.1226 189.529 41.6506 190.649 42.7066C191.785 43.7626 192.353 45.3466 192.353 47.4586V48.2986H183.161C183.209 49.4986 183.529 50.4186 184.121 51.0586C184.713 51.6986 185.545 52.0186 186.617 52.0186C188.313 52.0186 189.273 51.3786 189.497 50.0986H192.305C192.097 51.4106 191.489 52.4186 190.481 53.1226C189.473 53.8266 188.161 54.1786 186.545 54.1786ZM183.209 46.3546H189.473C189.329 44.2746 188.313 43.2346 186.425 43.2346C185.561 43.2346 184.841 43.5146 184.265 44.0746C183.705 44.6186 183.353 45.3786 183.209 46.3546ZM194.947 53.9386V41.3866H197.851V43.3066C198.171 42.6826 198.667 42.1626 199.339 41.7466C200.011 41.3306 200.787 41.1226 201.667 41.1226C203.427 41.1226 204.611 41.8746 205.219 43.3786C205.683 42.6426 206.299 42.0826 207.067 41.6986C207.835 41.3146 208.635 41.1226 209.467 41.1226C210.699 41.1226 211.699 41.5306 212.467 42.3466C213.251 43.1466 213.643 44.3626 213.643 45.9946V53.9386H210.739V46.1866C210.739 44.4266 209.995 43.5466 208.507 43.5466C207.739 43.5466 207.083 43.8026 206.539 44.3146C206.011 44.8106 205.747 45.5146 205.747 46.4266V53.9386H202.843V46.1866C202.843 44.4266 202.099 43.5466 200.611 43.5466C199.843 43.5466 199.187 43.8026 198.643 44.3146C198.115 44.8106 197.851 45.5146 197.851 46.4266V53.9386H194.947Z" fill="black"/>
<path d="M34.62 78.0686H36.186V83.9006H42.954V78.0686H44.52V90.9386H42.954V85.2146H36.186V90.9386H34.62V78.0686ZM51.5124 91.1006C50.8524 91.1006 50.2404 90.9866 49.6764 90.7586C49.1244 90.5306 48.6444 90.2126 48.2364 89.8046C47.8284 89.3846 47.5104 88.8806 47.2824 88.2926C47.0664 87.7046 46.9584 87.0506 46.9584 86.3306V86.1866C46.9584 85.4786 47.0664 84.8306 47.2824 84.2426C47.4984 83.6426 47.7984 83.1326 48.1824 82.7126C48.5784 82.2806 49.0464 81.9506 49.5864 81.7226C50.1264 81.4826 50.7204 81.3626 51.3684 81.3626C51.9084 81.3626 52.4304 81.4526 52.9344 81.6326C53.4504 81.8006 53.9064 82.0706 54.3024 82.4426C54.6984 82.8146 55.0104 83.3006 55.2384 83.9006C55.4784 84.4886 55.5984 85.2026 55.5984 86.0426V86.5286H48.5064C48.5424 87.6086 48.8124 88.4366 49.3164 89.0126C49.8204 89.5766 50.5584 89.8586 51.5304 89.8586C53.0064 89.8586 53.8404 89.3126 54.0324 88.2206H55.5264C55.3584 89.1686 54.9144 89.8886 54.1944 90.3806C53.4744 90.8606 52.5804 91.1006 51.5124 91.1006ZM54.0684 85.3226C53.9964 84.3506 53.7204 83.6546 53.2404 83.2346C52.7724 82.8146 52.1484 82.6046 51.3684 82.6046C50.6004 82.6046 49.9704 82.8506 49.4784 83.3426C48.9984 83.8226 48.6924 84.4826 48.5604 85.3226H54.0684ZM60.431 89.9666L56.741 81.5246H58.343L61.223 88.2746L63.833 81.5246H65.363L60.161 94.2146H58.649L60.431 89.9666ZM77.584 91.1006C76.648 91.1006 75.808 90.9506 75.064 90.6506C74.332 90.3386 73.702 89.9006 73.174 89.3366C72.658 88.7606 72.262 88.0706 71.986 87.2666C71.71 86.4626 71.572 85.5686 71.572 84.5846V84.4406C71.572 83.4806 71.722 82.6046 72.022 81.8126C72.322 81.0086 72.742 80.3126 73.282 79.7246C73.822 79.1366 74.458 78.6806 75.19 78.3566C75.934 78.0326 76.744 77.8706 77.62 77.8706C78.292 77.8706 78.928 77.9606 79.528 78.1406C80.128 78.3206 80.662 78.5846 81.13 78.9326C81.598 79.2806 81.982 79.7186 82.282 80.2466C82.582 80.7746 82.768 81.3866 82.84 82.0826H81.292C81.124 81.0986 80.746 80.3606 80.158 79.8686C79.582 79.3646 78.742 79.1126 77.638 79.1126C76.978 79.1126 76.372 79.2386 75.82 79.4906C75.268 79.7426 74.8 80.0966 74.416 80.5526C74.032 81.0086 73.732 81.5666 73.516 82.2266C73.3 82.8746 73.192 83.6066 73.192 84.4226V84.5666C73.192 85.3826 73.294 86.1206 73.498 86.7806C73.702 87.4286 73.99 87.9806 74.362 88.4366C74.746 88.8806 75.208 89.2226 75.748 89.4626C76.3 89.7026 76.924 89.8226 77.62 89.8226C78.676 89.8226 79.546 89.5646 80.23 89.0486C80.914 88.5206 81.34 87.7286 81.508 86.6726H82.966C82.738 88.1606 82.144 89.2706 81.184 90.0026C80.224 90.7346 79.024 91.1006 77.584 91.1006ZM85.2425 77.0246H86.7365V83.0186C86.9525 82.5746 87.3125 82.1906 87.8165 81.8666C88.3325 81.5306 88.9805 81.3626 89.7605 81.3626C90.2525 81.3626 90.6965 81.4346 91.0925 81.5786C91.5005 81.7106 91.8485 81.9326 92.1365 82.2446C92.4365 82.5446 92.6645 82.9346 92.8205 83.4146C92.9885 83.8946 93.0725 84.4766 93.0725 85.1606V90.9386H91.5785V85.0526C91.5785 84.2246 91.3985 83.6186 91.0385 83.2346C90.6785 82.8506 90.1205 82.6586 89.3645 82.6586C89.0165 82.6586 88.6805 82.7126 88.3565 82.8206C88.0445 82.9286 87.7685 83.0906 87.5285 83.3066C87.2885 83.5226 87.0965 83.7926 86.9525 84.1166C86.8085 84.4406 86.7365 84.8126 86.7365 85.2326V90.9386H85.2425V77.0246ZM98.3583 91.1006C97.9263 91.1006 97.5183 91.0466 97.1343 90.9386C96.7503 90.8306 96.4143 90.6626 96.1263 90.4346C95.8503 90.2066 95.6283 89.9186 95.4603 89.5706C95.3043 89.2226 95.2263 88.8086 95.2263 88.3286C95.2263 87.7886 95.3583 87.3326 95.6223 86.9606C95.8863 86.5886 96.2343 86.2886 96.6663 86.0606C97.1103 85.8326 97.6143 85.6706 98.1783 85.5746C98.7543 85.4666 99.3423 85.4126 99.9423 85.4126H101.292V84.7286C101.292 83.9726 101.136 83.4326 100.824 83.1086C100.512 82.7726 99.9963 82.6046 99.2763 82.6046C97.9803 82.6046 97.2603 83.1686 97.1163 84.2966H95.6223C95.6703 83.7566 95.8023 83.3006 96.0183 82.9286C96.2463 82.5566 96.5283 82.2566 96.8643 82.0286C97.2123 81.7886 97.5963 81.6206 98.0163 81.5246C98.4483 81.4166 98.8923 81.3626 99.3483 81.3626C99.8043 81.3626 100.236 81.4166 100.644 81.5246C101.064 81.6206 101.43 81.8006 101.742 82.0646C102.054 82.3166 102.306 82.6586 102.498 83.0906C102.69 83.5226 102.786 84.0686 102.786 84.7286V90.9386H101.292V89.7506C100.944 90.1946 100.542 90.5306 100.086 90.7586C99.6303 90.9866 99.0543 91.1006 98.3583 91.1006ZM98.5023 89.9126C98.8983 89.9126 99.2643 89.8646 99.6003 89.7686C99.9483 89.6606 100.242 89.5106 100.482 89.3186C100.734 89.1266 100.932 88.8926 101.076 88.6166C101.22 88.3286 101.292 88.0046 101.292 87.6446V86.4746H99.9963C99.5283 86.4746 99.0903 86.5106 98.6823 86.5826C98.2863 86.6426 97.9383 86.7446 97.6383 86.8886C97.3503 87.0326 97.1223 87.2246 96.9543 87.4646C96.7983 87.6926 96.7203 87.9806 96.7203 88.3286C96.7203 88.8206 96.8523 89.2106 97.1163 89.4986C97.3803 89.7746 97.8423 89.9126 98.5023 89.9126ZM105.721 81.5246H107.215V83.2166C107.515 82.6886 107.893 82.2566 108.349 81.9206C108.817 81.5726 109.471 81.3866 110.311 81.3626V82.7666C109.843 82.7906 109.417 82.8506 109.033 82.9466C108.649 83.0426 108.319 83.2046 108.043 83.4326C107.779 83.6606 107.575 83.9666 107.431 84.3506C107.287 84.7226 107.215 85.1966 107.215 85.7726V90.9386H105.721V81.5246ZM112.525 77.0246H114.037V90.9386H112.525V77.0246ZM117.13 81.5246H118.624V90.9386H117.13V81.5246ZM117.85 79.5626C117.574 79.5626 117.34 79.4666 117.148 79.2746C116.956 79.0826 116.86 78.8486 116.86 78.5726C116.86 78.2966 116.956 78.0626 117.148 77.8706C117.34 77.6786 117.574 77.5826 117.85 77.5826C118.126 77.5826 118.36 77.6786 118.552 77.8706C118.744 78.0626 118.84 78.2966 118.84 78.5726C118.84 78.8486 118.744 79.0826 118.552 79.2746C118.36 79.4666 118.126 79.5626 117.85 79.5626ZM125.534 91.1006C124.874 91.1006 124.262 90.9866 123.698 90.7586C123.146 90.5306 122.666 90.2126 122.258 89.8046C121.85 89.3846 121.532 88.8806 121.304 88.2926C121.088 87.7046 120.98 87.0506 120.98 86.3306V86.1866C120.98 85.4786 121.088 84.8306 121.304 84.2426C121.52 83.6426 121.82 83.1326 122.204 82.7126C122.6 82.2806 123.068 81.9506 123.608 81.7226C124.148 81.4826 124.742 81.3626 125.39 81.3626C125.93 81.3626 126.452 81.4526 126.956 81.6326C127.472 81.8006 127.928 82.0706 128.324 82.4426C128.72 82.8146 129.032 83.3006 129.26 83.9006C129.5 84.4886 129.62 85.2026 129.62 86.0426V86.5286H122.528C122.564 87.6086 122.834 88.4366 123.338 89.0126C123.842 89.5766 124.58 89.8586 125.552 89.8586C127.028 89.8586 127.862 89.3126 128.054 88.2206H129.548C129.38 89.1686 128.936 89.8886 128.216 90.3806C127.496 90.8606 126.602 91.1006 125.534 91.1006ZM128.09 85.3226C128.018 84.3506 127.742 83.6546 127.262 83.2346C126.794 82.8146 126.17 82.6046 125.39 82.6046C124.622 82.6046 123.992 82.8506 123.5 83.3426C123.02 83.8226 122.714 84.4826 122.582 85.3226H128.09ZM130.961 92.6486L132.688 88.7066L134.147 89.3906L131.933 93.1526L130.961 92.6486ZM146.006 91.1186C144.326 91.1186 143.066 90.7466 142.226 90.0026C141.398 89.2586 140.936 88.2386 140.84 86.9426H143.144C143.24 87.6986 143.492 88.2866 143.9 88.7066C144.308 89.1146 145.01 89.3186 146.006 89.3186C146.726 89.3186 147.308 89.1386 147.752 88.7786C148.208 88.4066 148.436 87.9266 148.436 87.3386C148.436 86.7386 148.25 86.3006 147.878 86.0246C147.506 85.7486 146.798 85.5266 145.754 85.3586C144.158 85.1426 143 84.7586 142.28 84.2066C141.572 83.6426 141.218 82.7726 141.218 81.5966C141.218 80.5286 141.632 79.6466 142.46 78.9506C143.288 78.2546 144.368 77.9066 145.7 77.9066C147.092 77.9066 148.19 78.2246 148.994 78.8606C149.798 79.4846 150.26 80.4086 150.38 81.6326H148.184C148.064 80.9606 147.806 80.4746 147.41 80.1746C147.014 79.8626 146.444 79.7066 145.7 79.7066C144.992 79.7066 144.446 79.8626 144.062 80.1746C143.678 80.4746 143.486 80.8826 143.486 81.3986C143.486 81.9506 143.66 82.3646 144.008 82.6406C144.368 82.9166 145.082 83.1326 146.15 83.2886C147.746 83.5046 148.91 83.8946 149.642 84.4586C150.374 85.0106 150.74 85.9046 150.74 87.1406C150.74 88.2806 150.302 89.2286 149.426 89.9846C148.55 90.7406 147.41 91.1186 146.006 91.1186ZM152.932 90.9386V81.5246H155.11V90.9386H152.932ZM154.912 79.6166C154.66 79.8566 154.354 79.9766 153.994 79.9766C153.634 79.9766 153.328 79.8566 153.076 79.6166C152.824 79.3766 152.698 79.0826 152.698 78.7346C152.698 78.3746 152.824 78.0746 153.076 77.8346C153.328 77.5946 153.634 77.4746 153.994 77.4746C154.354 77.4746 154.66 77.5946 154.912 77.8346C155.164 78.0746 155.29 78.3746 155.29 78.7346C155.29 79.0826 155.164 79.3766 154.912 79.6166ZM157.819 90.9386V77.1686H159.997V90.9386H157.819ZM162.651 90.9386V77.1686H164.829V85.6646L168.195 81.5246H170.571L166.917 85.8446L170.877 90.9386H168.357L164.829 86.3126V90.9386H162.651ZM187.695 84.2786L185.589 88.3106L187.749 90.9386H184.995L183.915 89.6246C182.955 90.6086 181.779 91.1006 180.387 91.1006C179.127 91.1006 178.107 90.7706 177.327 90.1106C176.547 89.4386 176.157 88.5446 176.157 87.4286C176.157 86.5406 176.403 85.7966 176.895 85.1966C177.399 84.5846 178.119 84.0566 179.055 83.6126C178.383 82.7246 178.047 81.8786 178.047 81.0746C178.047 80.1026 178.389 79.3406 179.073 78.7886C179.757 78.2366 180.597 77.9606 181.593 77.9606C182.505 77.9606 183.273 78.2186 183.897 78.7346C184.521 79.2386 184.833 79.9106 184.833 80.7506C184.833 82.1666 183.939 83.2586 182.151 84.0266L184.419 86.7986L185.733 84.2786H187.695ZM180.639 89.3006C181.479 89.3006 182.199 88.9466 182.799 88.2386L180.063 84.9086C179.523 85.1846 179.115 85.4966 178.839 85.8446C178.563 86.1806 178.425 86.6306 178.425 87.1946C178.425 87.8426 178.617 88.3586 179.001 88.7426C179.397 89.1146 179.943 89.3006 180.639 89.3006ZM180.171 81.0926C180.171 81.5726 180.495 82.2026 181.143 82.9826C181.755 82.6946 182.193 82.3886 182.457 82.0646C182.721 81.7406 182.853 81.3326 182.853 80.8406C182.853 80.4686 182.733 80.1626 182.493 79.9226C182.265 79.6826 181.965 79.5626 181.593 79.5626C181.173 79.5626 180.831 79.6946 180.567 79.9586C180.303 80.2226 180.171 80.6006 180.171 81.0926ZM198.389 91.1186C196.709 91.1186 195.449 90.7466 194.609 90.0026C193.781 89.2586 193.319 88.2386 193.223 86.9426H195.527C195.623 87.6986 195.875 88.2866 196.283 88.7066C196.691 89.1146 197.393 89.3186 198.389 89.3186C199.109 89.3186 199.691 89.1386 200.135 88.7786C200.591 88.4066 200.819 87.9266 200.819 87.3386C200.819 86.7386 200.633 86.3006 200.261 86.0246C199.889 85.7486 199.181 85.5266 198.137 85.3586C196.541 85.1426 195.383 84.7586 194.663 84.2066C193.955 83.6426 193.601 82.7726 193.601 81.5966C193.601 80.5286 194.015 79.6466 194.843 78.9506C195.671 78.2546 196.751 77.9066 198.083 77.9066C199.475 77.9066 200.573 78.2246 201.377 78.8606C202.181 79.4846 202.643 80.4086 202.763 81.6326H200.567C200.447 80.9606 200.189 80.4746 199.793 80.1746C199.397 79.8626 198.827 79.7066 198.083 79.7066C197.375 79.7066 196.829 79.8626 196.445 80.1746C196.061 80.4746 195.869 80.8826 195.869 81.3986C195.869 81.9506 196.043 82.3646 196.391 82.6406C196.751 82.9166 197.465 83.1326 198.533 83.2886C200.129 83.5046 201.293 83.8946 202.025 84.4586C202.757 85.0106 203.123 85.9046 203.123 87.1406C203.123 88.2806 202.685 89.2286 201.809 89.9846C200.933 90.7406 199.793 91.1186 198.389 91.1186ZM209.473 89.4266C210.277 89.4266 210.907 89.1506 211.363 88.5986C211.831 88.0346 212.065 87.2666 212.065 86.2946V86.1686C212.065 85.1966 211.831 84.4346 211.363 83.8826C210.907 83.3186 210.277 83.0366 209.473 83.0366C208.657 83.0366 208.015 83.3126 207.547 83.8646C207.091 84.4166 206.863 85.1786 206.863 86.1506V86.2946C206.863 87.2666 207.091 88.0346 207.547 88.5986C208.015 89.1506 208.657 89.4266 209.473 89.4266ZM212.929 89.7866C212.017 90.6746 210.859 91.1186 209.455 91.1186C208.051 91.1186 206.893 90.6746 205.981 89.7866C205.081 88.8986 204.631 87.7466 204.631 86.3306V86.1866C204.631 84.7466 205.087 83.5766 205.999 82.6766C206.911 81.7766 208.069 81.3266 209.473 81.3266C210.865 81.3266 212.017 81.7706 212.929 82.6586C213.841 83.5466 214.297 84.7046 214.297 86.1326V86.2766C214.297 87.7286 213.841 88.8986 212.929 89.7866ZM216.265 90.9386V81.5246H218.443V83.0186C218.683 82.5266 219.067 82.1246 219.595 81.8126C220.123 81.4886 220.753 81.3266 221.485 81.3266C222.481 81.3266 223.267 81.6326 223.843 82.2446C224.419 82.8446 224.707 83.7686 224.707 85.0166V90.9386H222.529V85.2146C222.529 84.5066 222.379 83.9846 222.079 83.6486C221.779 83.3126 221.305 83.1446 220.657 83.1446C220.009 83.1446 219.475 83.3426 219.055 83.7386C218.647 84.1226 218.443 84.6746 218.443 85.3946V90.9386H216.265ZM230.438 91.1186C229.226 91.1186 228.278 90.8486 227.594 90.3086C226.91 89.7686 226.544 89.0006 226.496 88.0046H228.548C228.608 88.5086 228.782 88.8866 229.07 89.1386C229.358 89.3906 229.808 89.5166 230.42 89.5166C231.548 89.5166 232.112 89.1146 232.112 88.3106C232.112 87.9386 231.956 87.6626 231.644 87.4826C231.344 87.2906 230.828 87.1346 230.096 87.0146C228.836 86.8106 227.954 86.5046 227.45 86.0966C226.946 85.6766 226.694 85.0286 226.694 84.1526C226.694 83.2646 227.042 82.5746 227.738 82.0826C228.434 81.5786 229.262 81.3266 230.222 81.3266C232.478 81.3266 233.708 82.2746 233.912 84.1706H231.896C231.8 83.7386 231.62 83.4206 231.356 83.2166C231.104 83.0126 230.726 82.9106 230.222 82.9106C229.754 82.9106 229.388 83.0126 229.124 83.2166C228.86 83.4206 228.728 83.6906 228.728 84.0266C228.728 84.3626 228.866 84.6146 229.142 84.7826C229.418 84.9506 229.928 85.1006 230.672 85.2326C231.896 85.4246 232.79 85.7186 233.354 86.1146C233.918 86.5106 234.2 87.1766 234.2 88.1126C234.2 89.0726 233.87 89.8166 233.21 90.3446C232.562 90.8606 231.638 91.1186 230.438 91.1186ZM241.09 77.0246H242.584V83.0186C242.8 82.5746 243.16 82.1906 243.664 81.8666C244.18 81.5306 244.828 81.3626 245.608 81.3626C246.1 81.3626 246.544 81.4346 246.94 81.5786C247.348 81.7106 247.696 81.9326 247.984 82.2446C248.284 82.5446 248.512 82.9346 248.668 83.4146C248.836 83.8946 248.92 84.4766 248.92 85.1606V90.9386H247.426V85.0526C247.426 84.2246 247.246 83.6186 246.886 83.2346C246.526 82.8506 245.968 82.6586 245.212 82.6586C244.864 82.6586 244.528 82.7126 244.204 82.8206C243.892 82.9286 243.616 83.0906 243.376 83.3066C243.136 83.5226 242.944 83.7926 242.8 84.1166C242.656 84.4406 242.584 84.8126 242.584 85.2326V90.9386H241.09V77.0246ZM254.206 91.1006C253.774 91.1006 253.366 91.0466 252.982 90.9386C252.598 90.8306 252.262 90.6626 251.974 90.4346C251.698 90.2066 251.476 89.9186 251.308 89.5706C251.152 89.2226 251.074 88.8086 251.074 88.3286C251.074 87.7886 251.206 87.3326 251.47 86.9606C251.734 86.5886 252.082 86.2886 252.514 86.0606C252.958 85.8326 253.462 85.6706 254.026 85.5746C254.602 85.4666 255.19 85.4126 255.79 85.4126H257.14V84.7286C257.14 83.9726 256.984 83.4326 256.672 83.1086C256.36 82.7726 255.844 82.6046 255.124 82.6046C253.828 82.6046 253.108 83.1686 252.964 84.2966H251.47C251.518 83.7566 251.65 83.3006 251.866 82.9286C252.094 82.5566 252.376 82.2566 252.712 82.0286C253.06 81.7886 253.444 81.6206 253.864 81.5246C254.296 81.4166 254.74 81.3626 255.196 81.3626C255.652 81.3626 256.084 81.4166 256.492 81.5246C256.912 81.6206 257.278 81.8006 257.59 82.0646C257.902 82.3166 258.154 82.6586 258.346 83.0906C258.538 83.5226 258.634 84.0686 258.634 84.7286V90.9386H257.14V89.7506C256.792 90.1946 256.39 90.5306 255.934 90.7586C255.478 90.9866 254.902 91.1006 254.206 91.1006ZM254.35 89.9126C254.746 89.9126 255.112 89.8646 255.448 89.7686C255.796 89.6606 256.09 89.5106 256.33 89.3186C256.582 89.1266 256.78 88.8926 256.924 88.6166C257.068 88.3286 257.14 88.0046 257.14 87.6446V86.4746H255.844C255.376 86.4746 254.938 86.5106 254.53 86.5826C254.134 86.6426 253.786 86.7446 253.486 86.8886C253.198 87.0326 252.97 87.2246 252.802 87.4646C252.646 87.6926 252.568 87.9806 252.568 88.3286C252.568 88.8206 252.7 89.2106 252.964 89.4986C253.228 89.7746 253.69 89.9126 254.35 89.9126ZM260.243 81.5246H261.863L264.653 89.4266L267.407 81.5246H268.955L265.571 90.9386H263.663L260.243 81.5246ZM274.509 91.1006C273.849 91.1006 273.237 90.9866 272.673 90.7586C272.121 90.5306 271.641 90.2126 271.233 89.8046C270.825 89.3846 270.507 88.8806 270.279 88.2926C270.063 87.7046 269.955 87.0506 269.955 86.3306V86.1866C269.955 85.4786 270.063 84.8306 270.279 84.2426C270.495 83.6426 270.795 83.1326 271.179 82.7126C271.575 82.2806 272.043 81.9506 272.583 81.7226C273.123 81.4826 273.717 81.3626 274.365 81.3626C274.905 81.3626 275.427 81.4526 275.931 81.6326C276.447 81.8006 276.903 82.0706 277.299 82.4426C277.695 82.8146 278.007 83.3006 278.235 83.9006C278.475 84.4886 278.595 85.2026 278.595 86.0426V86.5286H271.503C271.539 87.6086 271.809 88.4366 272.313 89.0126C272.817 89.5766 273.555 89.8586 274.527 89.8586C276.003 89.8586 276.837 89.3126 277.029 88.2206H278.523C278.355 89.1686 277.911 89.8886 277.191 90.3806C276.471 90.8606 275.577 91.1006 274.509 91.1006ZM277.065 85.3226C276.993 84.3506 276.717 83.6546 276.237 83.2346C275.769 82.8146 275.145 82.6046 274.365 82.6046C273.597 82.6046 272.967 82.8506 272.475 83.3426C271.995 83.8226 271.689 84.4826 271.557 85.3226H277.065ZM288.567 91.1006C287.439 91.1006 286.551 90.8366 285.903 90.3086C285.267 89.7686 284.925 89.0126 284.877 88.0406H286.335C286.395 88.6046 286.587 89.0486 286.911 89.3726C287.247 89.6966 287.793 89.8586 288.549 89.8586C289.269 89.8586 289.791 89.7386 290.115 89.4986C290.439 89.2466 290.601 88.8686 290.601 88.3646C290.601 87.8606 290.415 87.5066 290.043 87.3026C289.683 87.0866 289.137 86.9126 288.405 86.7806C287.793 86.6726 287.277 86.5466 286.857 86.4026C286.437 86.2466 286.101 86.0606 285.849 85.8446C285.597 85.6286 285.411 85.3706 285.291 85.0706C285.183 84.7706 285.129 84.4166 285.129 84.0086C285.129 83.5766 285.225 83.1986 285.417 82.8746C285.609 82.5386 285.855 82.2626 286.155 82.0466C286.467 81.8186 286.809 81.6506 287.181 81.5426C287.565 81.4226 287.943 81.3626 288.315 81.3626C288.735 81.3626 289.137 81.4106 289.521 81.5066C289.905 81.5906 290.247 81.7406 290.547 81.9566C290.859 82.1726 291.117 82.4546 291.321 82.8026C291.525 83.1506 291.657 83.5766 291.717 84.0806H290.277C290.169 83.5646 289.959 83.1926 289.647 82.9646C289.347 82.7246 288.897 82.6046 288.297 82.6046C287.757 82.6046 287.325 82.7306 287.001 82.9826C286.677 83.2226 286.515 83.5466 286.515 83.9546C286.515 84.1706 286.545 84.3566 286.605 84.5126C286.677 84.6566 286.797 84.7886 286.965 84.9086C287.133 85.0166 287.355 85.1186 287.631 85.2146C287.919 85.2986 288.279 85.3766 288.711 85.4486C289.203 85.5326 289.647 85.6346 290.043 85.7546C290.451 85.8746 290.799 86.0366 291.087 86.2406C291.387 86.4326 291.615 86.6906 291.771 87.0146C291.939 87.3266 292.023 87.7346 292.023 88.2386C292.023 89.1026 291.735 89.7986 291.159 90.3266C290.583 90.8426 289.719 91.1006 288.567 91.1006ZM298.151 91.1006C297.491 91.1006 296.879 90.9866 296.315 90.7586C295.763 90.5306 295.283 90.2126 294.875 89.8046C294.467 89.3846 294.149 88.8806 293.921 88.2926C293.705 87.7046 293.597 87.0506 293.597 86.3306V86.1866C293.597 85.4786 293.705 84.8306 293.921 84.2426C294.137 83.6426 294.437 83.1326 294.821 82.7126C295.217 82.2806 295.685 81.9506 296.225 81.7226C296.765 81.4826 297.359 81.3626 298.007 81.3626C298.547 81.3626 299.069 81.4526 299.573 81.6326C300.089 81.8006 300.545 82.0706 300.941 82.4426C301.337 82.8146 301.649 83.3006 301.877 83.9006C302.117 84.4886 302.237 85.2026 302.237 86.0426V86.5286H295.145C295.181 87.6086 295.451 88.4366 295.955 89.0126C296.459 89.5766 297.197 89.8586 298.169 89.8586C299.645 89.8586 300.479 89.3126 300.671 88.2206H302.165C301.997 89.1686 301.553 89.8886 300.833 90.3806C300.113 90.8606 299.219 91.1006 298.151 91.1006ZM300.707 85.3226C300.635 84.3506 300.359 83.6546 299.879 83.2346C299.411 82.8146 298.787 82.6046 298.007 82.6046C297.239 82.6046 296.609 82.8506 296.117 83.3426C295.637 83.8226 295.331 84.4826 295.199 85.3226H300.707ZM304.53 81.5246H306.024V83.0186C306.24 82.5746 306.6 82.1906 307.104 81.8666C307.62 81.5306 308.268 81.3626 309.048 81.3626C309.54 81.3626 309.984 81.4346 310.38 81.5786C310.788 81.7106 311.136 81.9326 311.424 82.2446C311.724 82.5446 311.952 82.9346 312.108 83.4146C312.276 83.8946 312.36 84.4766 312.36 85.1606V90.9386H310.866V85.0526C310.866 84.2246 310.686 83.6186 310.326 83.2346C309.966 82.8506 309.408 82.6586 308.652 82.6586C308.304 82.6586 307.968 82.7126 307.644 82.8206C307.332 82.9286 307.056 83.0906 306.816 83.3066C306.576 83.5226 306.384 83.7926 306.24 84.1166C306.096 84.4406 306.024 84.8126 306.024 85.2326V90.9386H304.53V81.5246ZM318.149 91.0646C317.285 91.0646 316.643 90.8366 316.223 90.3806C315.815 89.9246 315.611 89.3246 315.611 88.5806V82.7846H314.261V81.5246H315.611V79.3826H317.105V81.5246H319.301V82.7846H317.105V88.4366C317.105 89.3486 317.495 89.8046 318.275 89.8046C318.515 89.8046 318.725 89.7866 318.905 89.7506C319.085 89.7146 319.259 89.6666 319.427 89.6066V90.8666C319.271 90.9266 319.097 90.9746 318.905 91.0106C318.713 91.0466 318.461 91.0646 318.149 91.0646ZM329.078 89.9666L325.388 81.5246H326.99L329.87 88.2746L332.48 81.5246H334.01L328.808 94.2146H327.296L329.078 89.9666ZM339.637 89.8586C340.105 89.8586 340.531 89.7746 340.915 89.6066C341.299 89.4386 341.623 89.1986 341.887 88.8866C342.151 88.5746 342.355 88.2026 342.499 87.7706C342.643 87.3266 342.715 86.8406 342.715 86.3126V86.1866C342.715 85.0946 342.433 84.2246 341.869 83.5766C341.317 82.9286 340.573 82.6046 339.637 82.6046C338.689 82.6046 337.939 82.9286 337.387 83.5766C336.835 84.2126 336.559 85.0766 336.559 86.1686V86.3126C336.559 87.3926 336.829 88.2566 337.369 88.9046C337.921 89.5406 338.677 89.8586 339.637 89.8586ZM339.619 91.1006C338.947 91.1006 338.329 90.9806 337.765 90.7406C337.201 90.5006 336.715 90.1706 336.307 89.7506C335.899 89.3186 335.581 88.8086 335.353 88.2206C335.125 87.6326 335.011 86.9966 335.011 86.3126V86.1686C335.011 85.4606 335.125 84.8126 335.353 84.2246C335.593 83.6366 335.917 83.1326 336.325 82.7126C336.733 82.2806 337.219 81.9506 337.783 81.7226C338.359 81.4826 338.977 81.3626 339.637 81.3626C340.309 81.3626 340.927 81.4826 341.491 81.7226C342.055 81.9506 342.541 82.2746 342.949 82.6946C343.357 83.1146 343.675 83.6186 343.903 84.2066C344.143 84.7946 344.263 85.4426 344.263 86.1506V86.2946C344.263 87.0026 344.143 87.6506 343.903 88.2386C343.675 88.8266 343.351 89.3366 342.931 89.7686C342.523 90.1886 342.037 90.5186 341.473 90.7586C340.909 90.9866 340.291 91.1006 339.619 91.1006ZM349.762 91.1006C349.294 91.1006 348.856 91.0346 348.448 90.9026C348.052 90.7706 347.71 90.5606 347.422 90.2726C347.134 89.9726 346.906 89.5946 346.738 89.1386C346.57 88.6826 346.486 88.1306 346.486 87.4826V81.5246H347.98V87.4106C347.98 88.2386 348.154 88.8446 348.502 89.2286C348.862 89.6126 349.414 89.8046 350.158 89.8046C350.494 89.8046 350.818 89.7506 351.13 89.6426C351.442 89.5346 351.718 89.3726 351.958 89.1566C352.198 88.9406 352.39 88.6706 352.534 88.3466C352.678 88.0226 352.75 87.6506 352.75 87.2306V81.5246H354.244V90.9386H352.75V89.4446C352.534 89.8886 352.168 90.2786 351.652 90.6146C351.148 90.9386 350.518 91.1006 349.762 91.1006ZM364.386 91.1006C363.954 91.1006 363.546 91.0466 363.162 90.9386C362.778 90.8306 362.442 90.6626 362.154 90.4346C361.878 90.2066 361.656 89.9186 361.488 89.5706C361.332 89.2226 361.254 88.8086 361.254 88.3286C361.254 87.7886 361.386 87.3326 361.65 86.9606C361.914 86.5886 362.262 86.2886 362.694 86.0606C363.138 85.8326 363.642 85.6706 364.206 85.5746C364.782 85.4666 365.37 85.4126 365.97 85.4126H367.32V84.7286C367.32 83.9726 367.164 83.4326 366.852 83.1086C366.54 82.7726 366.024 82.6046 365.304 82.6046C364.008 82.6046 363.288 83.1686 363.144 84.2966H361.65C361.698 83.7566 361.83 83.3006 362.046 82.9286C362.274 82.5566 362.556 82.2566 362.892 82.0286C363.24 81.7886 363.624 81.6206 364.044 81.5246C364.476 81.4166 364.92 81.3626 365.376 81.3626C365.832 81.3626 366.264 81.4166 366.672 81.5246C367.092 81.6206 367.458 81.8006 367.77 82.0646C368.082 82.3166 368.334 82.6586 368.526 83.0906C368.718 83.5226 368.814 84.0686 368.814 84.7286V90.9386H367.32V89.7506C366.972 90.1946 366.57 90.5306 366.114 90.7586C365.658 90.9866 365.082 91.1006 364.386 91.1006ZM364.53 89.9126C364.926 89.9126 365.292 89.8646 365.628 89.7686C365.976 89.6606 366.27 89.5106 366.51 89.3186C366.762 89.1266 366.96 88.8926 367.104 88.6166C367.248 88.3286 367.32 88.0046 367.32 87.6446V86.4746H366.024C365.556 86.4746 365.118 86.5106 364.71 86.5826C364.314 86.6426 363.966 86.7446 363.666 86.8886C363.378 87.0326 363.15 87.2246 362.982 87.4646C362.826 87.6926 362.748 87.9806 362.748 88.3286C362.748 88.8206 362.88 89.2106 363.144 89.4986C363.408 89.7746 363.87 89.9126 364.53 89.9126ZM380.274 94.3766C379.578 94.3766 378.972 94.2986 378.456 94.1426C377.952 93.9866 377.526 93.7766 377.178 93.5126C376.842 93.2606 376.578 92.9546 376.386 92.5946C376.194 92.2466 376.068 91.8746 376.008 91.4786H377.538C377.754 92.5706 378.66 93.1166 380.256 93.1166C381.192 93.1166 381.93 92.8886 382.47 92.4326C383.01 91.9766 383.28 91.2386 383.28 90.2186V88.8506C383.148 89.0786 382.968 89.3006 382.74 89.5166C382.524 89.7326 382.278 89.9246 382.002 90.0926C381.726 90.2486 381.426 90.3806 381.102 90.4886C380.778 90.5846 380.442 90.6326 380.094 90.6326C379.482 90.6326 378.912 90.5246 378.384 90.3086C377.856 90.0806 377.4 89.7686 377.016 89.3726C376.644 88.9766 376.35 88.5086 376.134 87.9686C375.918 87.4166 375.81 86.8166 375.81 86.1686V86.0426C375.81 85.4066 375.918 84.8066 376.134 84.2426C376.35 83.6666 376.65 83.1686 377.034 82.7486C377.418 82.3166 377.88 81.9806 378.42 81.7406C378.96 81.4886 379.554 81.3626 380.202 81.3626C380.994 81.3626 381.636 81.5306 382.128 81.8666C382.62 82.1906 383.004 82.5806 383.28 83.0366V81.5246H384.774V90.3086C384.774 90.9926 384.66 91.5866 384.432 92.0906C384.204 92.6066 383.892 93.0326 383.496 93.3686C383.1 93.7046 382.626 93.9566 382.074 94.1246C381.534 94.2926 380.934 94.3766 380.274 94.3766ZM380.256 89.3906C380.688 89.3906 381.09 89.3186 381.462 89.1746C381.846 89.0186 382.176 88.8026 382.452 88.5266C382.728 88.2386 382.944 87.8906 383.1 87.4826C383.256 87.0626 383.334 86.5886 383.334 86.0606V85.9346C383.334 84.8786 383.064 84.0626 382.524 83.4866C381.996 82.8986 381.27 82.6046 380.346 82.6046C379.878 82.6046 379.458 82.6886 379.086 82.8566C378.714 83.0126 378.402 83.2406 378.15 83.5406C377.898 83.8406 377.7 84.2006 377.556 84.6206C377.424 85.0286 377.358 85.4786 377.358 85.9706V86.1146C377.358 86.6306 377.436 87.0926 377.592 87.5006C377.748 87.8966 377.952 88.2386 378.204 88.5266C378.468 88.8026 378.774 89.0186 379.122 89.1746C379.482 89.3186 379.86 89.3906 380.256 89.3906ZM387.833 81.5246H389.327V90.9386H387.833V81.5246ZM388.553 79.5626C388.277 79.5626 388.043 79.4666 387.851 79.2746C387.659 79.0826 387.563 78.8486 387.563 78.5726C387.563 78.2966 387.659 78.0626 387.851 77.8706C388.043 77.6786 388.277 77.5826 388.553 77.5826C388.829 77.5826 389.063 77.6786 389.255 77.8706C389.447 78.0626 389.543 78.2966 389.543 78.5726C389.543 78.8486 389.447 79.0826 389.255 79.2746C389.063 79.4666 388.829 79.5626 388.553 79.5626ZM392.709 82.7846H391.359V81.5246H392.709V79.9946C392.709 79.0346 392.943 78.2906 393.411 77.7626C393.879 77.2346 394.581 76.9706 395.517 76.9706C395.757 76.9706 395.955 76.9886 396.111 77.0246C396.267 77.0486 396.441 77.0906 396.633 77.1506V78.4106C396.501 78.3506 396.339 78.3026 396.147 78.2666C395.967 78.2306 395.775 78.2126 395.571 78.2126C395.079 78.2126 394.725 78.3626 394.509 78.6626C394.305 78.9626 394.203 79.3526 394.203 79.8326V81.5246H396.507V82.7846H394.203V90.9386H392.709V82.7846ZM401.558 91.0646C400.694 91.0646 400.052 90.8366 399.632 90.3806C399.224 89.9246 399.02 89.3246 399.02 88.5806V82.7846H397.67V81.5246H399.02V79.3826H400.514V81.5246H402.71V82.7846H400.514V88.4366C400.514 89.3486 400.904 89.8046 401.684 89.8046C401.924 89.8046 402.134 89.7866 402.314 89.7506C402.494 89.7146 402.668 89.6666 402.836 89.6066V90.8666C402.68 90.9266 402.506 90.9746 402.314 91.0106C402.122 91.0466 401.87 91.0646 401.558 91.0646ZM406.12 91.0286C405.808 91.0286 405.538 90.9206 405.31 90.7046C405.082 90.4766 404.968 90.2006 404.968 89.8766C404.968 89.5526 405.082 89.2826 405.31 89.0666C405.538 88.8386 405.808 88.7246 406.12 88.7246C406.432 88.7246 406.702 88.8386 406.93 89.0666C407.158 89.2826 407.272 89.5526 407.272 89.8766C407.272 90.2006 407.158 90.4766 406.93 90.7046C406.702 90.9206 406.432 91.0286 406.12 91.0286Z" fill="black"/>
<g filter="url(#filter1_d_3035_9244)">
<rect x="33" y="115.939" width="199" height="48" rx="4" fill="white"/>
<path d="M62.1595 140.393C62.1595 141.804 61.8953 143.012 61.3669 144.017C60.8428 145.019 60.1269 145.786 59.2192 146.319C58.3158 146.851 57.2909 147.118 56.1446 147.118C54.9983 147.118 53.9713 146.851 53.0637 146.319C52.1602 145.782 51.4443 145.012 50.9159 144.011C50.3918 143.005 50.1297 141.799 50.1297 140.393C50.1297 138.983 50.3918 137.777 50.9159 136.775C51.4443 135.77 52.1602 135 53.0637 134.468C53.9713 133.935 54.9983 133.669 56.1446 133.669C57.2909 133.669 58.3158 133.935 59.2192 134.468C60.1269 135 60.8428 135.77 61.3669 136.775C61.8953 137.777 62.1595 138.983 62.1595 140.393ZM59.7753 140.393C59.7753 139.4 59.6198 138.563 59.3087 137.881C59.0019 137.195 58.5757 136.677 58.0303 136.328C57.4848 135.974 56.8563 135.797 56.1446 135.797C55.433 135.797 54.8044 135.974 54.259 136.328C53.7135 136.677 53.2852 137.195 52.9742 137.881C52.6673 138.563 52.5139 139.4 52.5139 140.393C52.5139 141.386 52.6673 142.226 52.9742 142.912C53.2852 143.593 53.7135 144.111 54.259 144.465C54.8044 144.814 55.433 144.989 56.1446 144.989C56.8563 144.989 57.4848 144.814 58.0303 144.465C58.5757 144.111 59.0019 143.593 59.3087 142.912C59.6198 142.226 59.7753 141.386 59.7753 140.393ZM64.2993 150.62V137.12H66.5748V138.744H66.7091C66.8284 138.505 66.9967 138.252 67.214 137.983C67.4314 137.711 67.7254 137.478 68.0961 137.287C68.4669 137.091 68.9399 136.993 69.5152 136.993C70.2737 136.993 70.9577 137.186 71.567 137.574C72.1807 137.958 72.6665 138.527 73.0244 139.281C73.3866 140.031 73.5677 140.951 73.5677 142.042C73.5677 143.12 73.3909 144.037 73.0372 144.791C72.6835 145.545 72.202 146.12 71.5926 146.517C70.9832 146.913 70.2929 147.111 69.5216 147.111C68.9591 147.111 68.4925 147.017 68.1217 146.83C67.751 146.642 67.4527 146.417 67.2268 146.152C67.0052 145.884 66.8327 145.63 66.7091 145.392H66.6132V150.62H64.2993ZM66.5684 142.03C66.5684 142.664 66.6579 143.221 66.8369 143.698C67.0202 144.175 67.2822 144.548 67.6231 144.816C67.9683 145.081 68.3859 145.213 68.876 145.213C69.3873 145.213 69.8156 145.076 70.1608 144.804C70.5059 144.527 70.7659 144.15 70.9406 143.672C71.1196 143.191 71.2091 142.643 71.2091 142.03C71.2091 141.42 71.1217 140.879 70.947 140.406C70.7723 139.933 70.5123 139.562 70.1672 139.294C69.822 139.025 69.3916 138.891 68.876 138.891C68.3817 138.891 67.9619 139.021 67.6167 139.281C67.2716 139.541 67.0095 139.905 66.8305 140.374C66.6558 140.843 66.5684 141.395 66.5684 142.03ZM79.8959 147.13C78.9115 147.13 78.0613 146.926 77.3454 146.517C76.6338 146.103 76.0862 145.52 75.7027 144.765C75.3192 144.007 75.1274 143.114 75.1274 142.087C75.1274 141.077 75.3192 140.191 75.7027 139.428C76.0905 138.661 76.6317 138.064 77.3263 137.638C78.0209 137.208 78.8369 136.993 79.7744 136.993C80.3795 136.993 80.9506 137.091 81.4875 137.287C82.0287 137.478 82.5059 137.777 82.9193 138.181C83.3369 138.586 83.665 139.102 83.9037 139.728C84.1423 140.351 84.2616 141.092 84.2616 141.953V142.662H76.214V141.103H82.0436C82.0393 140.659 81.9434 140.265 81.7559 139.92C81.5684 139.571 81.3064 139.296 80.9697 139.096C80.6373 138.895 80.2496 138.795 79.8064 138.795C79.3334 138.795 78.9179 138.91 78.5599 139.14C78.202 139.366 77.9229 139.664 77.7226 140.035C77.5265 140.402 77.4264 140.804 77.4221 141.243V142.605C77.4221 143.176 77.5265 143.666 77.7354 144.075C77.9442 144.48 78.2361 144.791 78.6111 145.008C78.9861 145.221 79.425 145.328 79.9278 145.328C80.2645 145.328 80.5692 145.281 80.8419 145.187C81.1146 145.089 81.3511 144.946 81.5514 144.759C81.7517 144.571 81.903 144.339 82.0052 144.062L84.1657 144.305C84.0294 144.876 83.7694 145.375 83.3859 145.801C83.0067 146.223 82.5209 146.551 81.9285 146.785C81.3362 147.015 80.6586 147.13 79.8959 147.13ZM88.5331 141.186V146.939H86.2192V137.12H88.4308V138.789H88.5459C88.7718 138.239 89.1318 137.802 89.6262 137.478C90.1247 137.155 90.7405 136.993 91.4735 136.993C92.151 136.993 92.7412 137.137 93.2441 137.427C93.7512 137.717 94.1432 138.137 94.4202 138.686C94.7014 139.236 94.8399 139.903 94.8357 140.687V146.939H92.5218V141.045C92.5218 140.389 92.3513 139.875 92.0104 139.505C91.6737 139.134 91.2071 138.949 90.6105 138.949C90.2057 138.949 89.8456 139.038 89.5303 139.217C89.2192 139.392 88.9742 139.645 88.7952 139.978C88.6205 140.31 88.5331 140.713 88.5331 141.186ZM106.626 137.12V138.91H100.822V137.12H106.626ZM102.273 146.939V136.194C102.273 135.533 102.409 134.983 102.682 134.544C102.959 134.106 103.33 133.777 103.794 133.56C104.259 133.343 104.774 133.234 105.341 133.234C105.742 133.234 106.097 133.266 106.408 133.33C106.72 133.394 106.95 133.451 107.099 133.503L106.639 135.292C106.541 135.262 106.417 135.233 106.268 135.203C106.119 135.169 105.953 135.152 105.769 135.152C105.339 135.152 105.034 135.256 104.855 135.465C104.68 135.669 104.593 135.963 104.593 136.347V146.939H102.273ZM112.351 147.13C111.393 147.13 110.562 146.919 109.859 146.498C109.155 146.076 108.61 145.485 108.222 144.727C107.839 143.968 107.647 143.082 107.647 142.068C107.647 141.054 107.839 140.165 108.222 139.402C108.61 138.64 109.155 138.047 109.859 137.625C110.562 137.204 111.393 136.993 112.351 136.993C113.31 136.993 114.141 137.204 114.844 137.625C115.547 138.047 116.091 138.64 116.474 139.402C116.862 140.165 117.056 141.054 117.056 142.068C117.056 143.082 116.862 143.968 116.474 144.727C116.091 145.485 115.547 146.076 114.844 146.498C114.141 146.919 113.31 147.13 112.351 147.13ZM112.364 145.277C112.884 145.277 113.319 145.134 113.668 144.848C114.018 144.559 114.278 144.171 114.448 143.685C114.623 143.199 114.71 142.658 114.71 142.061C114.71 141.461 114.623 140.917 114.448 140.431C114.278 139.941 114.018 139.552 113.668 139.262C113.319 138.972 112.884 138.827 112.364 138.827C111.832 138.827 111.388 138.972 111.035 139.262C110.685 139.552 110.423 139.941 110.248 140.431C110.078 140.917 109.993 141.461 109.993 142.061C109.993 142.658 110.078 143.199 110.248 143.685C110.423 144.171 110.685 144.559 111.035 144.848C111.388 145.134 111.832 145.277 112.364 145.277ZM119.02 146.939V137.12H121.264V138.757H121.366C121.545 138.19 121.852 137.753 122.286 137.446C122.725 137.135 123.226 136.98 123.788 136.98C123.916 136.98 124.059 136.986 124.217 136.999C124.379 137.007 124.513 137.022 124.619 137.044V139.172C124.521 139.138 124.366 139.108 124.153 139.083C123.944 139.053 123.742 139.038 123.546 139.038C123.124 139.038 122.744 139.13 122.408 139.313C122.075 139.492 121.813 139.741 121.622 140.061C121.43 140.38 121.334 140.749 121.334 141.167V146.939H119.02ZM133.447 147.137C132.825 147.137 132.264 147.026 131.766 146.804C131.271 146.579 130.879 146.246 130.59 145.807C130.304 145.368 130.161 144.827 130.161 144.184C130.161 143.63 130.264 143.172 130.468 142.809C130.673 142.447 130.952 142.157 131.305 141.94C131.659 141.723 132.058 141.559 132.501 141.448C132.948 141.333 133.411 141.25 133.888 141.199C134.463 141.139 134.93 141.086 135.288 141.039C135.646 140.988 135.906 140.911 136.068 140.809C136.234 140.702 136.317 140.538 136.317 140.316V140.278C136.317 139.797 136.174 139.424 135.889 139.159C135.603 138.895 135.192 138.763 134.655 138.763C134.088 138.763 133.639 138.887 133.306 139.134C132.978 139.381 132.756 139.673 132.641 140.01L130.481 139.703C130.651 139.106 130.933 138.608 131.325 138.207C131.717 137.802 132.196 137.5 132.763 137.299C133.33 137.095 133.956 136.993 134.642 136.993C135.115 136.993 135.586 137.048 136.055 137.159C136.524 137.27 136.952 137.453 137.34 137.708C137.727 137.96 138.038 138.303 138.273 138.738C138.511 139.172 138.631 139.716 138.631 140.368V146.939H136.406V145.59H136.33C136.189 145.863 135.991 146.118 135.735 146.357C135.484 146.591 135.166 146.781 134.783 146.926C134.403 147.066 133.958 147.137 133.447 147.137ZM134.048 145.436C134.512 145.436 134.915 145.345 135.256 145.162C135.597 144.974 135.859 144.727 136.042 144.42C136.229 144.113 136.323 143.779 136.323 143.417V142.26C136.251 142.319 136.127 142.375 135.953 142.426C135.782 142.477 135.59 142.522 135.377 142.56C135.164 142.598 134.953 142.632 134.744 142.662C134.536 142.692 134.354 142.718 134.201 142.739C133.856 142.786 133.547 142.863 133.274 142.969C133.002 143.076 132.786 143.225 132.629 143.417C132.471 143.604 132.392 143.847 132.392 144.145C132.392 144.571 132.548 144.893 132.859 145.11C133.17 145.328 133.566 145.436 134.048 145.436ZM153.182 139.716L151.073 139.946C151.013 139.733 150.909 139.532 150.76 139.345C150.615 139.157 150.419 139.006 150.172 138.891C149.924 138.776 149.622 138.718 149.264 138.718C148.782 138.718 148.378 138.823 148.049 139.032C147.726 139.24 147.566 139.511 147.57 139.843C147.566 140.129 147.67 140.361 147.883 140.54C148.101 140.719 148.459 140.866 148.957 140.981L150.632 141.339C151.561 141.539 152.251 141.857 152.703 142.292C153.159 142.726 153.389 143.295 153.393 143.998C153.389 144.616 153.208 145.162 152.85 145.635C152.496 146.103 152.004 146.47 151.373 146.734C150.743 146.998 150.018 147.13 149.2 147.13C147.998 147.13 147.031 146.879 146.298 146.376C145.565 145.869 145.128 145.164 144.988 144.26L147.244 144.043C147.346 144.486 147.564 144.821 147.896 145.047C148.228 145.272 148.661 145.385 149.194 145.385C149.743 145.385 150.184 145.272 150.517 145.047C150.853 144.821 151.022 144.542 151.022 144.209C151.022 143.928 150.913 143.696 150.696 143.512C150.483 143.329 150.15 143.189 149.699 143.091L148.024 142.739C147.082 142.543 146.385 142.213 145.934 141.748C145.482 141.28 145.258 140.687 145.263 139.971C145.258 139.366 145.422 138.842 145.755 138.399C146.091 137.951 146.558 137.606 147.155 137.363C147.755 137.116 148.448 136.993 149.232 136.993C150.383 136.993 151.288 137.238 151.949 137.728C152.613 138.218 153.025 138.88 153.182 139.716ZM161.559 142.809V137.12H163.873V146.939H161.629V145.194H161.527C161.305 145.743 160.941 146.193 160.434 146.542C159.931 146.892 159.311 147.066 158.574 147.066C157.93 147.066 157.362 146.924 156.867 146.638C156.377 146.348 155.994 145.929 155.717 145.379C155.44 144.825 155.301 144.156 155.301 143.372V137.12H157.615V143.014C157.615 143.636 157.786 144.13 158.127 144.497C158.467 144.863 158.915 145.047 159.469 145.047C159.81 145.047 160.14 144.963 160.46 144.797C160.779 144.631 161.041 144.384 161.246 144.056C161.455 143.723 161.559 143.308 161.559 142.809ZM166.252 146.939V137.12H168.496V138.757H168.598C168.777 138.19 169.084 137.753 169.519 137.446C169.958 137.135 170.458 136.98 171.021 136.98C171.149 136.98 171.291 136.986 171.449 136.999C171.611 137.007 171.745 137.022 171.852 137.044V139.172C171.754 139.138 171.598 139.108 171.385 139.083C171.176 139.053 170.974 139.038 170.778 139.038C170.356 139.038 169.977 139.13 169.64 139.313C169.308 139.492 169.046 139.741 168.854 140.061C168.662 140.38 168.566 140.749 168.566 141.167V146.939H166.252ZM173.389 150.62V137.12H175.665V138.744H175.799C175.918 138.505 176.087 138.252 176.304 137.983C176.521 137.711 176.815 137.478 177.186 137.287C177.557 137.091 178.03 136.993 178.605 136.993C179.364 136.993 180.047 137.186 180.657 137.574C181.271 137.958 181.756 138.527 182.114 139.281C182.476 140.031 182.658 140.951 182.658 142.042C182.658 143.12 182.481 144.037 182.127 144.791C181.773 145.545 181.292 146.12 180.682 146.517C180.073 146.913 179.383 147.111 178.611 147.111C178.049 147.111 177.582 147.017 177.212 146.83C176.841 146.642 176.543 146.417 176.317 146.152C176.095 145.884 175.922 145.63 175.799 145.392H175.703V150.62H173.389ZM175.658 142.03C175.658 142.664 175.748 143.221 175.927 143.698C176.11 144.175 176.372 144.548 176.713 144.816C177.058 145.081 177.476 145.213 177.966 145.213C178.477 145.213 178.905 145.076 179.251 144.804C179.596 144.527 179.856 144.15 180.03 143.672C180.209 143.191 180.299 142.643 180.299 142.03C180.299 141.42 180.212 140.879 180.037 140.406C179.862 139.933 179.602 139.562 179.257 139.294C178.912 139.025 178.481 138.891 177.966 138.891C177.472 138.891 177.052 139.021 176.707 139.281C176.361 139.541 176.099 139.905 175.92 140.374C175.746 140.843 175.658 141.395 175.658 142.03ZM184.639 146.939V137.12H186.883V138.757H186.985C187.164 138.19 187.471 137.753 187.905 137.446C188.344 137.135 188.845 136.98 189.408 136.98C189.535 136.98 189.678 136.986 189.836 136.999C189.998 137.007 190.132 137.022 190.239 137.044V139.172C190.141 139.138 189.985 139.108 189.772 139.083C189.563 139.053 189.361 139.038 189.165 139.038C188.743 139.038 188.364 139.13 188.027 139.313C187.695 139.492 187.432 139.741 187.241 140.061C187.049 140.38 186.953 140.749 186.953 141.167V146.939H184.639ZM191.776 146.939V137.12H194.09V146.939H191.776ZM192.939 135.727C192.573 135.727 192.257 135.606 191.993 135.363C191.729 135.115 191.597 134.819 191.597 134.474C191.597 134.125 191.729 133.829 191.993 133.586C192.257 133.338 192.573 133.215 192.939 133.215C193.31 133.215 193.625 133.338 193.885 133.586C194.149 133.829 194.282 134.125 194.282 134.474C194.282 134.819 194.149 135.115 193.885 135.363C193.625 135.606 193.31 135.727 192.939 135.727ZM204.229 139.716L202.12 139.946C202.06 139.733 201.956 139.532 201.807 139.345C201.662 139.157 201.466 139.006 201.218 138.891C200.971 138.776 200.669 138.718 200.311 138.718C199.829 138.718 199.424 138.823 199.096 139.032C198.772 139.24 198.613 139.511 198.617 139.843C198.613 140.129 198.717 140.361 198.93 140.54C199.147 140.719 199.505 140.866 200.004 140.981L201.679 141.339C202.608 141.539 203.298 141.857 203.75 142.292C204.206 142.726 204.436 143.295 204.44 143.998C204.436 144.616 204.255 145.162 203.897 145.635C203.543 146.103 203.051 146.47 202.42 146.734C201.79 146.998 201.065 147.13 200.247 147.13C199.045 147.13 198.078 146.879 197.345 146.376C196.612 145.869 196.175 145.164 196.035 144.26L198.291 144.043C198.393 144.486 198.611 144.821 198.943 145.047C199.275 145.272 199.708 145.385 200.241 145.385C200.79 145.385 201.231 145.272 201.564 145.047C201.9 144.821 202.069 144.542 202.069 144.209C202.069 143.928 201.96 143.696 201.743 143.512C201.53 143.329 201.197 143.189 200.745 143.091L199.071 142.739C198.129 142.543 197.432 142.213 196.981 141.748C196.529 141.28 196.305 140.687 196.309 139.971C196.305 139.366 196.469 138.842 196.802 138.399C197.138 137.951 197.605 137.606 198.201 137.363C198.802 137.116 199.495 136.993 200.279 136.993C201.429 136.993 202.335 137.238 202.995 137.728C203.66 138.218 204.071 138.88 204.229 139.716ZM210.695 147.13C209.71 147.13 208.86 146.926 208.144 146.517C207.433 146.103 206.885 145.52 206.502 144.765C206.118 144.007 205.926 143.114 205.926 142.087C205.926 141.077 206.118 140.191 206.502 139.428C206.889 138.661 207.43 138.064 208.125 137.638C208.82 137.208 209.636 136.993 210.573 136.993C211.178 136.993 211.749 137.091 212.286 137.287C212.828 137.478 213.305 137.777 213.718 138.181C214.136 138.586 214.464 139.102 214.703 139.728C214.941 140.351 215.06 141.092 215.06 141.953V142.662H207.013V141.103H212.842C212.838 140.659 212.742 140.265 212.555 139.92C212.367 139.571 212.105 139.296 211.769 139.096C211.436 138.895 211.048 138.795 210.605 138.795C210.132 138.795 209.717 138.91 209.359 139.14C209.001 139.366 208.722 139.664 208.521 140.035C208.325 140.402 208.225 140.804 208.221 141.243V142.605C208.221 143.176 208.325 143.666 208.534 144.075C208.743 144.48 209.035 144.791 209.41 145.008C209.785 145.221 210.224 145.328 210.727 145.328C211.063 145.328 211.368 145.281 211.641 145.187C211.913 145.089 212.15 144.946 212.35 144.759C212.551 144.571 212.702 144.339 212.804 144.062L214.965 144.305C214.828 144.876 214.568 145.375 214.185 145.801C213.805 146.223 213.32 146.551 212.727 146.785C212.135 147.015 211.457 147.13 210.695 147.13Z" fill="black"/>
<rect x="33" y="115.939" width="199" height="48" rx="4" stroke="black"/>
</g>
<rect x="1" y="0.938591" width="440" height="195" rx="4" stroke="black" shape-rendering="crispEdges"/>
</g>
<defs>
<filter id="filter0_d_3035_9244" x="0.5" y="0.438591" width="444" height="200" filterUnits="userSpaceOnUse" color-interpolation-filters="sRGB">
<feFlood flood-opacity="0" result="BackgroundImageFix"/>
<feColorMatrix in="SourceAlpha" type="matrix" values="0 0 0 0 0 0 0 0 0 0 0 0 0 0 0 0 0 0 127 0" result="hardAlpha"/>
<feOffset dx="3" dy="4"/>
<feComposite in2="hardAlpha" operator="out"/>
<feColorMatrix type="matrix" values="0 0 0 0 0 0 0 0 0 0 0 0 0 0 0 0 0 0 1 0"/>
<feBlend mode="normal" in2="BackgroundImageFix" result="effect1_dropShadow_3035_9244"/>
<feBlend mode="normal" in="SourceGraphic" in2="effect1_dropShadow_3035_9244" result="shape"/>
</filter>
<filter id="filter1_d_3035_9244" x="32.5" y="115.439" width="203" height="53" filterUnits="userSpaceOnUse" color-interpolation-filters="sRGB">
<feFlood flood-opacity="0" result="BackgroundImageFix"/>
<feColorMatrix in="SourceAlpha" type="matrix" values="0 0 0 0 0 0 0 0 0 0 0 0 0 0 0 0 0 0 127 0" result="hardAlpha"/>
<feOffset dx="3" dy="4"/>
<feComposite in2="hardAlpha" operator="out"/>
<feColorMatrix type="matrix" values="0 0 0 0 0.921569 0 0 0 0 0.894118 0 0 0 0 0.992157 0 0 0 1 0"/>
<feBlend mode="normal" in2="BackgroundImageFix" result="effect1_dropShadow_3035_9244"/>
<feBlend mode="normal" in="SourceGraphic" in2="effect1_dropShadow_3035_9244" result="shape"/>
</filter>
</defs>
</svg>
