<?xml version="1.0" encoding="UTF-8"?>
<svg width="700px" height="320px" viewBox="0 0 700 320" version="1.1" xmlns="http://www.w3.org/2000/svg" xmlns:xlink="http://www.w3.org/1999/xlink">
    <!-- Generator: Sketch 60.1 (88133) - https://sketch.com -->
    <title>Group</title>
    <desc>Created with Sketch.</desc>
    <defs>
        <radialGradient cx="50%" cy="50%" fx="50%" fy="50%" r="100%" gradientTransform="translate(0.500000,0.500000),scale(0.457143,1.000000),rotate(90.000000),translate(-0.500000,-0.500000)" id="radialGradient-1">
            <stop stop-color="#FAFAF9" offset="0%"></stop>
            <stop stop-color="#EBE4FD" offset="100%"></stop>
        </radialGradient>
    </defs>
    <g id="Page-1" stroke="none" stroke-width="1" fill="none" fill-rule="evenodd">
        <g id="Group-2">
            <g id="Group">
                <rect id="Rectangle" fill="url(#radialGradient-1)" x="0" y="0" width="700" height="320" rx="10"></rect>
                <path d="M289.854801,177.910822 C287.284637,176.416455 286,174.457851 286,172.499327 C286,170.541293 287.285284,168.583259 289.854801,167.089301 L341.193486,137.241183 C346.333247,134.252939 354.66651,134.252939 359.80619,137.241183 L411.144714,167.089301 C413.714635,168.583259 415,170.541293 415,172.499327 C415,174.457851 413.715444,176.416455 411.144714,177.910822 L359.80619,207.758695 C354.66651,210.747102 346.333247,210.747102 341.193486,207.758695 L289.854801,177.910822 Z" id="Path" fill="#FFFFFF" fill-rule="nonzero"></path>
                <path d="M342.662995,139.804805 L291.324391,169.652923 C289.290147,170.835569 288.939261,171.971914 288.939261,172.499817 C288.939261,173.027638 289.289661,174.164227 291.324391,175.347199 L342.662995,205.194991 C344.68097,206.368833 347.510797,207.039717 350.499919,207.039717 C353.489041,207.039717 356.318868,206.368833 358.337086,205.194991 L409.675609,175.347199 C411.710501,174.164227 412.060982,173.027638 412.060982,172.499817 C412.060982,171.971914 411.709692,170.835569 409.675609,169.652923 L358.337086,139.804805 C356.318868,138.631534 353.489041,137.96008 350.499919,137.96008 C347.510797,137.96008 344.68097,138.631534 342.662995,139.804805 Z M286,172.499327 C286,174.457851 287.284637,176.416455 289.854801,177.910822 L341.193486,207.758695 C346.333247,210.747102 354.66651,210.747102 359.80619,207.758695 L411.144714,177.910822 C413.715444,176.416455 415,174.457851 415,172.499327 C415,170.541293 413.714635,168.583259 411.144714,167.089301 L359.80619,137.241183 C354.66651,134.252939 346.333247,134.252939 341.193486,137.241183 L289.854801,167.089301 C287.285284,168.583259 286,170.541293 286,172.499327 Z" id="Shape" fill="#291D4D"></path>
                <path d="M361,128.99726 C355.753372,126.334247 347.24671,126.334247 342,128.99726 L342,136 C347.24671,133.336987 355.753372,133.336987 361,136 L361,128.99726 Z" id="Path" fill="#FFFFFF" fill-rule="nonzero"></path>
                <path d="M345.000422,130.648694 L345.000422,132.102171 C347.101618,131.601358 349.327084,131.364826 351.500083,131.364826 C353.673081,131.364826 355.898465,131.601358 357.999826,132.102244 L357.999826,130.648694 C356.138826,129.99845 353.868411,129.637914 351.500083,129.637914 C349.131755,129.637914 346.861339,129.99845 345.000422,130.648694 Z M361,128.99726 C355.753372,126.334247 347.24671,126.334247 342,128.99726 L342,136 C342.912859,135.536671 343.924457,135.153906 345.000422,134.851849 C349.032272,133.71968 353.96781,133.71968 357.999826,134.851849 C359.075625,135.153906 360.086975,135.536671 361,136 L361,128.99726 Z" id="Shape" fill="#291D4D"></path>
                <polygon id="Path" fill="#FFFFFF" fill-rule="nonzero" points="342 129 291 158.289174 291 166 342 136.710826"></polygon>
                <path d="M293.919871,159.966251 L293.919871,160.969169 L339.080129,135.033749 L339.080129,134.030831 L293.919871,159.966251 Z M291,158.289174 L291,166 L342,136.710826 L342,129 L291,158.289174 Z" id="Shape" fill="#291D4D"></path>
                <polygon id="Path" fill="#FFFFFF" fill-rule="nonzero" points="412 158.289174 361 129 361 136.710826 412 166"></polygon>
                <path d="M361,129 L361,136.710826 L412,166 L412,158.289174 L361,129 Z M363.919639,134.030831 L363.919639,135.033749 L409.080361,160.969169 L409.080361,159.966251 L363.919639,134.030831 Z" id="Shape" fill="#291D4D"></path>
                <path d="M288,164.892998 C288.000252,163.122091 289.000273,161.351183 291,160 L291,167.107002 C289.000273,168.458185 288.000252,170.229092 288,172 L288,164.892998 Z" id="Path" fill="#FFFFFF" fill-rule="nonzero"></path>
                <path d="M290.287481,167.640486 C290.508903,167.456465 290.746451,167.278342 291,167.107002 L291,160 C289.974719,160.692807 289.212246,161.495834 288.712582,162.352682 C288.237611,163.167064 288.000126,164.030031 288,164.892998 L288,172 C288.000189,170.453663 288.762725,168.907326 290.287481,167.640486 Z" id="Path" fill="#291D4D"></path>
                <path d="M415,164.892998 C414.99937,163.122091 413.99979,161.351183 412,160 L412,167.107002 C413.99979,168.458185 414.99937,170.229092 415,172 L415,164.892998 Z" id="Path" fill="#FFFFFF" fill-rule="nonzero"></path>
                <path d="M415,164.892998 C415,164.030031 414.762545,163.167064 414.287634,162.352682 C413.787529,161.495834 413.025404,160.692807 412,160 L412,167.107002 C412.253832,167.278342 412.491287,167.456465 412.712996,167.640486 C414.237245,168.907326 414.99937,170.453663 415,172 L415,164.892998 Z" id="Path" fill="#291D4D"></path>
                <path d="M291,169.893029 C289.000273,168.541837 288.000252,166.770918 288,165 L288,172.105718 C287.999748,173.877079 288.999769,175.648513 291,177 L291,169.893029 Z" id="Path" fill="#FFFFFF" fill-rule="nonzero"></path>
                <path d="M290.287481,169.359541 C288.762725,168.092693 288.000189,166.546347 288,165 L288,172.105718 C287.999874,172.969133 288.237422,173.832548 288.712582,174.647377 C289.212246,175.50423 289.974719,176.307263 291,177 L291,169.893029 C290.746451,169.721614 290.508903,169.543563 290.287481,169.359541 Z" id="Path" fill="#291D4D"></path>
                <path d="M412,169.893029 C413.99979,168.541837 414.99937,166.770918 415,165 L415,172.105718 C415,173.877079 414.00042,175.648513 412,177 L412,169.893029 Z" id="Path" fill="#FFFFFF" fill-rule="nonzero"></path>
                <path d="M415,165 C414.99937,166.546347 414.237245,168.092693 412.712996,169.359541 C412.491287,169.543563 412.253832,169.721614 412,169.893029 L412,177 C413.025404,176.307263 413.787529,175.50423 414.287634,174.647377 C414.762545,173.832548 415,172.969133 415,172.105718 L415,165 Z" id="Path" fill="#291D4D"></path>
                <polygon id="Path" fill="#FFFFFF" fill-rule="nonzero" points="291 169 342 198.289684 342 206 291 176.710876"></polygon>
                <path d="M291,169 L291,176.710876 L342,206 L342,198.289684 L291,169 Z M293.919871,174.030863 L339.080129,199.966291 L339.080129,200.969376 L293.919871,175.033709 L293.919871,174.030863 Z" id="Shape" fill="#291D4D"></path>
                <polygon id="Path" fill="#FFFFFF" fill-rule="nonzero" points="361 198.289684 412 169 412 176.710876 361 206"></polygon>
                <path d="M363.919639,199.966291 L363.919639,200.969376 L409.080361,175.033709 L409.080361,174.030863 L363.919639,199.966291 Z M361,198.289684 L361,206 L412,176.710876 L412,169 L361,198.289684 Z" id="Shape" fill="#291D4D"></path>
                <path d="M342,199 C347.24671,201.66255 355.753372,201.66255 361,199 L361,206.002543 C355.753372,208.665819 347.24671,208.665819 342,206.002543 L342,199 Z" id="Path" fill="#FFFFFF" fill-rule="nonzero"></path>
                <path d="M342,199 L342,206.002543 C347.24671,208.665819 355.753372,208.665819 361,206.002543 L361,199 C360.086975,199.462768 359.075625,199.845623 357.999826,200.147839 C353.96781,201.280421 349.032272,201.280421 345.000422,200.147839 C343.924457,199.845623 342.912859,199.462768 342,199 Z M345.000422,202.897566 L345.000422,204.351253 C346.861339,205.001453 349.131755,205.361787 351.500083,205.361787 C353.868411,205.361787 356.138826,205.001453 357.999826,204.351253 L357.999826,202.897566 C355.898465,203.398838 353.673081,203.634944 351.500083,203.634944 C349.327084,203.634944 347.101618,203.398838 345.000422,202.897566 Z" id="Shape" fill="#291D4D"></path>
                <path d="M287.785691,178.675237 C284.594865,176.831646 283,174.415208 283,171.99893 C283,169.583218 284.595591,167.167506 287.785691,165.324399 L338.946431,135.765023 C345.327358,132.078326 355.6729,132.078326 362.053665,135.765023 L413.214325,165.324399 C416.405313,167.16799 418,169.584348 418,172.000706 C418,174.416419 416.404506,176.83205 413.214325,178.675237 L362.053665,208.234856 C355.6729,211.921715 345.327358,211.921715 338.946431,208.234856 L287.785691,178.675237 Z M292.344625,167.958481 C290.412851,169.074549 289.447327,170.537507 289.447327,172.000383 C289.447327,173.462856 290.413335,174.925329 292.344625,176.041155 L343.505446,205.600693 C347.368509,207.832829 353.631749,207.832829 357.494651,205.600693 L408.655311,176.041155 C410.587165,174.925007 411.552689,173.46213 411.552689,171.999253 C411.552689,170.53678 410.587165,169.074307 408.655311,167.958481 L357.494651,138.399025 C353.631749,136.16705 347.368509,136.16705 343.505446,138.399025 L292.344625,167.958481 Z" id="Shape" fill="#291D4D"></path>
                <path d="M286.960358,174.336175 C286.676427,173.611881 286.518411,172.831481 286.518249,172.000868 C286.518169,171.169448 286.676105,170.388321 286.960277,169.663462 C286.173903,170.564309 285.929175,171.392823 285.929094,171.999415 C285.928933,172.606088 286.173581,173.435005 286.960358,174.336175 Z M414.040304,174.336094 C414.324234,173.611235 414.482331,172.830108 414.482331,171.998769 C414.481525,171.168156 414.324234,170.387756 414.040304,169.663462 C414.826758,170.564632 415.071164,171.393468 415.071164,172.000222 C415.071164,172.606814 414.825951,173.435328 414.040304,174.336094 Z M283,171.99893 C283,174.415208 284.594865,176.831646 287.785691,178.675237 L338.946431,208.234856 C345.327358,211.921715 355.6729,211.921715 362.053665,208.234856 L413.214325,178.675237 C416.404506,176.83205 418,174.416419 418,172.000706 C418,169.584348 416.405313,167.16799 413.214325,165.324399 L362.053665,135.765023 C355.6729,132.078326 345.327358,132.078326 338.946431,135.765023 L287.785691,165.324399 C284.595591,167.167506 283,169.583218 283,171.99893 Z M289.447327,172.000383 C289.447327,170.537507 290.412851,169.074549 292.344625,167.958481 L343.505446,138.399025 C347.368509,136.16705 353.631749,136.16705 357.494651,138.399025 L408.655311,167.958481 C410.587165,169.074307 411.552689,170.53678 411.552689,171.999253 C411.552689,173.46213 410.587165,174.925007 408.655311,176.041155 L357.494651,205.600693 C353.631749,207.832829 347.368509,207.832829 343.505446,205.600693 L292.344625,176.041155 C290.413335,174.925329 289.447327,173.462856 289.447327,172.000383 Z" id="Shape" fill="#291D4D"></path>
                <path d="M339,127.883787 C345.351314,124.038738 355.648846,124.038738 362,127.883787 L362,136 C355.648846,132.154951 345.351314,132.154867 339,136 L339,127.883787 Z" id="Path" fill="#291D4D" fill-rule="nonzero"></path>
                <path d="M339,127.883787 L339,136 C339.900105,135.455085 340.879373,134.987378 341.915485,134.596963 C347.154575,132.622574 353.845586,132.622574 359.084756,134.596963 C360.120466,134.987378 361.099976,135.455085 362,136 L362,127.883787 C355.648846,124.038738 345.351314,124.038738 339,127.883787 Z M359.084756,129.766487 C356.647223,128.659987 353.627605,128.057399 350.50008,128.057399 C347.372556,128.057399 344.352857,128.659987 341.915485,129.766487 L341.915485,131.373278 C344.645506,130.481814 347.604908,130.058815 350.50008,130.058815 C353.395172,130.058815 356.354575,130.481814 359.084756,131.373278 L359.084756,129.766487 Z" id="Shape" fill="#291D4D"></path>
                <path d="M358,130.593327 C354.13414,128.468891 347.866102,128.468891 344,130.593327 L344,138 C347.866102,135.875641 354.13414,135.875641 358,138 L358,130.593327 Z" id="Path" fill="#291D4D" fill-rule="nonzero"></path>
                <path d="M346.931321,132.388982 L346.931321,134.019132 C348.272385,133.74552 349.653245,133.616666 351.000121,133.616666 C352.346997,133.616666 353.727857,133.74552 355.06884,134.019132 L355.06884,132.388982 C353.885834,132.00703 352.480433,131.790123 351.000121,131.790123 C349.519809,131.790123 348.114409,132.00703 346.931321,132.388982 Z M358,130.593327 C354.13414,128.468891 347.866102,128.468891 344,130.593327 L344,138 C344.873108,137.520313 345.868593,137.148889 346.931321,136.885803 C349.511817,136.247066 352.488344,136.247066 355.06884,136.885803 C356.131568,137.148889 357.127376,137.520313 358,138 L358,130.593327 Z" id="Shape" fill="#291D4D"></path>
                <polygon id="Path" fill="#291D4D" fill-rule="nonzero" points="288 156.289174 339 127 339 134.710826 288 164"></polygon>
                <path d="M290.919875,157.966251 L290.919875,158.969169 L336.080125,133.033749 L336.080125,132.030831 L290.919875,157.966251 Z M288,156.289174 L288,164 L339,134.710826 L339,127 L288,156.289174 Z" id="Shape" fill="#291D4D"></path>
                <polygon id="Path" fill="#291D4D" fill-rule="nonzero" points="362 127 413 156.289174 413 164 362 134.710826"></polygon>
                <path d="M362,127 L362,134.710826 L413,164 L413,156.289174 L362,127 Z M364.919639,132.030831 L410.080361,157.966251 L410.080361,158.969169 L364.919639,133.033749 L364.919639,132.030831 Z" id="Shape" fill="#291D4D"></path>
                <polygon id="Path" fill="#291D4D" fill-rule="nonzero" points="343 130 292 159.289254 292 167 343 137.710826"></polygon>
                <path d="M294.919871,160.966331 L294.919871,161.969249 L340.080129,136.033749 L340.080129,135.030831 L294.919871,160.966331 Z M292,159.289254 L292,167 L343,137.710826 L343,130 L292,159.289254 Z" id="Shape" fill="#291D4D"></path>
                <polygon id="Path" fill="#291D4D" fill-rule="nonzero" points="409 159.289174 358 130 358 137.710826 409 167"></polygon>
                <path d="M358,130 L358,137.710826 L409,167 L409,159.289174 L358,130 Z M360.919639,135.030831 L360.919639,136.033669 L406.080361,161.969169 L406.080361,160.966251 L360.919639,135.030831 Z" id="Shape" fill="#291D4D"></path>
                <path d="M283,164.46377 C283.000413,162.124338 284.667043,159.784907 288,158 L288,165.53623 C284.667043,167.321137 283.000413,169.660491 283,172 L283,164.46377 Z" id="Path" fill="#291D4D" fill-rule="nonzero"></path>
                <path d="M286.060263,166.775056 C286.627849,166.339599 287.2744,165.924781 288,165.53623 L288,158 C286.742883,158.673278 285.722745,159.425361 284.939754,160.226619 C283.646846,161.549722 283.000253,163.006746 283,164.46377 L283,172 C283.00032,170.169827 284.020408,168.339655 286.060263,166.775056 Z" id="Path" fill="#291D4D"></path>
                <path d="M413,158 C416.333895,159.785376 418.000842,162.125511 418,164.46549 L418,172 C418,169.660569 416.333052,167.321137 413,165.53623 L413,158 Z" id="Path" fill="#291D4D" fill-rule="nonzero"></path>
                <path d="M414.939996,166.775056 C416.979436,168.339733 418,170.169827 418,172 L418,164.46549 C418.000842,163.007918 417.353615,161.550269 416.060846,160.226697 C415.277094,159.425439 414.257374,158.673278 413,158 L413,165.53623 C413.725602,165.924781 414.371987,166.339677 414.939996,166.775056 Z" id="Path" fill="#291D4D"></path>
                <path d="M412,164.101358 C412,162.616957 411.000278,161.132556 409,160 L409,167.898642 C411.000278,169.031198 412,170.515599 412,172 L412,164.101358 Z" id="Path" fill="#291D4D" fill-rule="nonzero"></path>
                <path d="M409,167.898642 C411.000278,169.031198 412,170.515599 412,172 L412,164.101358 C412,162.616957 411.000278,161.132556 409,160 L409,167.898642 Z" id="Path" fill="#291D4D"></path>
                <path d="M294,160 C291.999749,161.132802 290.999749,162.617695 291,164.102505 L291,172 C291.000251,170.515599 292.000251,169.031198 294,167.898642 L294,160 Z" id="Path" fill="#291D4D" fill-rule="nonzero"></path>
                <path d="M291,172 C291.000251,170.515599 292.000251,169.031198 294,167.898642 L294,160 C291.999749,161.132802 290.999749,162.617695 291,164.102505 L291,172 Z" id="Path" fill="#291D4D"></path>
                <path d="M409,169.101358 C411.000278,167.968802 412,166.484401 412,165 L412,172.897495 C412.000835,174.382305 411.000278,175.867198 409,177 L409,169.101358 Z" id="Path" fill="#291D4D" fill-rule="nonzero"></path>
                <path d="M412,165 C412,166.484401 411.000278,167.968802 409,169.101358 L409,177 C411.000278,175.867198 412.000835,174.382305 412,172.897495 L412,165 Z" id="Path" fill="#291D4D"></path>
                <path d="M291,165 C291.000251,166.484401 292.000251,167.968802 294,169.101358 L294,177 C292.000251,175.867444 291.000251,174.383043 291,172.898642 L291,165 Z" id="Path" fill="#291D4D" fill-rule="nonzero"></path>
                <path d="M291,165 C291.000251,166.484401 292.000251,167.968802 294,169.101358 L294,177 C292.000251,175.867444 291.000251,174.383043 291,172.898642 L291,165 Z" id="Path" fill="#291D4D"></path>
                <path d="M288,170.46377 C284.667043,168.678863 283.000413,166.339431 283,164 L283,171.53451 C282.999587,173.874489 284.666285,176.214624 288,178 L288,170.46377 Z" id="Path" fill="#291D4D" fill-rule="nonzero"></path>
                <path d="M283,171.53451 C282.999739,172.992082 283.646332,174.449731 284.939754,175.773303 C285.722745,176.574561 286.742883,177.326722 288,178 L288,170.46377 C287.2744,170.075219 286.627849,169.660323 286.060263,169.224944 C284.020408,167.660267 283.00032,165.830173 283,164 L283,171.53451 Z" id="Path" fill="#291D4D"></path>
                <path d="M418,164 C418,166.339431 416.333052,168.678863 413,170.46377 L413,178 C416.333052,176.215015 418,173.875662 418,171.53623 L418,164 Z" id="Path" fill="#291D4D" fill-rule="nonzero"></path>
                <path d="M414.939997,169.224944 C414.371987,169.660323 413.725603,170.075219 413,170.46377 L413,178 C414.257374,177.326722 415.277094,176.574561 416.060846,175.773303 C417.353615,174.450278 418,172.993254 418,171.53623 L418,164 C418,165.830173 416.979437,167.660267 414.939997,169.224944 Z" id="Path" fill="#291D4D"></path>
                <polygon id="Path" fill="#291D4D" fill-rule="nonzero" points="292 168 343 197.288967 343 205 292 175.710793"></polygon>
                <path d="M292,168 L292,175.710793 L343,205 L343,197.288967 L292,168 Z M294.919871,173.030809 L340.080129,198.966357 L340.080129,199.969431 L294.919871,174.033723 L294.919871,173.030809 Z" id="Shape" fill="#291D4D"></path>
                <polygon id="Path" fill="#291D4D" fill-rule="nonzero" points="358 197.288967 409 168 409 175.710793 358 205"></polygon>
                <path d="M360.919639,198.966357 L360.919639,199.969431 L406.080361,174.033723 L406.080361,173.030809 L360.919639,198.966357 Z M358,197.288967 L358,205 L409,175.710793 L409,168 L358,197.288967 Z" id="Shape" fill="#291D4D"></path>
                <polygon id="Path" fill="#291D4D" fill-rule="nonzero" points="339 200.288984 288 171 288 178.710776 339 208"></polygon>
                <path d="M288,171 L288,178.710776 L339,208 L339,200.288984 L288,171 Z M290.919875,176.030798 L290.919875,177.03371 L336.080205,202.968642 L336.080205,201.96637 L290.919875,176.030798 Z" id="Shape" fill="#291D4D"></path>
                <polygon id="Path" fill="#291D4D" fill-rule="nonzero" points="413 171 362 200.288984 362 208 413 178.710776"></polygon>
                <path d="M364.919639,201.96637 L364.919639,202.968642 L410.080361,177.03371 L410.080361,176.030798 L364.919639,201.96637 Z M362,200.288984 L362,208 L413,178.710776 L413,171 L362,200.288984 Z" id="Shape" fill="#291D4D"></path>
                <path d="M344,197 C347.866102,199.124426 354.13414,199.124426 358,197 L358,204.40668 C354.13414,206.531107 347.866102,206.531107 344,204.40668 L344,197 Z" id="Path" fill="#291D4D" fill-rule="nonzero"></path>
                <path d="M344,197 L344,204.40668 C347.866102,206.531107 354.13414,206.531107 358,204.40668 L358,197 C357.127376,197.480205 356.131568,197.851307 355.06884,198.114075 C352.488344,198.753324 349.511817,198.753324 346.931321,198.114075 C345.868593,197.851307 344.873108,197.480205 344,197 Z M346.931321,200.980706 L346.931321,202.611098 C348.114409,202.992957 349.519809,203.209625 351.000121,203.209625 C352.480433,203.209625 353.885834,202.992957 355.06884,202.611098 L355.06884,200.980706 C353.727857,201.254231 352.346997,201.38331 351.000121,201.38331 C349.653245,201.38331 348.272385,201.254231 346.931321,200.980706 Z" id="Shape" fill="#291D4D"></path>
                <path d="M362,200 C355.648846,203.845085 345.351314,203.845085 339,200 L339,208.116186 C345.351314,211.961271 355.648846,211.961271 362,208.116186 L362,200 Z" id="Path" fill="#291D4D" fill-rule="nonzero"></path>
                <path d="M339,200 L339,208.116186 C345.351314,211.961271 355.648846,211.961271 362,208.116186 L362,200 C361.099976,200.544727 360.120466,201.012839 359.084756,201.402652 C353.845586,203.376973 347.154575,203.376973 341.915485,201.402652 C340.879373,201.012839 339.900105,200.544727 339,200 Z M341.915485,204.626394 L341.915485,206.233635 C344.352857,207.339928 347.372556,207.942749 350.50008,207.942749 C353.627605,207.942749 356.647223,207.339928 359.084756,206.233635 L359.084756,204.626394 C356.354575,205.517996 353.395172,205.940644 350.50008,205.940644 C347.604908,205.940644 344.645506,205.517996 341.915485,204.626394 Z" id="Shape" fill="#291D4D"></path>
                <path d="M287.785685,170.675379 C281.404768,166.988589 281.404776,161.011209 287.785685,157.3245 L338.946348,127.765032 C345.327265,124.078323 355.672792,124.078323 362.053548,127.765032 L413.214131,157.3245 C419.59529,161.011209 419.59529,166.988589 413.214131,170.675379 L362.053548,200.234847 C355.672792,203.921718 345.327265,203.921718 338.946348,200.234847 L287.785685,170.675379 Z M292.344611,159.95859 C288.481554,162.190572 288.481554,165.809307 292.344611,168.041289 L343.505275,197.600676 C347.368413,199.832819 353.631644,199.832819 357.49454,197.600676 L408.655123,168.041289 C412.518826,165.809307 412.518826,162.190572 408.655123,159.95859 L357.49454,130.399122 C353.631644,128.16706 347.368413,128.16706 343.505356,130.399042 L292.344611,159.95859 Z" id="Shape" fill="#291D4D"></path>
                <path d="M287.785685,157.3245 C281.404776,161.011209 281.404768,166.988589 287.785685,170.675379 L338.946348,200.234847 C345.327265,203.921718 355.672792,203.921718 362.053548,200.234847 L413.214131,170.675379 C419.59529,166.988589 419.59529,161.011209 413.214131,157.3245 L362.053548,127.765032 C355.672792,124.078323 345.327265,124.078323 338.946348,127.765032 L287.785685,157.3245 Z M292.344611,168.041289 C288.481554,165.809307 288.481554,162.190572 292.344611,159.95859 L343.505356,130.399042 C347.368413,128.16706 353.631644,128.16706 357.49454,130.399122 L408.655123,159.95859 C412.518826,162.190572 412.518826,165.809307 408.655123,168.041289 L357.49454,197.600676 C353.631644,199.832819 347.368413,199.832819 343.505275,197.600676 L292.344611,168.041289 Z" id="Shape" fill="#291D4D"></path>
                <path d="M289.854832,169.910845 C284.715056,166.922518 284.715056,162.077645 289.854832,159.089318 L341.193671,129.241184 C346.333447,126.252939 354.666735,126.252939 359.80643,129.241184 L411.145107,159.089318 C416.284964,162.077645 416.284964,166.922518 411.145107,169.910845 L359.80643,199.759305 C354.666735,202.746898 346.333447,202.746898 341.193671,199.759305 L289.854832,169.910845 Z" id="Path" fill="#FFFFFF" fill-rule="nonzero"></path>
                <path d="M343.739155,130.721123 L292.400397,160.569257 C288.666433,162.740214 288.666433,166.259949 292.400397,168.430825 L343.739155,198.278959 C347.47312,200.449753 353.527062,200.449753 357.260784,198.278959 L408.599461,168.430825 C412.334154,166.259949 412.334154,162.740214 408.599461,160.569338 L357.260784,130.721123 C353.527062,128.550247 347.47312,128.550247 343.739155,130.721123 Z M289.854832,159.089318 C284.715056,162.077645 284.715056,166.922518 289.854832,169.910845 L341.193671,199.759305 C346.333447,202.746898 354.666735,202.746898 359.80643,199.759305 L411.145107,169.910845 C416.284964,166.922518 416.284964,162.077645 411.145107,159.089318 L359.80643,129.241184 C354.666735,126.252939 346.333447,126.252939 341.193671,129.241184 L289.854832,159.089318 Z" id="Shape" fill="#291D4D"></path>
                <path d="M346.649162,113.094706 C347.959149,112.32948 349.560739,112 351.063001,112 C352.565344,112 354.166934,112.32948 355.476921,113.094706 L398.634722,138.305503 C399.934858,139.064772 401,140.319135 401,141.954685 L401,153.08167 C401,154.717302 399.934858,155.971665 398.634722,156.730852 L384.476164,165.001672 C383.166338,165.766906 381.564991,166.096369 380.062163,166.096369 C378.560143,166.096369 376.958796,165.766906 375.648162,165.001672 L372.876693,163.382464 L372.876693,168.984811 C372.876693,170.620034 371.811551,171.87407 370.512223,172.633012 L356.350273,180.905711 C355.04077,181.6707 353.439746,182 351.938049,182 C350.436271,182 348.835328,181.6707 347.525744,180.905711 L304.36447,155.692945 C303.065223,154.934002 302,153.680048 302,152.044743 L302,140.917758 C302,139.282453 303.065223,138.028499 304.36447,137.269557 L318.526339,128.996858 C319.835923,128.231869 321.436947,127.902487 322.938644,127.902487 C324.440341,127.902487 326.041366,128.231869 327.350869,128.996858 L330.125326,130.617536 L330.125326,125.014699 C330.125326,123.379067 331.190791,122.124704 332.490523,121.365517 L346.649162,113.094706 Z M348.481788,127.433868 L343.098984,130.578151 L377.481273,150.662583 C378.103077,151.025711 379.03336,151.260389 380.062163,151.260389 C381.091774,151.260389 382.022057,151.025711 382.643861,150.662583 L388.0261,147.518218 L353.644295,127.433868 C353.022653,127.070658 352.09245,126.83598 351.063001,126.83598 C350.033633,126.83598 349.10343,127.070658 348.481788,127.433868 Z M314.974627,146.481291 L320.358965,143.335947 C320.980204,142.973063 321.909761,142.738468 322.938644,142.738468 C323.967447,142.738468 324.897004,142.973063 325.518243,143.335947 L336.942155,150.009212 C338.643233,151.002914 340.738955,151.002914 342.440033,150.009212 L344.3413,148.898581 L357.459911,156.561871 L357.459911,159.359368 C357.459668,160.896454 358.211001,162.433623 359.714637,163.311865 L359.901985,163.421277 L354.517647,166.566541 C353.896408,166.929424 352.966852,167.16402 351.938049,167.16402 C350.909165,167.16402 349.979608,166.929424 349.35837,166.566541 L314.974627,146.481291 Z M358.130248,150.485676 L360.419617,151.822895 L360.419617,152.596545 L359.714637,152.18488 C359.03146,151.785552 358.502523,151.250011 358.130248,150.640112 L358.130248,150.485676 Z" id="Shape" fill="#291D4D"></path>
                <path d="M344.967054,111.258571 C346.538066,110.357367 348.391209,110 350.06688,110 C351.74263,110 353.595774,110.357367 355.166705,111.258563 L397.929831,135.789686 C399.474117,136.675576 401,138.294779 401,140.590685 L401,151.417679 C401,153.713664 399.474117,155.332867 397.929831,156.218758 L383.900831,164.266512 C382.33014,165.167747 380.476996,165.525141 378.800685,165.525141 C377.125175,165.525141 375.272031,165.167747 373.70134,164.266512 L373.134035,163.941081 L373.134035,166.892062 C373.134035,169.187649 371.608152,170.806534 370.064666,171.692106 L356.032065,179.741768 C354.461534,180.642766 352.608951,181 350.93384,181 C349.25873,181 347.406227,180.642766 345.835615,179.741768 L303.069289,155.208833 C301.525483,154.323181 300,152.704375 300,150.408709 L300,139.581714 C300,137.286127 301.525483,135.667242 303.069289,134.78159 L317.10165,126.731928 C318.672181,125.83101 320.524764,125.473775 322.199875,125.473775 C323.874985,125.473775 325.727489,125.83101 327.2981,126.731928 L327.867965,127.058869 L327.867965,124.107411 C327.867965,121.811427 329.393768,120.192223 330.937974,119.306412 L344.967054,111.258571 Z M350.06688,112.887196 C348.765439,112.887196 347.444714,113.171012 346.419724,113.759014 L332.390643,121.806815 C331.359332,122.398442 330.773544,123.220328 330.773544,124.107411 L330.773544,129.559192 C330.773544,130.074888 330.496692,130.551466 330.047169,130.809394 C329.597726,131.067242 329.043943,131.067242 328.59442,130.809394 L325.84535,129.23241 C324.82084,128.644679 323.500676,128.36099 322.199875,128.36099 C320.898994,128.36099 319.578829,128.644679 318.554319,129.23241 L304.521958,137.282072 C303.491047,137.873461 302.905579,138.694949 302.905579,139.581714 L302.905579,150.408709 C302.905579,151.295474 303.491047,152.116962 304.521958,152.708351 L347.288365,177.241366 C348.312875,177.829097 349.633039,178.112785 350.93384,178.112785 C352.234722,178.112785 353.554886,177.829097 354.579396,177.241366 L368.611597,169.191704 C369.642988,168.600315 370.227896,167.778747 370.227896,166.892062 L370.227896,161.440758 C370.227896,160.925061 370.504748,160.448484 370.954431,160.190636 C371.404115,159.932708 371.957817,159.932708 372.4075,160.190556 L375.153609,161.766109 C376.178599,162.354079 377.499644,162.637926 378.800685,162.637926 C380.102527,162.637926 381.422771,162.354079 382.447761,161.766109 L396.477562,153.718276 C397.508153,153.126648 398.094662,152.304763 398.094662,151.417679 L398.094662,140.590685 C398.094662,139.703681 397.508153,138.881795 396.477562,138.290168 L353.714036,113.759006 C352.689046,113.171012 351.368321,112.887196 350.06688,112.887196 Z M350.06688,127.323157 C349.234725,127.323157 348.579084,127.514536 348.23558,127.71156 L345.081476,129.520869 L376.969946,147.813531 C377.31321,148.010634 377.968531,148.201933 378.800685,148.201933 C379.63284,148.201933 380.288961,148.010634 380.632225,147.813531 L383.78641,146.004222 L351.898179,127.71156 C351.554675,127.514536 350.899034,127.323157 350.06688,127.323157 Z M346.782911,125.211077 C347.671396,124.701424 348.858976,124.436022 350.06688,124.436022 C351.274784,124.436022 352.462444,124.701424 353.350848,125.211077 L387.418283,144.75402 C387.867966,145.011868 388.144817,145.488446 388.144817,146.004222 C388.144817,146.519997 387.867966,146.996575 387.418283,147.254423 L382.085294,150.314013 C381.196329,150.823667 380.008909,151.089148 378.800685,151.089148 C377.593262,151.089148 376.405041,150.823667 375.516877,150.314013 L341.449443,130.77115 C340.999919,130.513222 340.722988,130.036645 340.722988,129.520869 C340.722988,129.005093 340.999919,128.528516 341.449443,128.270668 L346.782911,125.211077 Z M318.917506,140.684505 C319.805511,140.17509 320.992531,139.909769 322.199875,139.909769 C323.407138,139.909769 324.594158,140.17509 325.482243,140.684505 L336.801541,147.177856 C338.03761,147.886918 339.560372,147.886918 340.796441,147.177856 L342.680311,146.097168 C343.129754,145.83932 343.683537,145.83932 344.13298,146.097168 L357.131869,153.553851 C357.580752,153.811699 357.858404,154.288277 357.858404,154.804052 L357.858404,157.526126 C357.857604,158.545354 358.359297,159.544306 359.365883,160.12186 L359.551518,160.228323 C360.001201,160.486171 360.278052,160.962749 360.278052,161.478524 C360.278052,161.9943 360.001201,162.470878 359.551518,162.728726 L354.216209,165.78927 C353.328204,166.298685 352.141184,166.564007 350.93384,166.564007 C349.726577,166.564007 348.539557,166.298685 347.651552,165.78927 L313.582357,146.245452 C313.132834,145.987604 312.855903,145.510947 312.855903,144.995251 C312.855903,144.479475 313.132834,144.002898 313.582357,143.74497 L318.917506,140.684505 Z M322.199875,142.796983 C321.368281,142.796983 320.713199,142.988123 320.370176,143.184908 L317.214471,144.995251 L349.104221,163.288788 C349.447245,163.485573 350.102326,163.676792 350.93384,163.676792 C351.765435,163.676792 352.420516,163.485573 352.76354,163.288788 L356.292114,161.264645 C355.399228,160.187932 354.952265,158.852338 354.952505,157.526126 C354.952505,157.526047 354.952505,157.526206 354.952505,157.526126 L354.952505,155.637546 L343.406685,149.014278 L342.249111,149.678338 C340.114155,150.903017 337.483827,150.903017 335.348872,149.678338 L324.029494,143.184908 C323.68647,142.988123 323.031389,142.796983 322.199875,142.796983 Z M356.343003,147.641473 C356.792606,147.383546 357.346309,147.383546 357.795992,147.641394 L360.064413,148.94264 C360.513296,149.200488 360.790147,149.677066 360.790147,150.192841 L360.790147,150.945634 C360.790147,151.461409 360.513296,151.937987 360.064413,152.195835 C359.614729,152.453683 359.061027,152.453763 358.611343,152.195835 L357.912814,151.795348 C357.025449,151.285933 356.3278,150.594999 355.833789,149.801259 C355.691842,149.573147 355.616628,149.310211 355.616628,149.041947 L355.616628,148.891675 C355.616628,148.375899 355.89348,147.899322 356.343003,147.641473 Z" id="Shape" fill="#291D4D"></path>
                <path d="M332.470197,125.924727 C330.545273,124.820094 330.545273,123.029244 332.470197,121.924691 L346.579088,113.828427 C348.503931,112.723858 351.6248,112.723858 353.549643,113.828427 L396.556368,138.507306 C398.481211,139.611859 398.481211,141.402708 396.556368,142.507261 L382.446753,150.603558 C380.52191,151.708111 377.401282,151.708111 375.476439,150.603558 L332.470197,125.924727 Z M304.442968,141.491255 C302.519011,140.387181 302.519011,138.597212 304.442968,137.493139 L318.555078,129.395003 C320.479116,128.290929 323.598457,128.290929 325.522415,129.395003 L336.906188,135.927455 C338.036228,136.575917 339.42844,136.575917 340.558562,135.927455 L342.733586,134.679324 C343.082987,134.478874 343.649496,134.478874 343.998897,134.679324 L359.598897,143.631171 C359.948137,143.831701 359.948137,144.156772 359.598897,144.357302 L359.598897,144.357302 C357.820509,145.377707 357.820509,147.929002 359.598897,148.949408 L368.531875,154.075753 C370.455914,155.179746 370.455914,156.969796 368.531875,158.073869 L354.419926,166.172005 C352.495969,167.275998 349.376548,167.275998 347.45259,166.172005 L304.442968,141.491255 Z" id="Shape" fill="#FFFFFF"></path>
                <path d="M350.564228,112 C352.015298,112 353.545615,112.313774 354.78343,113.024681 L397.823958,137.74488 C399.05372,138.451076 400,139.580075 400,141.00809 C400,142.436185 399.05372,143.565104 397.823958,144.271299 L383.703847,152.38117 C382.466032,153.092093 380.935876,153.405851 379.484645,153.405851 C378.034219,153.405851 376.503258,153.092093 375.265443,152.38117 L361.824238,144.660933 C361.759005,145.404385 361.250027,145.887601 360.83769,146.124442 C360.032345,146.586666 360.032345,147.742346 360.83769,148.20457 L369.777823,153.33943 C371.00678,154.045385 371.95306,155.173984 371.95306,156.601758 C371.95306,158.029452 371.00678,159.158051 369.777823,159.864006 L355.65441,167.97572 C354.417078,168.686402 352.887326,169 351.4369,169 C349.986393,169 348.456721,168.686402 347.219389,167.97572 L304.175236,143.25359 C302.946119,142.547715 302,141.419036 302,139.991341 C302,138.563647 302.946119,137.434968 304.175236,136.729093 L318.29873,128.617379 C319.536062,127.906697 321.065734,127.593099 322.516241,127.593099 C323.966747,127.593099 325.49642,127.906697 326.733751,128.617379 L338.126562,135.160785 C338.805146,135.550498 339.641174,135.550498 340.319758,135.160785 L342.496525,133.910561 C342.605407,133.847985 342.717109,133.795505 342.829857,133.751839 L332.224915,127.660963 C330.995395,126.954767 330.048953,125.825768 330.048953,124.397753 C330.048953,122.969658 330.995395,121.840739 332.224915,121.134543 L346.345107,113.024681 C347.582922,112.313774 349.113238,112 350.564228,112 Z M350.564228,114.909455 C349.490462,114.909455 348.495861,115.148892 347.807291,115.544398 L333.687018,123.654221 C332.990234,124.05451 332.973402,124.375639 332.973402,124.397753 C332.973402,124.419867 332.990234,124.740996 333.687018,125.141205 L376.72795,149.861493 C377.416519,150.256975 378.41112,150.49638 379.484645,150.49638 C380.558975,150.49638 381.553576,150.256975 382.242146,149.861493 L396.362257,141.751622 C397.058881,141.351413 397.075793,141.030203 397.075793,141.00809 C397.075793,140.986056 397.058881,140.664847 396.362257,140.264638 L353.321326,115.544398 C352.632676,115.148892 351.638075,114.909455 350.564228,114.909455 Z M322.516241,130.50249 C321.443038,130.50249 320.449001,130.741815 319.760834,131.137057 L305.637421,139.24877 C304.940958,139.64874 304.924449,139.969628 304.924449,139.991341 C304.924449,140.013135 304.940958,140.333943 305.637421,140.733912 L348.681493,165.455963 C349.36966,165.851285 350.363697,166.090529 351.4369,166.090529 C352.510102,166.090529 353.504059,165.851285 354.192306,165.455963 L368.316123,157.344249 C369.01194,156.94428 369.028853,156.623471 369.028853,156.601758 C369.028853,156.579965 369.01194,156.259156 368.316123,155.859187 L359.375184,150.724247 C357.125856,149.43252 356.713439,146.558463 358.137369,144.686011 L343.860779,136.486484 L341.781862,137.680462 C340.198554,138.589847 338.247847,138.589847 336.664459,137.680462 L325.271648,131.137057 C324.583481,130.741815 323.589443,130.50249 322.516241,130.50249 Z" id="Shape" fill="#291D4D"></path>
            </g>
        </g>
    </g>
</svg>