<?xml version="1.0" encoding="UTF-8"?>
<svg width="700px" height="320px" viewBox="0 0 700 320" version="1.1" xmlns="http://www.w3.org/2000/svg" xmlns:xlink="http://www.w3.org/1999/xlink">
    <!-- Generator: Sketch 60.1 (88133) - https://sketch.com -->
    <title>Group 4</title>
    <desc>Created with Sketch.</desc>
    <defs>
        <radialGradient cx="50%" cy="50%" fx="50%" fy="50%" r="100%" gradientTransform="translate(0.500000,0.500000),scale(0.457143,1.000000),rotate(90.000000),translate(-0.500000,-0.500000)" id="radialGradient-1">
            <stop stop-color="#FAFAF9" offset="0%"></stop>
            <stop stop-color="#F3FCEA" offset="100%"></stop>
        </radialGradient>
    </defs>
    <g id="Page-1" stroke="none" stroke-width="1" fill="none" fill-rule="evenodd">
        <g id="Group-2">
            <g id="Group-4">
                <g id="Group-Copy" fill="url(#radialGradient-1)">
                    <rect id="Rectangle-Copy" x="0" y="0" width="700" height="320" rx="10"></rect>
                </g>
                <g id="Pimento_logo_dark" transform="translate(248.000000, 142.000000)" fill="#163300" fill-rule="nonzero">
                    <path d="M187.000391,0 C197.624853,0 204,8.04997539 204,18 C204,27.9500246 197.624853,36 187.000391,36 C176.375147,36 170,27.9500246 170,18 C170,8.04997539 176.375147,0 187.000391,0 Z M187.000391,31.5999859 C194.413043,31.5999859 198.860947,25.5499666 198.860947,18 C198.860947,10.4500334 194.413043,4.39999824 187.000391,4.39999824 C179.586957,4.39999824 175.139053,10.4500334 175.139053,18 C175.139053,25.5499666 179.586957,31.5999859 187.000391,31.5999859 Z" id="Shape"></path>
                    <polygon id="Path" points="142 0 169 0 169 4.37500088 158.080963 4.37500088 158.080963 35 152.919037 35 152.919037 4.37500088 142 4.37500088"></polygon>
                    <path d="M109,35 L109,0 L117.05529,0 L132.864782,30.9729511 C132.965145,31.1221564 133.066304,31.3209919 133.318007,31.271283 C133.670073,31.1718653 133.619891,30.8735333 133.41837,30.4260747 C132.914964,29.282613 132.763623,28.0894425 132.763623,26.6477275 L132.763623,0 L138,0 L138,35 L129.94471,35 L114.135218,4.02698363 C114.085036,3.87784125 113.883515,3.62925749 113.681993,3.728691 C113.329927,3.87784125 113.380109,4.12641713 113.58163,4.57386002 C114.085036,5.71732168 114.23558,6.91050796 114.23558,8.35226226 L114.23558,35 L109,35 Z" id="Path"></path>
                    <polygon id="Path" points="105 4.37500088 87.1553752 4.37500088 87.1553752 15.31245 101.827884 15.31245 101.827884 19.6874611 87.1553752 19.6874611 87.1553752 30.6249889 105 30.6249889 105 35 82 35 82 0 105 0"></polygon>
                    <path d="M40,35 L40,0 L49.4511185,0 L57.6956453,28.4374833 C57.9470484,29.3324006 58.0475778,29.9786947 58.0978425,31.0227386 C58.0978425,31.3209919 58.0978425,31.6193239 58.5000398,31.6193239 C58.9021575,31.6193239 58.9021575,31.3209919 58.9021575,31.0227386 C58.9524222,29.9786947 59.0530312,29.3324006 59.3043547,28.4374833 L67.548961,0 L77,0 L77,35 L71.7717538,35 L71.7717538,6.41334832 C71.7717538,5.51846255 71.8722833,4.67329352 72.2242158,3.43039836 C72.3247452,3.03267222 72.4252747,2.73437172 72.0734217,2.63494608 C71.7717538,2.53551258 71.6209597,2.83380522 71.570695,3.03267222 L61.9185176,35 L55.0815619,35 L45.4293846,3.03267222 C45.3790403,2.83380522 45.2282462,2.53551258 44.9266579,2.63494608 C44.5747253,2.73437172 44.6249901,3.03267222 44.7757842,3.43039836 C45.1277167,4.67329352 45.2282462,5.51846255 45.2282462,6.41334832 L45.2282462,35 L40,35 Z" id="Path"></path>
                    <polygon id="Path" points="34 35 29 35 29 0 34 0"></polygon>
                    <path d="M12.9014901,0 C22.6515193,0 26,4.67329352 26,10.9375175 C26,17.2017023 22.0606155,21.8749667 13.6894137,21.8749667 L5.12120764,21.8749667 L5.12120764,35 L0,35 L0,0 L12.9014901,0 Z M13.6401782,17.4999556 C18.4166439,17.4999556 20.8788079,14.6661558 20.8788079,10.9375175 C20.8788079,6.81107446 18.4166439,4.37500088 13.6401782,4.37500088 L5.12120764,4.37500088 L5.12120764,17.4999556 L13.6401782,17.4999556 Z" id="Shape"></path>
                </g>
            </g>
        </g>
    </g>
</svg>