<svg width="412" height="416" viewBox="0 0 412 416" fill="none" xmlns="http://www.w3.org/2000/svg">
<g filter="url(#filter0_d_3039_17962)">
<rect x="1" y="0.938591" width="407" height="144" rx="4" fill="white" shape-rendering="crispEdges"/>
<rect x="33" y="32.9386" width="69" height="28" rx="8" fill="#FDF9C9"/>
<path d="M48.264 51.9386L45.416 40.4986H47.592L49.576 48.8986L51.8 40.4986H53.56L55.832 48.9466L57.88 40.4986H59.864L57 51.9386H54.872L52.616 43.6026L50.296 51.9386H48.264ZM61.4333 51.9386V39.6986H63.3693V44.8986C63.5826 44.4613 63.9239 44.1039 64.3932 43.8266C64.8626 43.5386 65.4226 43.3946 66.0733 43.3946C66.9586 43.3946 67.6573 43.6666 68.1693 44.2106C68.6813 44.7439 68.9373 45.5653 68.9373 46.6746V51.9386H67.0013V46.8506C67.0013 46.2213 66.8679 45.7573 66.6013 45.4586C66.3346 45.1599 65.9133 45.0106 65.3373 45.0106C64.7613 45.0106 64.2866 45.1866 63.9133 45.5386C63.5506 45.8799 63.3693 46.3706 63.3693 47.0106V51.9386H61.4333ZM74.8476 52.0986C73.5996 52.0986 72.581 51.7146 71.7916 50.9466C71.0023 50.1786 70.6076 49.1439 70.6076 47.8426V47.7146C70.6076 46.4346 70.997 45.3946 71.7756 44.5946C72.565 43.7946 73.5623 43.3946 74.7676 43.3946C75.8983 43.3946 76.837 43.7466 77.5836 44.4506C78.341 45.1546 78.7196 46.2106 78.7196 47.6186V48.1786H72.5916C72.6236 48.9786 72.837 49.5919 73.2316 50.0186C73.6263 50.4453 74.181 50.6586 74.8956 50.6586C76.0263 50.6586 76.6663 50.2319 76.8156 49.3786H78.6876C78.549 50.2533 78.1436 50.9253 77.4716 51.3946C76.7996 51.8639 75.925 52.0986 74.8476 52.0986ZM72.6236 46.8826H76.7996C76.7036 45.4959 76.0263 44.8026 74.7676 44.8026C74.1916 44.8026 73.7116 44.9893 73.3276 45.3626C72.9543 45.7253 72.7196 46.2319 72.6236 46.8826ZM80.4489 51.9386V43.5706H82.3849V44.8986C82.5982 44.4613 82.9395 44.1039 83.4089 43.8266C83.8782 43.5386 84.4382 43.3946 85.0889 43.3946C85.9742 43.3946 86.6729 43.6666 87.1849 44.2106C87.6969 44.7439 87.9529 45.5653 87.9529 46.6746V51.9386H86.0169V46.8506C86.0169 46.2213 85.8835 45.7573 85.6169 45.4586C85.3502 45.1599 84.9289 45.0106 84.3529 45.0106C83.7769 45.0106 83.3022 45.1866 82.9289 45.5386C82.5662 45.8799 82.3849 46.3706 82.3849 47.0106V51.9386H80.4489Z" fill="#6A421C"/>
<path d="M40.362 95.8046C41.082 95.8046 41.724 95.6786 42.288 95.4266C42.864 95.1626 43.35 94.8026 43.746 94.3466C44.142 93.8786 44.448 93.3206 44.664 92.6726C44.88 92.0246 44.988 91.3106 44.988 90.5306V90.3866C44.988 89.6666 44.88 88.9886 44.664 88.3526C44.46 87.7166 44.16 87.1646 43.764 86.6966C43.368 86.2286 42.882 85.8566 42.306 85.5806C41.73 85.3046 41.07 85.1666 40.326 85.1666C39.582 85.1666 38.916 85.2986 38.328 85.5626C37.74 85.8146 37.242 86.1746 36.834 86.6426C36.438 87.1106 36.132 87.6686 35.916 88.3166C35.712 88.9526 35.61 89.6546 35.61 90.4226V90.5666C35.61 91.3466 35.73 92.0606 35.97 92.7086C36.222 93.3446 36.558 93.8966 36.978 94.3646C37.41 94.8206 37.914 95.1746 38.49 95.4266C39.066 95.6786 39.69 95.8046 40.362 95.8046ZM40.362 97.1006C39.414 97.1006 38.544 96.9326 37.752 96.5966C36.972 96.2486 36.3 95.7806 35.736 95.1926C35.184 94.6046 34.752 93.9146 34.44 93.1226C34.14 92.3306 33.99 91.4846 33.99 90.5846V90.4406C33.99 89.5286 34.14 88.6766 34.44 87.8846C34.752 87.0806 35.184 86.3846 35.736 85.7966C36.3 85.2086 36.966 84.7466 37.734 84.4106C38.514 84.0746 39.378 83.9066 40.326 83.9066C41.274 83.9066 42.132 84.0746 42.9 84.4106C43.68 84.7466 44.34 85.2086 44.88 85.7966C45.432 86.3846 45.858 87.0746 46.158 87.8666C46.458 88.6586 46.608 89.5046 46.608 90.4046V90.5486C46.608 91.4606 46.458 92.3126 46.158 93.1046C45.858 93.8966 45.432 94.5926 44.88 95.1926C44.34 95.7806 43.686 96.2486 42.918 96.5966C42.15 96.9326 41.298 97.1006 40.362 97.1006ZM49.1018 87.5246H50.5958V89.2166C50.8958 88.6886 51.2738 88.2566 51.7298 87.9206C52.1978 87.5726 52.8518 87.3866 53.6918 87.3626V88.7666C53.2238 88.7906 52.7978 88.8506 52.4138 88.9466C52.0298 89.0426 51.6998 89.2046 51.4238 89.4326C51.1598 89.6606 50.9558 89.9666 50.8118 90.3506C50.6678 90.7226 50.5958 91.1966 50.5958 91.7726V96.9386H49.1018V87.5246ZM59.1518 97.1006C58.5398 97.1006 57.9698 96.9986 57.4418 96.7946C56.9258 96.5786 56.4758 96.2726 56.0918 95.8766C55.7198 95.4686 55.4258 94.9766 55.2098 94.4006C55.0058 93.8126 54.9038 93.1526 54.9038 92.4206V92.2766C54.9038 91.5566 55.0118 90.8966 55.2278 90.2966C55.4438 89.6966 55.7438 89.1806 56.1278 88.7486C56.5118 88.3046 56.9738 87.9626 57.5138 87.7226C58.0538 87.4826 58.6478 87.3626 59.2958 87.3626C60.0878 87.3626 60.7298 87.5306 61.2218 87.8666C61.7138 88.1906 62.0978 88.5806 62.3738 89.0366V83.0246H63.8678V96.9386H62.3738V95.3186C62.2418 95.5466 62.0618 95.7686 61.8338 95.9846C61.6058 96.2006 61.3478 96.3926 61.0598 96.5606C60.7838 96.7166 60.4838 96.8426 60.1598 96.9386C59.8358 97.0466 59.4998 97.1006 59.1518 97.1006ZM59.3138 95.8586C59.7458 95.8586 60.1538 95.7866 60.5378 95.6426C60.9218 95.4986 61.2518 95.2826 61.5278 94.9946C61.8038 94.6946 62.0198 94.3226 62.1758 93.8786C62.3438 93.4226 62.4278 92.8946 62.4278 92.2946V92.1506C62.4278 90.9386 62.1578 90.0446 61.6178 89.4686C61.0898 88.8926 60.3638 88.6046 59.4398 88.6046C58.5038 88.6046 57.7718 88.9166 57.2438 89.5406C56.7158 90.1646 56.4518 91.0526 56.4518 92.2046V92.3486C56.4518 92.9366 56.5238 93.4526 56.6678 93.8966C56.8238 94.3406 57.0278 94.7066 57.2798 94.9946C57.5438 95.2826 57.8498 95.4986 58.1978 95.6426C58.5458 95.7866 58.9178 95.8586 59.3138 95.8586ZM70.7429 97.1006C70.0829 97.1006 69.4709 96.9866 68.9069 96.7586C68.3549 96.5306 67.8749 96.2126 67.4669 95.8046C67.0589 95.3846 66.7409 94.8806 66.5129 94.2926C66.2969 93.7046 66.1889 93.0506 66.1889 92.3306V92.1866C66.1889 91.4786 66.2969 90.8306 66.5129 90.2426C66.7289 89.6426 67.0289 89.1326 67.4129 88.7126C67.8089 88.2806 68.2769 87.9506 68.8169 87.7226C69.3569 87.4826 69.9509 87.3626 70.5989 87.3626C71.1389 87.3626 71.6609 87.4526 72.1649 87.6326C72.6809 87.8006 73.1369 88.0706 73.5329 88.4426C73.9289 88.8146 74.2409 89.3006 74.4689 89.9006C74.7089 90.4886 74.8289 91.2026 74.8289 92.0426V92.5286H67.7369C67.7729 93.6086 68.0429 94.4366 68.5469 95.0126C69.0509 95.5766 69.7889 95.8586 70.7609 95.8586C72.2369 95.8586 73.0709 95.3126 73.2629 94.2206H74.7569C74.5889 95.1686 74.1449 95.8886 73.4249 96.3806C72.7049 96.8606 71.8109 97.1006 70.7429 97.1006ZM73.2989 91.3226C73.2269 90.3506 72.9509 89.6546 72.4709 89.2346C72.0029 88.8146 71.3789 88.6046 70.5989 88.6046C69.8309 88.6046 69.2009 88.8506 68.7089 89.3426C68.2289 89.8226 67.9229 90.4826 67.7909 91.3226H73.2989ZM77.1214 87.5246H78.6154V89.2166C78.9154 88.6886 79.2934 88.2566 79.7494 87.9206C80.2174 87.5726 80.8714 87.3866 81.7114 87.3626V88.7666C81.2434 88.7906 80.8174 88.8506 80.4334 88.9466C80.0494 89.0426 79.7194 89.2046 79.4434 89.4326C79.1794 89.6606 78.9754 89.9666 78.8314 90.3506C78.6874 90.7226 78.6154 91.1966 78.6154 91.7726V96.9386H77.1214V87.5246ZM91.0106 97.1006C90.5786 97.1006 90.1706 97.0466 89.7866 96.9386C89.4026 96.8306 89.0666 96.6626 88.7786 96.4346C88.5026 96.2066 88.2806 95.9186 88.1126 95.5706C87.9566 95.2226 87.8786 94.8086 87.8786 94.3286C87.8786 93.7886 88.0106 93.3326 88.2746 92.9606C88.5386 92.5886 88.8866 92.2886 89.3186 92.0606C89.7626 91.8326 90.2666 91.6706 90.8306 91.5746C91.4066 91.4666 91.9946 91.4126 92.5946 91.4126H93.9446V90.7286C93.9446 89.9726 93.7886 89.4326 93.4766 89.1086C93.1646 88.7726 92.6486 88.6046 91.9286 88.6046C90.6326 88.6046 89.9126 89.1686 89.7686 90.2966H88.2746C88.3226 89.7566 88.4546 89.3006 88.6706 88.9286C88.8986 88.5566 89.1806 88.2566 89.5166 88.0286C89.8646 87.7886 90.2486 87.6206 90.6686 87.5246C91.1006 87.4166 91.5446 87.3626 92.0006 87.3626C92.4566 87.3626 92.8886 87.4166 93.2966 87.5246C93.7166 87.6206 94.0826 87.8006 94.3946 88.0646C94.7066 88.3166 94.9586 88.6586 95.1506 89.0906C95.3426 89.5226 95.4386 90.0686 95.4386 90.7286V96.9386H93.9446V95.7506C93.5966 96.1946 93.1946 96.5306 92.7386 96.7586C92.2826 96.9866 91.7066 97.1006 91.0106 97.1006ZM91.1546 95.9126C91.5506 95.9126 91.9166 95.8646 92.2526 95.7686C92.6006 95.6606 92.8946 95.5106 93.1346 95.3186C93.3866 95.1266 93.5846 94.8926 93.7286 94.6166C93.8726 94.3286 93.9446 94.0046 93.9446 93.6446V92.4746H92.6486C92.1806 92.4746 91.7426 92.5106 91.3346 92.5826C90.9386 92.6426 90.5906 92.7446 90.2906 92.8886C90.0026 93.0326 89.7746 93.2246 89.6066 93.4646C89.4506 93.6926 89.3726 93.9806 89.3726 94.3286C89.3726 94.8206 89.5046 95.2106 89.7686 95.4986C90.0326 95.7746 90.4946 95.9126 91.1546 95.9126ZM98.3733 87.5246H99.8673V88.9646C100.083 88.5206 100.431 88.1426 100.911 87.8306C101.403 87.5186 101.991 87.3626 102.675 87.3626C103.287 87.3626 103.839 87.5006 104.331 87.7766C104.823 88.0406 105.189 88.4906 105.429 89.1266C105.597 88.8146 105.801 88.5506 106.041 88.3346C106.293 88.1066 106.563 87.9206 106.851 87.7766C107.139 87.6326 107.439 87.5306 107.751 87.4706C108.063 87.3986 108.363 87.3626 108.651 87.3626C109.071 87.3626 109.473 87.4286 109.857 87.5606C110.241 87.6926 110.577 87.9086 110.865 88.2086C111.153 88.5086 111.381 88.8986 111.549 89.3786C111.729 89.8466 111.819 90.4226 111.819 91.1066V96.9386H110.325V90.9986C110.325 90.1706 110.151 89.5766 109.803 89.2166C109.467 88.8446 108.975 88.6586 108.327 88.6586C108.027 88.6586 107.727 88.7126 107.427 88.8206C107.127 88.9166 106.857 89.0726 106.617 89.2886C106.389 89.4926 106.203 89.7566 106.059 90.0806C105.915 90.3926 105.843 90.7586 105.843 91.1786V96.9386H104.349V90.9986C104.349 90.1706 104.175 89.5766 103.827 89.2166C103.491 88.8446 102.999 88.6586 102.351 88.6586C102.051 88.6586 101.751 88.7126 101.451 88.8206C101.151 88.9166 100.881 89.0726 100.641 89.2886C100.413 89.4926 100.227 89.7566 100.083 90.0806C99.9393 90.3926 99.8673 90.7586 99.8673 91.1786V96.9386H98.3733V87.5246ZM118.68 95.8586C119.148 95.8586 119.574 95.7746 119.958 95.6066C120.342 95.4386 120.666 95.1986 120.93 94.8866C121.194 94.5746 121.398 94.2026 121.542 93.7706C121.686 93.3266 121.758 92.8406 121.758 92.3126V92.1866C121.758 91.0946 121.476 90.2246 120.912 89.5766C120.36 88.9286 119.616 88.6046 118.68 88.6046C117.732 88.6046 116.982 88.9286 116.43 89.5766C115.878 90.2126 115.602 91.0766 115.602 92.1686V92.3126C115.602 93.3926 115.872 94.2566 116.412 94.9046C116.964 95.5406 117.72 95.8586 118.68 95.8586ZM118.662 97.1006C117.99 97.1006 117.372 96.9806 116.808 96.7406C116.244 96.5006 115.758 96.1706 115.35 95.7506C114.942 95.3186 114.624 94.8086 114.396 94.2206C114.168 93.6326 114.054 92.9966 114.054 92.3126V92.1686C114.054 91.4606 114.168 90.8126 114.396 90.2246C114.636 89.6366 114.96 89.1326 115.368 88.7126C115.776 88.2806 116.262 87.9506 116.826 87.7226C117.402 87.4826 118.02 87.3626 118.68 87.3626C119.352 87.3626 119.97 87.4826 120.534 87.7226C121.098 87.9506 121.584 88.2746 121.992 88.6946C122.4 89.1146 122.718 89.6186 122.946 90.2066C123.186 90.7946 123.306 91.4426 123.306 92.1506V92.2946C123.306 93.0026 123.186 93.6506 122.946 94.2386C122.718 94.8266 122.394 95.3366 121.974 95.7686C121.566 96.1886 121.08 96.5186 120.516 96.7586C119.952 96.9866 119.334 97.1006 118.662 97.1006ZM128.805 97.1006C128.337 97.1006 127.899 97.0346 127.491 96.9026C127.095 96.7706 126.753 96.5606 126.465 96.2726C126.177 95.9726 125.949 95.5946 125.781 95.1386C125.613 94.6826 125.529 94.1306 125.529 93.4826V87.5246H127.023V93.4106C127.023 94.2386 127.197 94.8446 127.545 95.2286C127.905 95.6126 128.457 95.8046 129.201 95.8046C129.537 95.8046 129.861 95.7506 130.173 95.6426C130.485 95.5346 130.761 95.3726 131.001 95.1566C131.241 94.9406 131.433 94.6706 131.577 94.3466C131.721 94.0226 131.793 93.6506 131.793 93.2306V87.5246H133.287V96.9386H131.793V95.4446C131.577 95.8886 131.211 96.2786 130.695 96.6146C130.191 96.9386 129.561 97.1006 128.805 97.1006ZM136.307 87.5246H137.801V89.0186C138.017 88.5746 138.377 88.1906 138.881 87.8666C139.397 87.5306 140.045 87.3626 140.825 87.3626C141.317 87.3626 141.761 87.4346 142.157 87.5786C142.565 87.7106 142.913 87.9326 143.201 88.2446C143.501 88.5446 143.729 88.9346 143.885 89.4146C144.053 89.8946 144.137 90.4766 144.137 91.1606V96.9386H142.643V91.0526C142.643 90.2246 142.463 89.6186 142.103 89.2346C141.743 88.8506 141.185 88.6586 140.429 88.6586C140.081 88.6586 139.745 88.7126 139.421 88.8206C139.109 88.9286 138.833 89.0906 138.593 89.3066C138.353 89.5226 138.161 89.7926 138.017 90.1166C137.873 90.4406 137.801 90.8126 137.801 91.2326V96.9386H136.307V87.5246ZM149.927 97.0646C149.063 97.0646 148.421 96.8366 148.001 96.3806C147.593 95.9246 147.389 95.3246 147.389 94.5806V88.7846H146.039V87.5246H147.389V85.3826H148.883V87.5246H151.079V88.7846H148.883V94.4366C148.883 95.3486 149.273 95.8046 150.053 95.8046C150.293 95.8046 150.503 95.7866 150.683 95.7506C150.863 95.7146 151.037 95.6666 151.205 95.6066V96.8666C151.049 96.9266 150.875 96.9746 150.683 97.0106C150.491 97.0466 150.239 97.0646 149.927 97.0646ZM158.263 87.5246H159.757V96.9386H158.263V87.5246ZM158.983 85.5626C158.707 85.5626 158.473 85.4666 158.281 85.2746C158.089 85.0826 157.993 84.8486 157.993 84.5726C157.993 84.2966 158.089 84.0626 158.281 83.8706C158.473 83.6786 158.707 83.5826 158.983 83.5826C159.259 83.5826 159.493 83.6786 159.685 83.8706C159.877 84.0626 159.973 84.2966 159.973 84.5726C159.973 84.8486 159.877 85.0826 159.685 85.2746C159.493 85.4666 159.259 85.5626 158.983 85.5626ZM165.731 97.1006C164.603 97.1006 163.715 96.8366 163.067 96.3086C162.431 95.7686 162.089 95.0126 162.041 94.0406H163.499C163.559 94.6046 163.751 95.0486 164.075 95.3726C164.411 95.6966 164.957 95.8586 165.713 95.8586C166.433 95.8586 166.955 95.7386 167.279 95.4986C167.603 95.2466 167.765 94.8686 167.765 94.3646C167.765 93.8606 167.579 93.5066 167.207 93.3026C166.847 93.0866 166.301 92.9126 165.569 92.7806C164.957 92.6726 164.441 92.5466 164.021 92.4026C163.601 92.2466 163.265 92.0606 163.013 91.8446C162.761 91.6286 162.575 91.3706 162.455 91.0706C162.347 90.7706 162.293 90.4166 162.293 90.0086C162.293 89.5766 162.389 89.1986 162.581 88.8746C162.773 88.5386 163.019 88.2626 163.319 88.0466C163.631 87.8186 163.973 87.6506 164.345 87.5426C164.729 87.4226 165.107 87.3626 165.479 87.3626C165.899 87.3626 166.301 87.4106 166.685 87.5066C167.069 87.5906 167.411 87.7406 167.711 87.9566C168.023 88.1726 168.281 88.4546 168.485 88.8026C168.689 89.1506 168.821 89.5766 168.881 90.0806H167.441C167.333 89.5646 167.123 89.1926 166.811 88.9646C166.511 88.7246 166.061 88.6046 165.461 88.6046C164.921 88.6046 164.489 88.7306 164.165 88.9826C163.841 89.2226 163.679 89.5466 163.679 89.9546C163.679 90.1706 163.709 90.3566 163.769 90.5126C163.841 90.6566 163.961 90.7886 164.129 90.9086C164.297 91.0166 164.519 91.1186 164.795 91.2146C165.083 91.2986 165.443 91.3766 165.875 91.4486C166.367 91.5326 166.811 91.6346 167.207 91.7546C167.615 91.8746 167.963 92.0366 168.251 92.2406C168.551 92.4326 168.779 92.6906 168.935 93.0146C169.103 93.3266 169.187 93.7346 169.187 94.2386C169.187 95.1026 168.899 95.7986 168.323 96.3266C167.747 96.8426 166.883 97.1006 165.731 97.1006Z" fill="black"/>
<rect x="186" y="68.9386" width="96" height="44" rx="4" fill="#FDF9C9"/>
<path d="M208.56 94.3866C209.637 94.3866 210.491 94.0133 211.12 93.2666C211.76 92.5093 212.08 91.5066 212.08 90.2586V90.1306C212.08 88.9253 211.76 87.9439 211.12 87.1866C210.491 86.4186 209.627 86.0346 208.528 86.0346C207.419 86.0346 206.544 86.4079 205.904 87.1546C205.275 87.9013 204.96 88.8986 204.96 90.1466V90.2746C204.96 91.5119 205.296 92.5093 205.968 93.2666C206.64 94.0133 207.504 94.3866 208.56 94.3866ZM208.528 96.0986C206.8 96.0986 205.403 95.5493 204.336 94.4506C203.269 93.3519 202.736 91.9653 202.736 90.2906V90.1626C202.736 88.4879 203.28 87.1013 204.368 86.0026C205.456 84.8933 206.843 84.3386 208.528 84.3386C210.224 84.3386 211.605 84.8826 212.672 85.9706C213.749 87.0479 214.288 88.4293 214.288 90.1146V90.2426C214.288 91.9386 213.755 93.3413 212.688 94.4506C211.632 95.5493 210.245 96.0986 208.528 96.0986ZM218.375 95.9386L215.319 87.5706H217.399L219.591 93.9546L221.751 87.5706H223.655L220.631 95.9386H218.375ZM228.457 96.0986C227.209 96.0986 226.19 95.7146 225.401 94.9466C224.612 94.1786 224.217 93.1439 224.217 91.8426V91.7146C224.217 90.4346 224.606 89.3946 225.385 88.5946C226.174 87.7946 227.172 87.3946 228.377 87.3946C229.508 87.3946 230.446 87.7466 231.193 88.4506C231.95 89.1546 232.329 90.2106 232.329 91.6186V92.1786H226.201C226.233 92.9786 226.446 93.5919 226.841 94.0186C227.236 94.4453 227.79 94.6586 228.505 94.6586C229.636 94.6586 230.276 94.2319 230.425 93.3786H232.297C232.158 94.2533 231.753 94.9253 231.081 95.3946C230.409 95.8639 229.534 96.0986 228.457 96.0986ZM226.233 90.8826H230.409C230.313 89.4959 229.636 88.8026 228.377 88.8026C227.801 88.8026 227.321 88.9893 226.937 89.3626C226.564 89.7253 226.329 90.2319 226.233 90.8826ZM234.058 95.9386V87.5706H235.994V89.1386C236.549 88.0186 237.456 87.4533 238.714 87.4426V89.2506C237.808 89.2613 237.125 89.4426 236.666 89.7946C236.218 90.1466 235.994 90.7439 235.994 91.5866V95.9386H234.058Z" fill="black"/>
<path fill-rule="evenodd" clip-rule="evenodd" d="M248.351 87.6901C248.82 87.2214 249.58 87.2214 250.049 87.6901L254 91.6415L257.951 87.6901C258.42 87.2214 259.18 87.2214 259.649 87.6901C260.117 88.1587 260.117 88.9185 259.649 89.3871L254.849 94.1871C254.38 94.6558 253.62 94.6558 253.151 94.1871L248.351 89.3871C247.883 88.9185 247.883 88.1587 248.351 87.6901Z" fill="#1A1A1A"/>
<rect x="298" y="68.9386" width="78" height="44" rx="4" fill="#ECE4FF"/>
<path d="M314.75 91.0746V89.7146H315.71C315.539 89.0319 315.454 88.3919 315.454 87.7946C315.454 86.7599 315.822 85.9279 316.558 85.2986C317.294 84.6693 318.217 84.3546 319.326 84.3546C320.499 84.3546 321.406 84.6533 322.046 85.2506C322.697 85.8479 323.059 86.6639 323.134 87.6986H321.134C321.038 87.1226 320.851 86.6959 320.574 86.4186C320.307 86.1413 319.907 86.0026 319.374 86.0026C318.841 86.0026 318.409 86.1733 318.078 86.5146C317.758 86.8559 317.598 87.3093 317.598 87.8746C317.598 88.3866 317.667 88.9999 317.806 89.7146H320.99V91.0746H318.078C318.185 91.6399 318.238 92.1839 318.238 92.7066C318.238 93.0266 318.174 93.3626 318.046 93.7146C318.259 93.7786 318.526 93.8693 318.846 93.9866C319.166 94.1039 319.443 94.1999 319.678 94.2746C319.913 94.3386 320.115 94.3706 320.286 94.3706C321.086 94.3706 321.513 93.9706 321.566 93.1706H323.438C323.385 94.0346 323.113 94.7386 322.622 95.2826C322.142 95.8159 321.481 96.0826 320.638 96.0826C320.083 96.0826 319.422 95.9279 318.654 95.6186C317.886 95.2986 317.39 95.1386 317.166 95.1386C316.878 95.1386 316.654 95.2186 316.494 95.3786C316.345 95.5279 316.254 95.7146 316.222 95.9386H314.558C314.601 95.4159 314.761 94.9359 315.038 94.4986C315.326 94.0613 315.726 93.7733 316.238 93.6346C316.345 93.3359 316.398 93.0213 316.398 92.6906C316.398 92.2639 316.302 91.7253 316.11 91.0746H314.75Z" fill="#1A1A1A"/>
<path d="M337.024 96.0986C335.819 96.0986 334.8 95.7999 333.968 95.2026C333.147 94.6053 332.736 93.7733 332.736 92.7066C332.736 92.0026 332.928 91.3999 333.312 90.8986C333.696 90.3973 334.219 90.0293 334.88 89.7946C333.749 89.3466 333.184 88.5519 333.184 87.4106C333.184 86.4826 333.563 85.7413 334.32 85.1866C335.077 84.6213 335.979 84.3386 337.024 84.3386C338.091 84.3386 338.992 84.6159 339.728 85.1706C340.475 85.7253 340.848 86.4613 340.848 87.3786C340.848 88.4879 340.283 89.2879 339.152 89.7786C339.835 90.0239 340.357 90.3919 340.72 90.8826C341.093 91.3626 341.28 91.9493 341.28 92.6426C341.28 93.7306 340.875 94.5786 340.064 95.1866C339.253 95.7946 338.24 96.0986 337.024 96.0986ZM337.024 94.4986C337.653 94.4986 338.165 94.3226 338.56 93.9706C338.955 93.6186 339.152 93.1333 339.152 92.5146C339.152 91.9066 338.955 91.4319 338.56 91.0906C338.165 90.7386 337.659 90.5626 337.04 90.5626C336.432 90.5626 335.92 90.7386 335.504 91.0906C335.088 91.4319 334.88 91.9119 334.88 92.5306C334.88 93.1493 335.083 93.6346 335.488 93.9866C335.904 94.3279 336.416 94.4986 337.024 94.4986ZM337.056 89.1706C337.589 89.1706 338.016 89.0213 338.336 88.7226C338.667 88.4239 338.832 88.0186 338.832 87.5066C338.832 87.0266 338.661 86.6373 338.32 86.3386C337.979 86.0293 337.547 85.8746 337.024 85.8746C336.501 85.8746 336.069 86.0239 335.728 86.3226C335.387 86.6213 335.216 87.0213 335.216 87.5226C335.216 88.0239 335.392 88.4239 335.744 88.7226C336.107 89.0213 336.544 89.1706 337.056 89.1706ZM347.539 94.4026C349.278 94.4026 350.147 93.0906 350.147 90.4666V89.9066C350.147 88.6799 349.918 87.7253 349.459 87.0426C349 86.3493 348.35 86.0026 347.507 86.0026C346.643 86.0026 345.982 86.3386 345.523 87.0106C345.064 87.6826 344.835 88.6533 344.835 89.9226V90.4986C344.835 91.7786 345.07 92.7493 345.539 93.4106C346.008 94.0719 346.675 94.4026 347.539 94.4026ZM347.491 96.0986C346.03 96.0986 344.862 95.5973 343.987 94.5946C343.123 93.5919 342.691 92.2319 342.691 90.5146V89.9386C342.691 88.2213 343.128 86.8613 344.003 85.8586C344.878 84.8453 346.04 84.3386 347.491 84.3386C348.952 84.3386 350.115 84.8399 350.979 85.8426C351.843 86.8346 352.275 88.1839 352.275 89.8906V90.4666C352.275 92.1946 351.848 93.5653 350.995 94.5786C350.142 95.5919 348.974 96.0986 347.491 96.0986Z" fill="black"/>
<rect x="1" y="0.938591" width="407" height="144" rx="4" stroke="black" shape-rendering="crispEdges"/>
</g>
<g filter="url(#filter1_d_3039_17962)">
<rect x="1" y="173" width="360" height="238" rx="4" fill="white" shape-rendering="crispEdges"/>
<rect x="33" y="205" width="63" height="28" rx="8" fill="#ECE4FF"/>
<path d="M48.6 224V214.24H45.416V212.56H53.928V214.24H50.744V224H48.6ZM55.4801 224V211.76H57.4161V216.96C57.6295 216.523 57.9708 216.165 58.4401 215.888C58.9095 215.6 59.4695 215.456 60.1201 215.456C61.0055 215.456 61.7041 215.728 62.2161 216.272C62.7281 216.805 62.9841 217.627 62.9841 218.736V224H61.0481V218.912C61.0481 218.283 60.9148 217.819 60.6481 217.52C60.3815 217.221 59.9601 217.072 59.3841 217.072C58.8081 217.072 58.3335 217.248 57.9601 217.6C57.5975 217.941 57.4161 218.432 57.4161 219.072V224H55.4801ZM68.8945 224.16C67.6465 224.16 66.6278 223.776 65.8385 223.008C65.0492 222.24 64.6545 221.205 64.6545 219.904V219.776C64.6545 218.496 65.0438 217.456 65.8225 216.656C66.6118 215.856 67.6092 215.456 68.8145 215.456C69.9452 215.456 70.8838 215.808 71.6305 216.512C72.3878 217.216 72.7665 218.272 72.7665 219.68V220.24H66.6385C66.6705 221.04 66.8838 221.653 67.2785 222.08C67.6732 222.507 68.2278 222.72 68.9425 222.72C70.0732 222.72 70.7132 222.293 70.8625 221.44H72.7345C72.5958 222.315 72.1905 222.987 71.5185 223.456C70.8465 223.925 69.9718 224.16 68.8945 224.16ZM66.6705 218.944H70.8465C70.7505 217.557 70.0732 216.864 68.8145 216.864C68.2385 216.864 67.7585 217.051 67.3745 217.424C67.0012 217.787 66.7665 218.293 66.6705 218.944ZM74.4958 224V215.632H76.4318V216.96C76.6451 216.523 76.9864 216.165 77.4557 215.888C77.9251 215.6 78.4851 215.456 79.1358 215.456C80.0211 215.456 80.7198 215.728 81.2318 216.272C81.7438 216.805 81.9998 217.627 81.9998 218.736V224H80.0638V218.912C80.0638 218.283 79.9304 217.819 79.6638 217.52C79.3971 217.221 78.9758 217.072 78.3998 217.072C77.8238 217.072 77.3491 217.248 76.9758 217.6C76.6131 217.941 76.4318 218.432 76.4318 219.072V224H74.4958Z" fill="#301958"/>
<path d="M34.71 256.13H36.276V269H34.71V256.13ZM39.5042 259.586H40.9982V261.08C41.2142 260.636 41.5742 260.252 42.0782 259.928C42.5942 259.592 43.2422 259.424 44.0222 259.424C44.5142 259.424 44.9582 259.496 45.3542 259.64C45.7622 259.772 46.1102 259.994 46.3982 260.306C46.6982 260.606 46.9262 260.996 47.0822 261.476C47.2502 261.956 47.3342 262.538 47.3342 263.222V269H45.8402V263.114C45.8402 262.286 45.6602 261.68 45.3002 261.296C44.9402 260.912 44.3822 260.72 43.6262 260.72C43.2782 260.72 42.9422 260.774 42.6182 260.882C42.3062 260.99 42.0302 261.152 41.7902 261.368C41.5502 261.584 41.3582 261.854 41.2142 262.178C41.0702 262.502 40.9982 262.874 40.9982 263.294V269H39.5042V259.586ZM54.168 269.162C53.508 269.162 52.896 269.054 52.332 268.838C51.78 268.61 51.294 268.292 50.874 267.884C50.466 267.464 50.142 266.96 49.902 266.372C49.674 265.784 49.56 265.124 49.56 264.392V264.248C49.56 263.528 49.68 262.874 49.92 262.286C50.16 261.686 50.484 261.176 50.892 260.756C51.312 260.336 51.798 260.012 52.35 259.784C52.914 259.544 53.508 259.424 54.132 259.424C54.624 259.424 55.098 259.484 55.554 259.604C56.022 259.724 56.436 259.916 56.796 260.18C57.168 260.432 57.48 260.768 57.732 261.188C57.984 261.608 58.146 262.118 58.218 262.718H56.742C56.622 261.974 56.316 261.446 55.824 261.134C55.344 260.822 54.78 260.666 54.132 260.666C53.7 260.666 53.298 260.75 52.926 260.918C52.566 261.086 52.248 261.326 51.972 261.638C51.708 261.938 51.498 262.31 51.342 262.754C51.186 263.198 51.108 263.696 51.108 264.248V264.392C51.108 265.556 51.39 266.438 51.954 267.038C52.53 267.626 53.274 267.92 54.186 267.92C54.522 267.92 54.84 267.872 55.14 267.776C55.452 267.68 55.728 267.536 55.968 267.344C56.22 267.152 56.424 266.912 56.58 266.624C56.748 266.336 56.85 266 56.886 265.616H58.272C58.224 266.12 58.086 266.594 57.858 267.038C57.642 267.47 57.354 267.842 56.994 268.154C56.634 268.466 56.214 268.712 55.734 268.892C55.254 269.072 54.732 269.162 54.168 269.162ZM60.5636 255.086H62.0756V269H60.5636V255.086ZM68.3191 269.162C67.8511 269.162 67.4131 269.096 67.0051 268.964C66.6091 268.832 66.2671 268.622 65.9791 268.334C65.6911 268.034 65.4631 267.656 65.2951 267.2C65.1271 266.744 65.0431 266.192 65.0431 265.544V259.586H66.5371V265.472C66.5371 266.3 66.7111 266.906 67.0591 267.29C67.4191 267.674 67.9711 267.866 68.7151 267.866C69.0511 267.866 69.3751 267.812 69.6871 267.704C69.9991 267.596 70.2751 267.434 70.5151 267.218C70.7551 267.002 70.9471 266.732 71.0911 266.408C71.2351 266.084 71.3071 265.712 71.3071 265.292V259.586H72.8011V269H71.3071V267.506C71.0911 267.95 70.7251 268.34 70.2091 268.676C69.7051 269 69.0751 269.162 68.3191 269.162ZM79.3666 269.162C78.7546 269.162 78.1846 269.06 77.6566 268.856C77.1406 268.64 76.6906 268.334 76.3066 267.938C75.9346 267.53 75.6406 267.038 75.4246 266.462C75.2206 265.874 75.1186 265.214 75.1186 264.482V264.338C75.1186 263.618 75.2266 262.958 75.4426 262.358C75.6586 261.758 75.9586 261.242 76.3426 260.81C76.7266 260.366 77.1886 260.024 77.7286 259.784C78.2686 259.544 78.8626 259.424 79.5106 259.424C80.3026 259.424 80.9446 259.592 81.4366 259.928C81.9286 260.252 82.3126 260.642 82.5886 261.098V255.086H84.0826V269H82.5886V267.38C82.4566 267.608 82.2766 267.83 82.0486 268.046C81.8206 268.262 81.5626 268.454 81.2746 268.622C80.9986 268.778 80.6986 268.904 80.3746 269C80.0506 269.108 79.7146 269.162 79.3666 269.162ZM79.5286 267.92C79.9606 267.92 80.3686 267.848 80.7526 267.704C81.1366 267.56 81.4666 267.344 81.7426 267.056C82.0186 266.756 82.2346 266.384 82.3906 265.94C82.5586 265.484 82.6426 264.956 82.6426 264.356V264.212C82.6426 263 82.3726 262.106 81.8326 261.53C81.3046 260.954 80.5786 260.666 79.6546 260.666C78.7186 260.666 77.9866 260.978 77.4586 261.602C76.9306 262.226 76.6666 263.114 76.6666 264.266V264.41C76.6666 264.998 76.7386 265.514 76.8826 265.958C77.0386 266.402 77.2426 266.768 77.4946 267.056C77.7586 267.344 78.0646 267.56 78.4126 267.704C78.7606 267.848 79.1326 267.92 79.5286 267.92ZM90.9578 269.162C90.2978 269.162 89.6858 269.048 89.1218 268.82C88.5698 268.592 88.0898 268.274 87.6818 267.866C87.2738 267.446 86.9558 266.942 86.7278 266.354C86.5118 265.766 86.4038 265.112 86.4038 264.392V264.248C86.4038 263.54 86.5118 262.892 86.7278 262.304C86.9438 261.704 87.2438 261.194 87.6278 260.774C88.0238 260.342 88.4918 260.012 89.0318 259.784C89.5718 259.544 90.1658 259.424 90.8138 259.424C91.3538 259.424 91.8758 259.514 92.3798 259.694C92.8958 259.862 93.3518 260.132 93.7478 260.504C94.1438 260.876 94.4558 261.362 94.6837 261.962C94.9238 262.55 95.0438 263.264 95.0438 264.104V264.59H87.9518C87.9878 265.67 88.2578 266.498 88.7618 267.074C89.2658 267.638 90.0038 267.92 90.9758 267.92C92.4518 267.92 93.2858 267.374 93.4778 266.282H94.9718C94.8038 267.23 94.3598 267.95 93.6398 268.442C92.9198 268.922 92.0258 269.162 90.9578 269.162ZM93.5138 263.384C93.4418 262.412 93.1658 261.716 92.6858 261.296C92.2178 260.876 91.5938 260.666 90.8138 260.666C90.0458 260.666 89.4158 260.912 88.9238 261.404C88.4438 261.884 88.1378 262.544 88.0058 263.384H93.5138Z" fill="black"/>
<rect x="112" y="241" width="39" height="44" rx="4" fill="#ECE4FF"/>
<path d="M130.928 268V258.672L128.512 260.32V258.448L131.168 256.56H133.072V268H130.928Z" fill="black"/>
<path d="M171.428 269.162C170.3 269.162 169.412 268.898 168.764 268.37C168.128 267.83 167.786 267.074 167.738 266.102H169.196C169.256 266.666 169.448 267.11 169.772 267.434C170.108 267.758 170.654 267.92 171.41 267.92C172.13 267.92 172.652 267.8 172.976 267.56C173.3 267.308 173.462 266.93 173.462 266.426C173.462 265.922 173.276 265.568 172.904 265.364C172.544 265.148 171.998 264.974 171.266 264.842C170.654 264.734 170.138 264.608 169.718 264.464C169.298 264.308 168.962 264.122 168.71 263.906C168.458 263.69 168.272 263.432 168.152 263.132C168.044 262.832 167.99 262.478 167.99 262.07C167.99 261.638 168.086 261.26 168.278 260.936C168.47 260.6 168.716 260.324 169.016 260.108C169.328 259.88 169.67 259.712 170.042 259.604C170.426 259.484 170.804 259.424 171.176 259.424C171.596 259.424 171.998 259.472 172.382 259.568C172.766 259.652 173.108 259.802 173.408 260.018C173.72 260.234 173.978 260.516 174.182 260.864C174.386 261.212 174.518 261.638 174.578 262.142H173.138C173.03 261.626 172.82 261.254 172.508 261.026C172.208 260.786 171.758 260.666 171.158 260.666C170.618 260.666 170.186 260.792 169.862 261.044C169.538 261.284 169.376 261.608 169.376 262.016C169.376 262.232 169.406 262.418 169.466 262.574C169.538 262.718 169.658 262.85 169.826 262.97C169.994 263.078 170.216 263.18 170.492 263.276C170.78 263.36 171.14 263.438 171.572 263.51C172.064 263.594 172.508 263.696 172.904 263.816C173.312 263.936 173.66 264.098 173.948 264.302C174.248 264.494 174.476 264.752 174.632 265.076C174.8 265.388 174.884 265.796 174.884 266.3C174.884 267.164 174.596 267.86 174.02 268.388C173.444 268.904 172.58 269.162 171.428 269.162ZM179.518 269.162C179.086 269.162 178.678 269.108 178.294 269C177.91 268.892 177.574 268.724 177.286 268.496C177.01 268.268 176.788 267.98 176.62 267.632C176.464 267.284 176.386 266.87 176.386 266.39C176.386 265.85 176.518 265.394 176.782 265.022C177.046 264.65 177.394 264.35 177.826 264.122C178.27 263.894 178.774 263.732 179.338 263.636C179.914 263.528 180.502 263.474 181.102 263.474H182.452V262.79C182.452 262.034 182.296 261.494 181.984 261.17C181.672 260.834 181.156 260.666 180.436 260.666C179.14 260.666 178.42 261.23 178.276 262.358H176.782C176.83 261.818 176.962 261.362 177.178 260.99C177.406 260.618 177.688 260.318 178.024 260.09C178.372 259.85 178.756 259.682 179.176 259.586C179.608 259.478 180.052 259.424 180.508 259.424C180.964 259.424 181.396 259.478 181.804 259.586C182.224 259.682 182.59 259.862 182.902 260.126C183.214 260.378 183.466 260.72 183.658 261.152C183.85 261.584 183.946 262.13 183.946 262.79V269H182.452V267.812C182.104 268.256 181.702 268.592 181.246 268.82C180.79 269.048 180.214 269.162 179.518 269.162ZM179.662 267.974C180.058 267.974 180.424 267.926 180.76 267.83C181.108 267.722 181.402 267.572 181.642 267.38C181.894 267.188 182.092 266.954 182.236 266.678C182.38 266.39 182.452 266.066 182.452 265.706V264.536H181.156C180.688 264.536 180.25 264.572 179.842 264.644C179.446 264.704 179.098 264.806 178.798 264.95C178.51 265.094 178.282 265.286 178.114 265.526C177.958 265.754 177.88 266.042 177.88 266.39C177.88 266.882 178.012 267.272 178.276 267.56C178.54 267.836 179.002 267.974 179.662 267.974ZM186.881 259.586H188.375V261.026C188.591 260.582 188.939 260.204 189.419 259.892C189.911 259.58 190.499 259.424 191.183 259.424C191.795 259.424 192.347 259.562 192.839 259.838C193.331 260.102 193.697 260.552 193.937 261.188C194.105 260.876 194.309 260.612 194.549 260.396C194.801 260.168 195.071 259.982 195.359 259.838C195.647 259.694 195.947 259.592 196.259 259.532C196.571 259.46 196.871 259.424 197.159 259.424C197.579 259.424 197.981 259.49 198.365 259.622C198.749 259.754 199.085 259.97 199.373 260.27C199.661 260.57 199.889 260.96 200.057 261.44C200.237 261.908 200.327 262.484 200.327 263.168V269H198.833V263.06C198.833 262.232 198.659 261.638 198.311 261.278C197.975 260.906 197.483 260.72 196.835 260.72C196.535 260.72 196.235 260.774 195.935 260.882C195.635 260.978 195.365 261.134 195.125 261.35C194.897 261.554 194.711 261.818 194.567 262.142C194.423 262.454 194.351 262.82 194.351 263.24V269H192.857V263.06C192.857 262.232 192.683 261.638 192.335 261.278C191.999 260.906 191.507 260.72 190.859 260.72C190.559 260.72 190.259 260.774 189.959 260.882C189.659 260.978 189.389 261.134 189.149 261.35C188.921 261.554 188.735 261.818 188.591 262.142C188.447 262.454 188.375 262.82 188.375 263.24V269H186.881V259.586ZM203.264 259.586H204.758V261.17C204.89 260.942 205.064 260.726 205.28 260.522C205.508 260.306 205.76 260.12 206.036 259.964C206.324 259.796 206.63 259.664 206.954 259.568C207.278 259.472 207.608 259.424 207.944 259.424C208.556 259.424 209.126 259.532 209.654 259.748C210.182 259.964 210.632 260.276 211.004 260.684C211.388 261.092 211.688 261.59 211.904 262.178C212.12 262.766 212.228 263.426 212.228 264.158V264.302C212.228 265.022 212.126 265.682 211.922 266.282C211.718 266.87 211.43 267.38 211.058 267.812C210.686 268.244 210.236 268.58 209.708 268.82C209.18 269.048 208.592 269.162 207.944 269.162C207.164 269.162 206.504 268.994 205.964 268.658C205.436 268.322 205.034 267.92 204.758 267.452V272.276H203.264V259.586ZM207.8 267.92C208.736 267.92 209.45 267.62 209.942 267.02C210.434 266.408 210.68 265.526 210.68 264.374V264.23C210.68 263.63 210.602 263.108 210.446 262.664C210.29 262.22 210.08 261.854 209.816 261.566C209.564 261.266 209.258 261.044 208.898 260.9C208.55 260.744 208.178 260.666 207.782 260.666C207.35 260.666 206.942 260.738 206.558 260.882C206.186 261.026 205.862 261.248 205.586 261.548C205.31 261.836 205.094 262.208 204.938 262.664C204.782 263.108 204.704 263.63 204.704 264.23V264.374C204.704 265.574 204.992 266.468 205.568 267.056C206.144 267.632 206.888 267.92 207.8 267.92ZM214.585 255.086H216.097V269H214.585V255.086ZM223.007 269.162C222.347 269.162 221.735 269.048 221.171 268.82C220.619 268.592 220.139 268.274 219.731 267.866C219.323 267.446 219.005 266.942 218.777 266.354C218.561 265.766 218.453 265.112 218.453 264.392V264.248C218.453 263.54 218.561 262.892 218.777 262.304C218.993 261.704 219.293 261.194 219.677 260.774C220.073 260.342 220.541 260.012 221.081 259.784C221.621 259.544 222.215 259.424 222.863 259.424C223.403 259.424 223.925 259.514 224.429 259.694C224.945 259.862 225.401 260.132 225.797 260.504C226.193 260.876 226.505 261.362 226.733 261.962C226.973 262.55 227.093 263.264 227.093 264.104V264.59H220.001C220.037 265.67 220.307 266.498 220.811 267.074C221.315 267.638 222.053 267.92 223.025 267.92C224.501 267.92 225.335 267.374 225.527 266.282H227.021C226.853 267.23 226.409 267.95 225.689 268.442C224.969 268.922 224.075 269.162 223.007 269.162ZM225.563 263.384C225.491 262.412 225.215 261.716 224.735 261.296C224.267 260.876 223.643 260.666 222.863 260.666C222.095 260.666 221.465 260.912 220.973 261.404C220.493 261.884 220.187 262.544 220.055 263.384H225.563ZM231.815 271.664C231.407 271.184 231.017 270.65 230.645 270.062C230.285 269.474 229.967 268.838 229.691 268.154C229.427 267.458 229.217 266.714 229.061 265.922C228.905 265.13 228.827 264.284 228.827 263.384C228.827 262.484 228.905 261.638 229.061 260.846C229.217 260.054 229.427 259.316 229.691 258.632C229.967 257.936 230.285 257.294 230.645 256.706C231.017 256.106 231.407 255.566 231.815 255.086H233.309C232.901 255.59 232.517 256.136 232.157 256.724C231.809 257.3 231.503 257.93 231.239 258.614C230.975 259.286 230.765 260.018 230.609 260.81C230.465 261.602 230.393 262.46 230.393 263.384C230.393 264.308 230.465 265.166 230.609 265.958C230.765 266.75 230.975 267.488 231.239 268.172C231.503 268.844 231.809 269.468 232.157 270.044C232.517 270.62 232.901 271.16 233.309 271.664H231.815ZM237.926 269.162C236.798 269.162 235.91 268.898 235.262 268.37C234.626 267.83 234.284 267.074 234.236 266.102H235.694C235.754 266.666 235.946 267.11 236.27 267.434C236.606 267.758 237.152 267.92 237.908 267.92C238.628 267.92 239.15 267.8 239.474 267.56C239.798 267.308 239.96 266.93 239.96 266.426C239.96 265.922 239.774 265.568 239.402 265.364C239.042 265.148 238.496 264.974 237.764 264.842C237.152 264.734 236.636 264.608 236.216 264.464C235.796 264.308 235.46 264.122 235.208 263.906C234.956 263.69 234.77 263.432 234.65 263.132C234.542 262.832 234.488 262.478 234.488 262.07C234.488 261.638 234.584 261.26 234.776 260.936C234.968 260.6 235.214 260.324 235.514 260.108C235.826 259.88 236.168 259.712 236.54 259.604C236.924 259.484 237.302 259.424 237.674 259.424C238.094 259.424 238.496 259.472 238.88 259.568C239.264 259.652 239.606 259.802 239.906 260.018C240.218 260.234 240.476 260.516 240.68 260.864C240.884 261.212 241.016 261.638 241.076 262.142H239.636C239.528 261.626 239.318 261.254 239.006 261.026C238.706 260.786 238.256 260.666 237.656 260.666C237.116 260.666 236.684 260.792 236.36 261.044C236.036 261.284 235.874 261.608 235.874 262.016C235.874 262.232 235.904 262.418 235.964 262.574C236.036 262.718 236.156 262.85 236.324 262.97C236.492 263.078 236.714 263.18 236.99 263.276C237.278 263.36 237.638 263.438 238.07 263.51C238.562 263.594 239.006 263.696 239.402 263.816C239.81 263.936 240.158 264.098 240.446 264.302C240.746 264.494 240.974 264.752 241.13 265.076C241.298 265.388 241.382 265.796 241.382 266.3C241.382 267.164 241.094 267.86 240.518 268.388C239.942 268.904 239.078 269.162 237.926 269.162ZM242.506 271.61C242.914 271.106 243.292 270.56 243.64 269.972C244 269.396 244.312 268.772 244.576 268.1C244.84 267.416 245.044 266.678 245.188 265.886C245.344 265.094 245.422 264.236 245.422 263.312C245.422 262.388 245.344 261.53 245.188 260.738C245.044 259.946 244.84 259.214 244.576 258.542C244.312 257.858 244 257.228 243.64 256.652C243.292 256.076 242.914 255.536 242.506 255.032H244C244.42 255.512 244.81 256.046 245.17 256.634C245.53 257.222 245.842 257.864 246.106 258.56C246.382 259.244 246.598 259.982 246.754 260.774C246.91 261.566 246.988 262.412 246.988 263.312C246.988 264.212 246.91 265.058 246.754 265.85C246.598 266.642 246.382 267.386 246.106 268.082C245.842 268.766 245.53 269.402 245.17 269.99C244.81 270.59 244.42 271.13 244 271.61H242.506Z" fill="black"/>
<path d="M38.136 315.144C37.368 315.144 36.7173 315.048 36.184 314.856C35.6613 314.653 35.2293 314.387 34.888 314.056C34.5467 313.725 34.2853 313.341 34.104 312.904C33.9333 312.467 33.8213 312.003 33.768 311.512H35.112C35.1547 311.853 35.2293 312.179 35.336 312.488C35.4427 312.787 35.608 313.053 35.832 313.288C36.056 313.512 36.3493 313.693 36.712 313.832C37.0853 313.96 37.56 314.024 38.136 314.024C38.5093 314.024 38.8507 313.976 39.16 313.88C39.48 313.773 39.7573 313.624 39.992 313.432C40.2267 313.24 40.408 313.011 40.536 312.744C40.6747 312.477 40.744 312.184 40.744 311.864C40.744 311.544 40.7013 311.267 40.616 311.032C40.5307 310.787 40.3813 310.579 40.168 310.408C39.9653 310.237 39.6827 310.093 39.32 309.976C38.968 309.859 38.52 309.757 37.976 309.672C37.3787 309.576 36.84 309.453 36.36 309.304C35.8907 309.155 35.4907 308.963 35.16 308.728C34.84 308.483 34.5893 308.184 34.408 307.832C34.2373 307.469 34.152 307.032 34.152 306.52C34.152 306.083 34.2427 305.677 34.424 305.304C34.6053 304.92 34.856 304.589 35.176 304.312C35.5067 304.035 35.896 303.816 36.344 303.656C36.792 303.496 37.288 303.416 37.832 303.416C38.984 303.416 39.896 303.688 40.568 304.232C41.2507 304.765 41.6507 305.544 41.768 306.568H40.52C40.3813 305.843 40.0987 305.325 39.672 305.016C39.2453 304.696 38.632 304.536 37.832 304.536C37.0427 304.536 36.4453 304.712 36.04 305.064C35.6453 305.405 35.448 305.848 35.448 306.392C35.448 306.669 35.48 306.92 35.544 307.144C35.6187 307.357 35.752 307.544 35.944 307.704C36.1467 307.864 36.424 308.008 36.776 308.136C37.1387 308.253 37.6133 308.355 38.2 308.44C38.84 308.536 39.4 308.664 39.88 308.824C40.36 308.984 40.7653 309.192 41.096 309.448C41.4267 309.704 41.672 310.019 41.832 310.392C42.0027 310.765 42.088 311.224 42.088 311.768C42.088 312.248 41.9867 312.696 41.784 313.112C41.592 313.517 41.32 313.875 40.968 314.184C40.616 314.483 40.1947 314.717 39.704 314.888C39.224 315.059 38.7013 315.144 38.136 315.144ZM47.7993 315.144C47.2126 315.144 46.6686 315.043 46.1673 314.84C45.6766 314.637 45.2499 314.355 44.8873 313.992C44.5246 313.619 44.2419 313.171 44.0393 312.648C43.8473 312.125 43.7513 311.544 43.7513 310.904V310.776C43.7513 310.147 43.8473 309.571 44.0393 309.048C44.2313 308.515 44.4979 308.061 44.8393 307.688C45.1913 307.304 45.6073 307.011 46.0873 306.808C46.5673 306.595 47.0953 306.488 47.6713 306.488C48.1513 306.488 48.6153 306.568 49.0633 306.728C49.5219 306.877 49.9273 307.117 50.2793 307.448C50.6313 307.779 50.9086 308.211 51.1112 308.744C51.3246 309.267 51.4313 309.901 51.4313 310.648V311.08H45.1273C45.1593 312.04 45.3993 312.776 45.8473 313.288C46.2953 313.789 46.9513 314.04 47.8153 314.04C49.1273 314.04 49.8686 313.555 50.0393 312.584H51.3673C51.2179 313.427 50.8233 314.067 50.1833 314.504C49.5433 314.931 48.7486 315.144 47.7993 315.144ZM50.0713 310.008C50.0073 309.144 49.7619 308.525 49.3353 308.152C48.9193 307.779 48.3646 307.592 47.6713 307.592C46.9886 307.592 46.4286 307.811 45.9913 308.248C45.5646 308.675 45.2926 309.261 45.1753 310.008H50.0713ZM53.501 302.632H54.845V315H53.501V302.632ZM60.9868 315.144C60.4001 315.144 59.8561 315.043 59.3548 314.84C58.8641 314.637 58.4374 314.355 58.0748 313.992C57.7121 313.619 57.4294 313.171 57.2268 312.648C57.0348 312.125 56.9388 311.544 56.9388 310.904V310.776C56.9388 310.147 57.0348 309.571 57.2268 309.048C57.4188 308.515 57.6854 308.061 58.0268 307.688C58.3788 307.304 58.7948 307.011 59.2748 306.808C59.7548 306.595 60.2828 306.488 60.8588 306.488C61.3388 306.488 61.8028 306.568 62.2508 306.728C62.7094 306.877 63.1148 307.117 63.4668 307.448C63.8188 307.779 64.0961 308.211 64.2987 308.744C64.5121 309.267 64.6188 309.901 64.6188 310.648V311.08H58.3148C58.3468 312.04 58.5868 312.776 59.0348 313.288C59.4828 313.789 60.1388 314.04 61.0028 314.04C62.3148 314.04 63.0561 313.555 63.2268 312.584H64.5548C64.4054 313.427 64.0108 314.067 63.3708 314.504C62.7308 314.931 61.9361 315.144 60.9868 315.144ZM63.2588 310.008C63.1948 309.144 62.9494 308.525 62.5228 308.152C62.1068 307.779 61.5521 307.592 60.8588 307.592C60.1761 307.592 59.6161 307.811 59.1788 308.248C58.7521 308.675 58.4801 309.261 58.3628 310.008H63.2588ZM70.1285 315.144C69.5418 315.144 68.9978 315.048 68.4965 314.856C68.0058 314.653 67.5738 314.371 67.2005 314.008C66.8378 313.635 66.5498 313.187 66.3365 312.664C66.1338 312.141 66.0325 311.555 66.0325 310.904V310.776C66.0325 310.136 66.1392 309.555 66.3525 309.032C66.5658 308.499 66.8538 308.045 67.2165 307.672C67.5898 307.299 68.0218 307.011 68.5125 306.808C69.0138 306.595 69.5418 306.488 70.0965 306.488C70.5338 306.488 70.9552 306.541 71.3605 306.648C71.7765 306.755 72.1445 306.925 72.4645 307.16C72.7952 307.384 73.0725 307.683 73.2965 308.056C73.5205 308.429 73.6645 308.883 73.7285 309.416H72.4165C72.3098 308.755 72.0378 308.285 71.6005 308.008C71.1738 307.731 70.6725 307.592 70.0965 307.592C69.7125 307.592 69.3552 307.667 69.0245 307.816C68.7045 307.965 68.4218 308.179 68.1765 308.456C67.9418 308.723 67.7552 309.053 67.6165 309.448C67.4778 309.843 67.4085 310.285 67.4085 310.776V310.904C67.4085 311.939 67.6592 312.723 68.1605 313.256C68.6725 313.779 69.3338 314.04 70.1445 314.04C70.4432 314.04 70.7258 313.997 70.9925 313.912C71.2698 313.827 71.5152 313.699 71.7285 313.528C71.9525 313.357 72.1338 313.144 72.2725 312.888C72.4218 312.632 72.5125 312.333 72.5445 311.992H73.7765C73.7338 312.44 73.6112 312.861 73.4085 313.256C73.2165 313.64 72.9605 313.971 72.6405 314.248C72.3205 314.525 71.9472 314.744 71.5205 314.904C71.0938 315.064 70.6298 315.144 70.1285 315.144ZM78.3255 315.112C77.5575 315.112 76.9868 314.909 76.6135 314.504C76.2508 314.099 76.0695 313.565 76.0695 312.904V307.752H74.8695V306.632H76.0695V304.728H77.3975V306.632H79.3495V307.752H77.3975V312.776C77.3975 313.587 77.7442 313.992 78.4375 313.992C78.6508 313.992 78.8375 313.976 78.9975 313.944C79.1575 313.912 79.3122 313.869 79.4615 313.816V314.936C79.3228 314.989 79.1682 315.032 78.9975 315.064C78.8268 315.096 78.6028 315.112 78.3255 315.112ZM88.2954 315.144C87.2927 315.144 86.5034 314.909 85.9274 314.44C85.362 313.96 85.058 313.288 85.0154 312.424H86.3114C86.3647 312.925 86.5354 313.32 86.8234 313.608C87.122 313.896 87.6074 314.04 88.2794 314.04C88.9194 314.04 89.3834 313.933 89.6714 313.72C89.9594 313.496 90.1034 313.16 90.1034 312.712C90.1034 312.264 89.938 311.949 89.6074 311.768C89.2874 311.576 88.802 311.421 88.1514 311.304C87.6074 311.208 87.1487 311.096 86.7754 310.968C86.402 310.829 86.1034 310.664 85.8794 310.472C85.6554 310.28 85.49 310.051 85.3834 309.784C85.2874 309.517 85.2394 309.203 85.2394 308.84C85.2394 308.456 85.3247 308.12 85.4954 307.832C85.666 307.533 85.8847 307.288 86.1514 307.096C86.4287 306.893 86.7327 306.744 87.0634 306.648C87.4047 306.541 87.7407 306.488 88.0714 306.488C88.4447 306.488 88.802 306.531 89.1434 306.616C89.4847 306.691 89.7887 306.824 90.0554 307.016C90.3327 307.208 90.562 307.459 90.7434 307.768C90.9247 308.077 91.042 308.456 91.0954 308.904H89.8154C89.7194 308.445 89.5327 308.115 89.2554 307.912C88.9887 307.699 88.5887 307.592 88.0554 307.592C87.5754 307.592 87.1914 307.704 86.9034 307.928C86.6154 308.141 86.4714 308.429 86.4714 308.792C86.4714 308.984 86.498 309.149 86.5514 309.288C86.6154 309.416 86.722 309.533 86.8714 309.64C87.0207 309.736 87.218 309.827 87.4634 309.912C87.7194 309.987 88.0394 310.056 88.4234 310.12C88.8607 310.195 89.2554 310.285 89.6074 310.392C89.97 310.499 90.2794 310.643 90.5354 310.824C90.802 310.995 91.0047 311.224 91.1434 311.512C91.2927 311.789 91.3674 312.152 91.3674 312.6C91.3674 313.368 91.1114 313.987 90.5994 314.456C90.0874 314.915 89.3194 315.144 88.2954 315.144ZM95.4869 315.144C95.1029 315.144 94.7402 315.096 94.3989 315C94.0575 314.904 93.7589 314.755 93.5029 314.552C93.2575 314.349 93.0602 314.093 92.9109 313.784C92.7722 313.475 92.7029 313.107 92.7029 312.68C92.7029 312.2 92.8202 311.795 93.0549 311.464C93.2895 311.133 93.5989 310.867 93.9829 310.664C94.3775 310.461 94.8255 310.317 95.3269 310.232C95.8389 310.136 96.3615 310.088 96.8949 310.088H98.0949V309.48C98.0949 308.808 97.9562 308.328 97.6789 308.04C97.4015 307.741 96.9429 307.592 96.3029 307.592C95.1509 307.592 94.5109 308.093 94.3829 309.096H93.0549C93.0975 308.616 93.2149 308.211 93.4069 307.88C93.6095 307.549 93.8602 307.283 94.1589 307.08C94.4682 306.867 94.8095 306.717 95.1829 306.632C95.5669 306.536 95.9615 306.488 96.3669 306.488C96.7722 306.488 97.1562 306.536 97.5189 306.632C97.8922 306.717 98.2175 306.877 98.4949 307.112C98.7722 307.336 98.9962 307.64 99.1669 308.024C99.3375 308.408 99.4229 308.893 99.4229 309.48V315H98.0949V313.944C97.7855 314.339 97.4282 314.637 97.0229 314.84C96.6175 315.043 96.1055 315.144 95.4869 315.144ZM95.6149 314.088C95.9669 314.088 96.2922 314.045 96.5909 313.96C96.9002 313.864 97.1615 313.731 97.3749 313.56C97.5989 313.389 97.7749 313.181 97.9029 312.936C98.0309 312.68 98.0949 312.392 98.0949 312.072V311.032H96.9429C96.5269 311.032 96.1375 311.064 95.7749 311.128C95.4229 311.181 95.1135 311.272 94.8469 311.4C94.5909 311.528 94.3882 311.699 94.2389 311.912C94.1002 312.115 94.0309 312.371 94.0309 312.68C94.0309 313.117 94.1482 313.464 94.3829 313.72C94.6175 313.965 95.0282 314.088 95.6149 314.088ZM102.032 306.632H103.36V307.912C103.552 307.517 103.861 307.181 104.288 306.904C104.725 306.627 105.248 306.488 105.856 306.488C106.4 306.488 106.89 306.611 107.328 306.856C107.765 307.091 108.09 307.491 108.304 308.056C108.453 307.779 108.634 307.544 108.848 307.352C109.072 307.149 109.312 306.984 109.568 306.856C109.824 306.728 110.09 306.637 110.368 306.584C110.645 306.52 110.912 306.488 111.168 306.488C111.541 306.488 111.898 306.547 112.24 306.664C112.581 306.781 112.88 306.973 113.136 307.24C113.392 307.507 113.594 307.853 113.744 308.28C113.904 308.696 113.984 309.208 113.984 309.816V315H112.656V309.72C112.656 308.984 112.501 308.456 112.192 308.136C111.893 307.805 111.456 307.64 110.88 307.64C110.613 307.64 110.346 307.688 110.08 307.784C109.813 307.869 109.573 308.008 109.36 308.2C109.157 308.381 108.992 308.616 108.864 308.904C108.736 309.181 108.672 309.507 108.672 309.88V315H107.344V309.72C107.344 308.984 107.189 308.456 106.88 308.136C106.581 307.805 106.144 307.64 105.568 307.64C105.301 307.64 105.034 307.688 104.768 307.784C104.501 307.869 104.261 308.008 104.048 308.2C103.845 308.381 103.68 308.616 103.552 308.904C103.424 309.181 103.36 309.507 103.36 309.88V315H102.032V306.632ZM116.594 306.632H117.922V308.04C118.039 307.837 118.194 307.645 118.386 307.464C118.589 307.272 118.813 307.107 119.058 306.968C119.314 306.819 119.586 306.701 119.874 306.616C120.162 306.531 120.455 306.488 120.754 306.488C121.298 306.488 121.805 306.584 122.274 306.776C122.743 306.968 123.143 307.245 123.474 307.608C123.815 307.971 124.082 308.413 124.274 308.936C124.466 309.459 124.562 310.045 124.562 310.696V310.824C124.562 311.464 124.471 312.051 124.29 312.584C124.109 313.107 123.853 313.56 123.522 313.944C123.191 314.328 122.791 314.627 122.322 314.84C121.853 315.043 121.33 315.144 120.754 315.144C120.061 315.144 119.474 314.995 118.994 314.696C118.525 314.397 118.167 314.04 117.922 313.624V317.912H116.594V306.632ZM120.626 314.04C121.458 314.04 122.093 313.773 122.53 313.24C122.967 312.696 123.186 311.912 123.186 310.888V310.76C123.186 310.227 123.117 309.763 122.978 309.368C122.839 308.973 122.653 308.648 122.418 308.392C122.194 308.125 121.922 307.928 121.602 307.8C121.293 307.661 120.962 307.592 120.61 307.592C120.226 307.592 119.863 307.656 119.522 307.784C119.191 307.912 118.903 308.109 118.658 308.376C118.413 308.632 118.221 308.963 118.082 309.368C117.943 309.763 117.874 310.227 117.874 310.76V310.888C117.874 311.955 118.13 312.749 118.642 313.272C119.154 313.784 119.815 314.04 120.626 314.04ZM126.657 302.632H128.001V315H126.657V302.632ZM134.143 315.144C133.556 315.144 133.012 315.043 132.511 314.84C132.02 314.637 131.594 314.355 131.231 313.992C130.868 313.619 130.586 313.171 130.383 312.648C130.191 312.125 130.095 311.544 130.095 310.904V310.776C130.095 310.147 130.191 309.571 130.383 309.048C130.575 308.515 130.842 308.061 131.183 307.688C131.535 307.304 131.951 307.011 132.431 306.808C132.911 306.595 133.439 306.488 134.015 306.488C134.495 306.488 134.959 306.568 135.407 306.728C135.866 306.877 136.271 307.117 136.623 307.448C136.975 307.779 137.252 308.211 137.455 308.744C137.668 309.267 137.775 309.901 137.775 310.648V311.08H131.471C131.503 312.04 131.743 312.776 132.191 313.288C132.639 313.789 133.295 314.04 134.159 314.04C135.471 314.04 136.212 313.555 136.383 312.584H137.711C137.562 313.427 137.167 314.067 136.527 314.504C135.887 314.931 135.092 315.144 134.143 315.144ZM136.415 310.008C136.351 309.144 136.106 308.525 135.679 308.152C135.263 307.779 134.708 307.592 134.015 307.592C133.332 307.592 132.772 307.811 132.335 308.248C131.908 308.675 131.636 309.261 131.519 310.008H136.415Z" fill="black"/>
<rect x="33" y="335" width="296" height="44" rx="4" fill="#FDF9C9"/>
<path d="M50.312 362V350.56H53.16L56.168 358.368L59.112 350.56H61.928V362H59.8V353.36L56.392 362H55.704L52.232 353.36V362H50.312ZM66.5003 362.16C65.6789 362.16 65.0069 361.957 64.4843 361.552C63.9616 361.136 63.7003 360.512 63.7003 359.68C63.7003 358.763 64.0896 358.091 64.8683 357.664C65.6469 357.237 66.6869 357.024 67.9883 357.024H69.0283V356.592C69.0283 356.016 68.9109 355.595 68.6763 355.328C68.4523 355.051 68.0629 354.912 67.5083 354.912C66.5376 354.912 66.0043 355.349 65.9083 356.224H64.0363C64.1109 355.296 64.4736 354.603 65.1243 354.144C65.7856 353.685 66.6176 353.456 67.6203 353.456C69.8496 353.456 70.9643 354.475 70.9643 356.512V362H69.0603V360.976C68.4629 361.765 67.6096 362.16 66.5003 362.16ZM66.9643 360.768C67.5723 360.768 68.0683 360.619 68.4523 360.32C68.8363 360.011 69.0283 359.595 69.0283 359.072V358.24H68.0363C66.4256 358.24 65.6203 358.693 65.6203 359.6C65.6203 360.379 66.0683 360.768 66.9643 360.768ZM73.1833 362V353.632H75.1193V354.96C75.3326 354.523 75.6739 354.165 76.1432 353.888C76.6126 353.6 77.1726 353.456 77.8233 353.456C78.7086 353.456 79.4073 353.728 79.9193 354.272C80.4313 354.805 80.6873 355.627 80.6873 356.736V362H78.7513V356.912C78.7513 356.283 78.6179 355.819 78.3513 355.52C78.0846 355.221 77.6633 355.072 77.0873 355.072C76.5113 355.072 76.0366 355.248 75.6633 355.6C75.3006 355.941 75.1193 356.432 75.1193 357.072V362H73.1833ZM86.4856 365.072C85.2376 365.072 84.283 364.821 83.6216 364.32C82.9603 363.819 82.571 363.141 82.4536 362.288H84.4056C84.5763 363.163 85.2643 363.6 86.4696 363.6C88.027 363.6 88.8056 362.848 88.8056 361.344V360.112C88.5603 360.539 88.187 360.907 87.6856 361.216C87.195 361.515 86.6563 361.664 86.0696 361.664C85.003 361.664 84.1176 361.296 83.4136 360.56C82.7096 359.824 82.3576 358.864 82.3576 357.68V357.568C82.3576 356.395 82.715 355.419 83.4296 354.64C84.1443 353.851 85.0403 353.456 86.1176 353.456C87.355 353.456 88.251 353.941 88.8056 354.912V353.632H90.7416V361.376C90.731 362.581 90.347 363.499 89.5896 364.128C88.843 364.757 87.8083 365.072 86.4856 365.072ZM86.5496 360.176C87.2323 360.176 87.787 359.947 88.2136 359.488C88.651 359.029 88.8696 358.405 88.8696 357.616V357.504C88.8696 356.715 88.667 356.096 88.2616 355.648C87.8563 355.2 87.307 354.976 86.6136 354.976C85.9096 354.976 85.355 355.211 84.9496 355.68C84.5443 356.149 84.3416 356.768 84.3416 357.536V357.664C84.3416 358.421 84.5496 359.029 84.9656 359.488C85.3816 359.947 85.9096 360.176 86.5496 360.176ZM96.7866 360.656C97.5013 360.656 98.0613 360.411 98.4666 359.92C98.8826 359.419 99.0906 358.736 99.0906 357.872V357.76C99.0906 356.896 98.8826 356.219 98.4666 355.728C98.0613 355.227 97.5013 354.976 96.7866 354.976C96.0613 354.976 95.4906 355.221 95.0746 355.712C94.6693 356.203 94.4666 356.88 94.4666 357.744V357.872C94.4666 358.736 94.6693 359.419 95.0746 359.92C95.4906 360.411 96.0613 360.656 96.7866 360.656ZM99.8586 360.976C99.048 361.765 98.0186 362.16 96.7706 362.16C95.5226 362.16 94.4933 361.765 93.6826 360.976C92.8826 360.187 92.4826 359.163 92.4826 357.904V357.776C92.4826 356.496 92.888 355.456 93.6986 354.656C94.5093 353.856 95.5386 353.456 96.7866 353.456C98.024 353.456 99.048 353.851 99.8586 354.64C100.669 355.429 101.075 356.459 101.075 357.728V357.856C101.075 359.147 100.669 360.187 99.8586 360.976ZM106.796 362V350.56H113.884V352.256H108.924V355.664H112.828V357.312H108.924V362H106.796ZM117.453 362.16C116.632 362.16 115.96 361.957 115.437 361.552C114.915 361.136 114.653 360.512 114.653 359.68C114.653 358.763 115.043 358.091 115.821 357.664C116.6 357.237 117.64 357.024 118.941 357.024H119.981V356.592C119.981 356.016 119.864 355.595 119.629 355.328C119.405 355.051 119.016 354.912 118.461 354.912C117.491 354.912 116.957 355.349 116.861 356.224H114.989C115.064 355.296 115.427 354.603 116.077 354.144C116.739 353.685 117.571 353.456 118.573 353.456C120.803 353.456 121.917 354.475 121.917 356.512V362H120.013V360.976C119.416 361.765 118.563 362.16 117.453 362.16ZM117.917 360.768C118.525 360.768 119.021 360.619 119.405 360.32C119.789 360.011 119.981 359.595 119.981 359.072V358.24H118.989C117.379 358.24 116.573 358.693 116.573 359.6C116.573 360.379 117.021 360.768 117.917 360.768ZM127.8 362.16C126.574 362.16 125.56 361.781 124.76 361.024C123.971 360.256 123.576 359.221 123.576 357.92V357.792C123.576 356.491 123.982 355.445 124.792 354.656C125.603 353.856 126.606 353.456 127.8 353.456C128.824 353.456 129.688 353.712 130.392 354.224C131.107 354.725 131.518 355.515 131.624 356.592H129.752C129.603 355.536 128.963 355.008 127.832 355.008C127.16 355.008 126.611 355.253 126.184 355.744C125.768 356.235 125.56 356.907 125.56 357.76V357.888C125.56 358.784 125.763 359.472 126.168 359.952C126.584 360.432 127.155 360.672 127.88 360.672C128.414 360.672 128.867 360.517 129.24 360.208C129.624 359.888 129.843 359.445 129.896 358.88H131.672C131.598 359.861 131.214 360.656 130.52 361.264C129.827 361.861 128.92 362.16 127.8 362.16ZM137.02 362.16C135.772 362.16 134.753 361.776 133.964 361.008C133.174 360.24 132.78 359.205 132.78 357.904V357.776C132.78 356.496 133.169 355.456 133.948 354.656C134.737 353.856 135.734 353.456 136.94 353.456C138.07 353.456 139.009 353.808 139.756 354.512C140.513 355.216 140.892 356.272 140.892 357.68V358.24H134.764C134.796 359.04 135.009 359.653 135.404 360.08C135.798 360.507 136.353 360.72 137.068 360.72C138.198 360.72 138.838 360.293 138.988 359.44H140.86C140.721 360.315 140.316 360.987 139.644 361.456C138.972 361.925 138.097 362.16 137.02 362.16ZM134.796 356.944H138.972C138.876 355.557 138.198 354.864 136.94 354.864C136.364 354.864 135.884 355.051 135.5 355.424C135.126 355.787 134.892 356.293 134.796 356.944ZM150.481 362.16C148.988 362.16 147.868 361.829 147.121 361.168C146.385 360.507 145.975 359.6 145.889 358.448H147.937C148.023 359.12 148.247 359.643 148.609 360.016C148.972 360.379 149.596 360.56 150.481 360.56C151.121 360.56 151.639 360.4 152.033 360.08C152.439 359.749 152.641 359.323 152.641 358.8C152.641 358.267 152.476 357.877 152.145 357.632C151.815 357.387 151.185 357.189 150.257 357.04C148.839 356.848 147.809 356.507 147.169 356.016C146.54 355.515 146.225 354.741 146.225 353.696C146.225 352.747 146.593 351.963 147.329 351.344C148.065 350.725 149.025 350.416 150.209 350.416C151.447 350.416 152.423 350.699 153.137 351.264C153.852 351.819 154.263 352.64 154.369 353.728H152.417C152.311 353.131 152.081 352.699 151.729 352.432C151.377 352.155 150.871 352.016 150.209 352.016C149.58 352.016 149.095 352.155 148.753 352.432C148.412 352.699 148.241 353.061 148.241 353.52C148.241 354.011 148.396 354.379 148.705 354.624C149.025 354.869 149.66 355.061 150.609 355.2C152.028 355.392 153.063 355.739 153.713 356.24C154.364 356.731 154.689 357.525 154.689 358.624C154.689 359.637 154.3 360.48 153.521 361.152C152.743 361.824 151.729 362.16 150.481 362.16ZM160.254 362.16C159.027 362.16 158.014 361.781 157.214 361.024C156.424 360.256 156.03 359.221 156.03 357.92V357.792C156.03 356.491 156.435 355.445 157.246 354.656C158.056 353.856 159.059 353.456 160.254 353.456C161.278 353.456 162.142 353.712 162.846 354.224C163.56 354.725 163.971 355.515 164.078 356.592H162.206C162.056 355.536 161.416 355.008 160.286 355.008C159.614 355.008 159.064 355.253 158.638 355.744C158.222 356.235 158.014 356.907 158.014 357.76V357.888C158.014 358.784 158.216 359.472 158.622 359.952C159.038 360.432 159.608 360.672 160.334 360.672C160.867 360.672 161.32 360.517 161.694 360.208C162.078 359.888 162.296 359.445 162.35 358.88H164.126C164.051 359.861 163.667 360.656 162.974 361.264C162.28 361.861 161.374 362.16 160.254 362.16ZM165.793 362V353.632H167.729V355.2C168.283 354.08 169.19 353.515 170.449 353.504V355.312C169.542 355.323 168.859 355.504 168.401 355.856C167.953 356.208 167.729 356.805 167.729 357.648V362H165.793ZM174.952 362.16C174.077 362.16 173.379 361.899 172.856 361.376C172.333 360.853 172.072 360.059 172.072 358.992V353.632H174.008V358.768C174.008 359.397 174.141 359.861 174.408 360.16C174.675 360.459 175.091 360.608 175.656 360.608C176.211 360.608 176.675 360.432 177.048 360.08C177.421 359.728 177.608 359.237 177.608 358.608V353.632H179.544V362H177.608V360.688C177.384 361.125 177.043 361.483 176.584 361.76C176.136 362.027 175.592 362.16 174.952 362.16ZM186.512 362.16C185.872 362.16 185.312 362.021 184.832 361.744C184.362 361.467 184.01 361.104 183.776 360.656V362H181.84V349.76H183.776V354.976C184.021 354.549 184.389 354.192 184.88 353.904C185.381 353.605 185.925 353.456 186.512 353.456C187.589 353.456 188.474 353.84 189.168 354.608C189.872 355.365 190.224 356.4 190.224 357.712V357.84C190.224 359.163 189.877 360.213 189.184 360.992C188.501 361.771 187.61 362.16 186.512 362.16ZM186.032 360.624C186.746 360.624 187.29 360.389 187.664 359.92C188.048 359.451 188.24 358.768 188.24 357.872V357.744C188.24 356.848 188.032 356.165 187.616 355.696C187.21 355.216 186.677 354.976 186.016 354.976C185.322 354.976 184.762 355.216 184.336 355.696C183.92 356.165 183.712 356.848 183.712 357.744V357.872C183.712 358.779 183.914 359.467 184.32 359.936C184.736 360.395 185.306 360.624 186.032 360.624Z" fill="black"/>
<path fill-rule="evenodd" clip-rule="evenodd" d="M295.351 353.751C295.82 353.283 296.58 353.283 297.049 353.751L301 357.703L304.951 353.751C305.42 353.283 306.18 353.283 306.649 353.751C307.117 354.22 307.117 354.98 306.649 355.449L301.849 360.249C301.38 360.717 300.62 360.717 300.151 360.249L295.351 355.449C294.883 354.98 294.883 354.22 295.351 353.751Z" fill="#1A1A1A"/>
<rect x="1" y="173" width="360" height="238" rx="4" stroke="black" shape-rendering="crispEdges"/>
</g>
<defs>
<filter id="filter0_d_3039_17962" x="0.5" y="0.438591" width="411" height="149" filterUnits="userSpaceOnUse" color-interpolation-filters="sRGB">
<feFlood flood-opacity="0" result="BackgroundImageFix"/>
<feColorMatrix in="SourceAlpha" type="matrix" values="0 0 0 0 0 0 0 0 0 0 0 0 0 0 0 0 0 0 127 0" result="hardAlpha"/>
<feOffset dx="3" dy="4"/>
<feComposite in2="hardAlpha" operator="out"/>
<feColorMatrix type="matrix" values="0 0 0 0 0 0 0 0 0 0 0 0 0 0 0 0 0 0 1 0"/>
<feBlend mode="normal" in2="BackgroundImageFix" result="effect1_dropShadow_3039_17962"/>
<feBlend mode="normal" in="SourceGraphic" in2="effect1_dropShadow_3039_17962" result="shape"/>
</filter>
<filter id="filter1_d_3039_17962" x="0.5" y="172.5" width="364" height="243" filterUnits="userSpaceOnUse" color-interpolation-filters="sRGB">
<feFlood flood-opacity="0" result="BackgroundImageFix"/>
<feColorMatrix in="SourceAlpha" type="matrix" values="0 0 0 0 0 0 0 0 0 0 0 0 0 0 0 0 0 0 127 0" result="hardAlpha"/>
<feOffset dx="3" dy="4"/>
<feComposite in2="hardAlpha" operator="out"/>
<feColorMatrix type="matrix" values="0 0 0 0 0 0 0 0 0 0 0 0 0 0 0 0 0 0 1 0"/>
<feBlend mode="normal" in2="BackgroundImageFix" result="effect1_dropShadow_3039_17962"/>
<feBlend mode="normal" in="SourceGraphic" in2="effect1_dropShadow_3039_17962" result="shape"/>
</filter>
</defs>
</svg>
